<svg xmlns="http://www.w3.org/2000/svg" version="1.1"><polyline points="460.0,3.0,464.5,11.0,470.5,18.5,476.0,26.5,480.0,34.5,483.0,42.5,487.5,50.5,490.5,58.5,493.5,66.5,496.5,74.5,498.5,82.0" stroke="black" stroke-width="2" fill="none" />
<polyline points="499.0,81.0,507.0,81.0,515.0,81.0" stroke="black" stroke-width="2" fill="none" />
<polyline points="516.5,82.0,508.5,90.0,500.5,97.5,492.5,105.0,484.0,112.0,475.5,119.5,467.0,127.0,458.5,134.0,450.0,141.5,442.0,149.0,433.5,156.5,425.5,164.5,418.0,172.0,410.0,180.0,402.0,188.0,394.0,196.0,386.0,204.0,377.5,211.5" stroke="black" stroke-width="2" fill="none" />
<polyline points="380.0,211.0,387.5,211.0" stroke="black" stroke-width="2" fill="none" />
<polyline points="395.5,208.5,403.5,208.0,412.0,207.5,420.0,207.0" stroke="black" stroke-width="2" fill="none" />
<polyline points="426.5,202.0,435.0,201.0,443.0,200.0" stroke="black" stroke-width="2" fill="none" />
<polyline points="451.0,193.0,459.0,192.0" stroke="black" stroke-width="2" fill="none" />
<polyline points="483.0,194.5,491.5,193.5" stroke="black" stroke-width="2" fill="none" />
<polyline points="499.0,201.0,491.5,201.5,484.0,202.0" stroke="black" stroke-width="2" fill="none" />
<polyline points="491.0,209.0,499.5,208.5,507.5,208.5,515.5,208.0" stroke="black" stroke-width="2" fill="none" />
<polyline points="514.0,205.0,506.5,212.0,498.5,219.0,490.5,226.5,482.5,234.0,474.5,241.5,466.5,249.0,458.5,256.5" stroke="black" stroke-width="2" fill="none" />
<polyline points="461.5,257.0,469.5,256.5,477.0,256.0,485.0,255.5,492.5,254.5,500.0,254.0,507.5,253.5,514.5,253.5" stroke="black" stroke-width="2" fill="none" />
<polyline points="516.5,252.0,508.0,259.5,500.0,267.5,492.5,275.0,484.5,282.5,476.0,290.5,468.5,297.5,460.5,304.5,452.5,312.0,444.5,319.5" stroke="black" stroke-width="2" fill="none" />
<polyline points="453.0,320.5,461.0,312.5,469.0,304.5,476.5,296.5,484.5,289.0,493.0,281.5,500.5,273.5,508.0,265.5,515.5,258.0" stroke="black" stroke-width="2" fill="none" />
<polyline points="515.0,266.0,507.0,273.5,499.5,281.0,491.5,288.5,483.0,296.0,475.0,304.0,467.5,311.5" stroke="black" stroke-width="2" fill="none" />
<polyline points="476.0,304.5,483.5,304.0,491.0,304.0,498.5,304.0,507.0,303.5,515.0,303.0" stroke="black" stroke-width="2" fill="none" />
<polyline points="514.0,299.5,506.0,307.0,498.5,314.0" stroke="black" stroke-width="2" fill="none" />
<polyline points="499.0,311.5,504.5,319.5,508.5,325.5,508.0,333.0,508.0,341.5,509.5,349.5,509.5,357.5,509.5,366.0,509.5,374.0,509.0,382.5,509.0,390.5,509.0,398.5,508.5,406.0,508.5,414.0,506.5,422.0,508.5,423.5,509.0,431.5,509.0,440.0,509.5,448.0,509.5,456.5,509.5,464.5,509.5,472.5,509.0,480.0,509.0,488.5,509.5,496.5,508.5,505.0,508.5,513.0" stroke="black" stroke-width="2" fill="none" />
<polyline points="509.5,509.5,517.5,509.0" stroke="black" stroke-width="2" fill="none" />
<polyline points="516.5,502.0,509.0,502.5" stroke="black" stroke-width="2" fill="none" />
<polyline points="509.5,494.5,517.5,494.0" stroke="black" stroke-width="2" fill="none" />
<polyline points="516.0,485.0,507.5,485.5" stroke="black" stroke-width="2" fill="none" />
<polyline points="507.0,479.0,515.5,478.0" stroke="black" stroke-width="2" fill="none" />
<polyline points="516.5,470.5,508.5,471.5" stroke="black" stroke-width="2" fill="none" />
<polyline points="507.5,463.0,515.5,462.0" stroke="black" stroke-width="2" fill="none" />
<polyline points="514.0,452.0,506.0,452.5" stroke="black" stroke-width="2" fill="none" />
<polyline points="506.0,446.0,514.0,445.5" stroke="black" stroke-width="2" fill="none" />
<polyline points="516.5,439.0,508.5,440.0" stroke="black" stroke-width="2" fill="none" />
<polyline points="508.0,430.5,516.0,430.0" stroke="black" stroke-width="2" fill="none" />
<polyline points="513.5,413.5,505.5,414.0" stroke="black" stroke-width="2" fill="none" />
<polyline points="507.5,406.0,515.5,405.5" stroke="black" stroke-width="2" fill="none" />
<polyline points="515.5,396.5,507.5,397.0" stroke="black" stroke-width="2" fill="none" />
<polyline points="508.0,389.5,515.5,389.0" stroke="black" stroke-width="2" fill="none" />
<polyline points="515.5,381.5,507.5,382.0" stroke="black" stroke-width="2" fill="none" />
<polyline points="508.0,374.0,516.0,373.5" stroke="black" stroke-width="2" fill="none" />
<polyline points="518.0,363.5,510.0,364.0" stroke="black" stroke-width="2" fill="none" />
<polyline points="508.5,356.5,517.0,356.0" stroke="black" stroke-width="2" fill="none" />
<polyline points="515.5,349.0,507.0,349.5" stroke="black" stroke-width="2" fill="none" />
<polyline points="508.5,340.5,516.5,340.0" stroke="black" stroke-width="2" fill="none" />
<polyline points="516.5,334.0,508.0,334.5" stroke="black" stroke-width="2" fill="none" />
<polyline points="508.0,325.0,516.0,324.5" stroke="black" stroke-width="2" fill="none" />
<polyline points="508.0,322.5,516.0,315.0" stroke="black" stroke-width="2" fill="none" />
<polyline points="516.5,308.0,508.5,315.5" stroke="black" stroke-width="2" fill="none" />
<polyline points="508.5,316.5,516.0,316.0" stroke="black" stroke-width="2" fill="none" />
<polyline points="516.0,313.0,508.0,313.5" stroke="black" stroke-width="2" fill="none" />
<polyline points="498.0,306.0,506.0,298.0,513.5,290.5" stroke="black" stroke-width="2" fill="none" />
<polyline points="514.0,282.0,506.0,290.0,498.0,298.0,490.0,305.5" stroke="black" stroke-width="2" fill="none" />
<polyline points="484.0,305.5,491.5,298.0,499.5,290.5,507.5,283.0,515.5,275.5" stroke="black" stroke-width="2" fill="none" />
<polyline points="515.0,245.0,507.5,252.5,500.0,260.0,492.0,267.5,484.0,275.0,476.0,282.5,467.5,290.0,459.0,298.0,451.0,305.5,443.0,312.5" stroke="black" stroke-width="2" fill="none" />
<polyline points="436.0,312.0,444.0,311.0,451.5,310.5,459.0,309.5,467.5,308.5,475.5,307.0,484.5,306.0,492.5,305.0,501.0,304.5,510.0,304.0,518.0,303.5" stroke="black" stroke-width="2" fill="none" />
<polyline points="516.5,297.0,509.0,297.0,501.0,297.0,493.0,297.5,485.5,298.0" stroke="black" stroke-width="2" fill="none" />
<polyline points="485.5,291.5,493.0,290.5,500.0,290.0,507.5,289.5,515.5,289.5" stroke="black" stroke-width="2" fill="none" />
<polyline points="514.5,280.0,506.5,280.5,498.5,281.0,490.5,281.5,482.5,282.0" stroke="black" stroke-width="2" fill="none" />
<polyline points="468.0,280.5,460.0,281.0" stroke="black" stroke-width="2" fill="none" />
<polyline points="458.5,273.5,467.0,273.0,475.0,272.0,483.0,271.5,491.0,271.5,498.5,271.0,506.0,271.0,513.5,270.5" stroke="black" stroke-width="2" fill="none" />
<polyline points="515.5,237.0,507.0,244.5,499.5,251.5,491.5,259.0,484.0,266.5,476.0,274.0,467.5,281.5,459.5,288.5,451.5,295.5,443.0,303.0,435.5,310.5" stroke="black" stroke-width="2" fill="none" />
<polyline points="436.0,302.5,444.0,295.0,451.5,287.5,459.0,280.5,467.0,273.0,475.0,265.0,483.0,257.0,491.0,249.0,499.5,241.0,508.0,233.0,516.5,225.0" stroke="black" stroke-width="2" fill="none" />
<polyline points="516.0,219.0,508.0,226.0,499.5,233.5,491.0,242.0,483.0,250.5,475.0,258.0,466.5,266.0,458.0,273.5,450.0,280.5" stroke="black" stroke-width="2" fill="none" />
<polyline points="453.0,275.5,460.5,275.0,468.5,274.5,476.0,274.5,484.0,275.0,492.0,274.5,499.5,274.5,507.5,274.5,515.0,274.5" stroke="black" stroke-width="2" fill="none" />
<polyline points="515.0,233.5,507.0,234.0" stroke="black" stroke-width="2" fill="none" />
<polyline points="505.5,225.5,514.0,225.0" stroke="black" stroke-width="2" fill="none" />
<polyline points="514.0,211.5,506.0,219.5,498.0,227.0,490.0,234.5,481.5,242.5,473.5,250.5,465.5,258.5,458.0,266.0" stroke="black" stroke-width="2" fill="none" />
<polyline points="460.0,265.0,468.0,264.5,475.5,264.5,483.0,264.5,490.5,264.0,498.0,264.0,506.0,263.0,514.0,262.0" stroke="black" stroke-width="2" fill="none" />
<polyline points="499.5,235.0,491.5,235.5" stroke="black" stroke-width="2" fill="none" />
<polyline points="498.5,218.0,506.5,217.5,514.5,217.0" stroke="black" stroke-width="2" fill="none" />
<polyline points="513.5,201.0,505.0,201.0" stroke="black" stroke-width="2" fill="none" />
<polyline points="517.0,195.0,509.0,202.5,500.5,209.5,492.0,217.0,484.0,224.5,476.0,232.0,467.5,239.5,459.0,247.0" stroke="black" stroke-width="2" fill="none" />
<polyline points="459.0,248.0,467.5,247.5,476.0,247.5,484.0,247.0,491.5,247.5,499.0,247.5,506.5,246.5,514.0,246.0" stroke="black" stroke-width="2" fill="none" />
<polyline points="515.5,256.5,508.0,257.5,500.5,258.5,492.5,259.0,484.5,259.5,476.5,260.5,469.0,261.0,460.5,262.0" stroke="black" stroke-width="2" fill="none" />
<polyline points="451.5,268.0,459.5,267.0,468.0,267.0,476.0,266.5,484.0,266.0,492.5,265.5,499.5,265.5,507.0,265.5,514.5,266.0" stroke="black" stroke-width="2" fill="none" />
<polyline points="516.0,251.0,508.5,251.0,500.5,251.0,492.5,250.5,484.5,251.0,476.0,250.5,467.5,250.5,460.0,251.0,452.0,251.0" stroke="black" stroke-width="2" fill="none" />
<polyline points="451.0,247.5,459.5,240.0,468.0,232.0,475.5,225.0,483.5,217.0,491.5,209.0,499.0,201.5,506.5,193.5,514.5,186.0" stroke="black" stroke-width="2" fill="none" />
<polyline points="514.5,184.5,506.5,185.0" stroke="black" stroke-width="2" fill="none" />
<polyline points="513.0,178.0,505.0,185.5,497.0,193.5,489.5,201.5,482.5,209.5,475.0,217.0,467.0,225.0,459.5,232.5,452.0,240.5" stroke="black" stroke-width="2" fill="none" />
<polyline points="452.5,240.5,460.5,239.5,468.0,238.5,476.0,238.0,484.0,237.5,492.0,237.5,499.5,237.5,507.0,237.5,515.0,237.0" stroke="black" stroke-width="2" fill="none" />
<polyline points="516.0,177.0,508.0,177.0,500.0,177.5,492.0,177.5" stroke="black" stroke-width="2" fill="none" />
<polyline points="486.0,160.5,494.0,159.5" stroke="black" stroke-width="2" fill="none" />
<polyline points="484.0,152.5,476.0,152.5" stroke="black" stroke-width="2" fill="none" />
<polyline points="474.5,144.5,482.5,144.5" stroke="black" stroke-width="2" fill="none" />
<polyline points="490.0,138.0,481.5,138.0,473.0,138.5" stroke="black" stroke-width="2" fill="none" />
<polyline points="458.5,131.5,451.0,139.0,443.5,147.0,435.5,154.5,427.0,161.5,419.0,169.0,411.0,176.5,403.5,183.5,395.5,191.0,387.0,198.5,379.0,206.0,371.0,213.0" stroke="black" stroke-width="2" fill="none" />
<polyline points="370.0,215.0,377.5,214.0,386.0,213.0,394.0,212.5,402.0,211.5,410.0,211.0,418.5,210.0,427.5,209.0,436.0,208.0,444.0,207.0,452.0,206.0,460.0,206.0,468.5,206.0,476.5,206.0,484.0,206.5,492.0,206.5,499.5,206.5,508.0,206.5,516.5,206.5" stroke="black" stroke-width="2" fill="none" />
<polyline points="515.0,172.5,507.0,180.0,499.0,187.5,490.5,195.0,482.0,202.5,474.0,209.5,466.0,217.0,458.5,224.5,451.0,231.5,443.5,239.0" stroke="black" stroke-width="2" fill="none" />
<polyline points="443.0,237.0,453.0,251.0" stroke="black" stroke-width="2" fill="none" />
<polyline points="434.5,259.0,436.5,262.0,439.0,270.0,435.5,278.0,432.5,286.5" stroke="black" stroke-width="2" fill="none" />
<polyline points="444.5,286.0,452.0,285.5,460.0,285.5,468.0,285.0,476.5,284.5,484.5,284.0,492.0,284.0,500.0,282.5,508.0,282.0,515.0,281.5" stroke="black" stroke-width="2" fill="none" />
<polyline points="517.0,291.0,508.5,291.5,500.0,291.5,491.5,291.5,484.0,291.5,476.0,291.5,468.5,291.0,460.5,291.0,452.0,291.0,444.0,291.0" stroke="black" stroke-width="2" fill="none" />
<polyline points="444.5,296.0,452.5,295.5,460.5,295.5" stroke="black" stroke-width="2" fill="none" />
<polyline points="452.5,303.5,444.5,304.5" stroke="black" stroke-width="2" fill="none" />
<polyline points="437.0,301.5,445.0,300.5,452.5,299.5,461.0,299.0,469.0,299.0,477.0,298.5,485.0,297.5,493.5,297.0,501.5,296.5,509.5,295.0,517.5,294.5" stroke="black" stroke-width="2" fill="none" />
<polyline points="507.0,319.5,499.0,311.0,491.0,311.0,483.0,309.5,475.0,311.0,467.0,316.0,459.0,322.5,451.5,322.5,443.0,321.5,435.0,321.0,432.5,316.0,428.0,308.0,432.0,301.5,437.0,293.5,443.5,285.5,448.5,277.5,453.5,269.5,455.5,262.0,456.5,254.0,447.5,249.0,442.0,241.0,434.0,242.5,426.0,241.5" stroke="black" stroke-width="2" fill="none" />
<polyline points="429.0,244.0,427.0,252.5,428.0,260.0,427.0,268.0,429.0,276.0,430.0,289.0,437.5,272.5" stroke="black" stroke-width="2" fill="none" />
<polyline points="429.0,260.0,421.5,260.5,414.0,261.5,406.0,262.0" stroke="black" stroke-width="2" fill="none" />
<polyline points="408.0,263.0,407.0,271.0" stroke="black" stroke-width="2" fill="none" />
<polyline points="399.0,268.0,397.0,276.0,394.5,280.5" stroke="black" stroke-width="2" fill="none" />
<polyline points="400.5,272.5,392.5,273.0,389.0,287.0,387.0,279.0,394.0,271.0,389.0,263.5" stroke="black" stroke-width="2" fill="none" />
<polyline points="372.0,253.5,380.0,252.5,388.5,252.0,396.5,251.5,404.5,251.0,412.0,250.5,420.0,250.0,428.5,249.5" stroke="black" stroke-width="2" fill="none" />
<polyline points="435.0,241.5,442.5,233.5,450.5,225.5,458.5,217.5,467.0,209.5,475.0,201.5,483.5,194.5,492.0,187.0,500.0,179.5,508.0,172.5,515.5,165.0" stroke="black" stroke-width="2" fill="none" />
<polyline points="516.5,156.5,508.5,164.5,500.5,172.5,492.5,179.5,484.5,186.0,475.5,193.0,467.0,201.0,458.5,209.0,450.5,216.5,442.0,224.5,434.0,231.5,426.0,239.0,419.0,246.0" stroke="black" stroke-width="2" fill="none" />
<polyline points="416.5,250.5,422.0,258.0" stroke="black" stroke-width="2" fill="none" />
<polyline points="419.5,237.5,428.0,230.5,435.5,223.0,443.5,216.0,451.5,208.5,460.0,201.0,468.5,194.0,476.5,186.5,484.5,179.5,492.5,172.0,500.5,164.5,508.5,156.5,517.0,149.5" stroke="black" stroke-width="2" fill="none" />
<polyline points="515.5,140.5,507.5,147.5,499.0,155.0,491.0,162.5,483.0,169.0,474.5,176.5,466.5,183.5,458.5,191.0,450.0,198.5,442.0,205.5,433.5,213.5,426.0,221.0,418.5,229.0,410.5,236.5,403.0,244.0" stroke="black" stroke-width="2" fill="none" />
<polyline points="395.5,243.5,403.5,236.0,411.5,228.0,419.0,220.5,426.5,212.5,434.0,204.5,442.5,197.5,450.5,190.0,458.0,183.0,466.0,175.5,474.0,168.0,482.5,160.5,491.0,153.0,499.0,145.5,507.0,138.0,515.0,131.0" stroke="black" stroke-width="2" fill="none" />
<polyline points="515.0,123.5,507.0,131.0,498.5,139.0,490.5,146.5,483.0,153.5,475.0,161.0,466.5,168.5,458.5,176.0,450.5,183.5,443.0,190.5,434.5,198.5,427.0,205.5,419.0,212.5,411.0,220.0,403.5,227.5,395.5,235.5,387.5,242.5" stroke="black" stroke-width="2" fill="none" />
<polyline points="394.5,242.5,386.0,242.5,378.0,242.5" stroke="black" stroke-width="2" fill="none" />
<polyline points="377.5,242.0,386.0,235.0,394.0,228.0,402.0,220.5,410.0,213.5,418.5,206.0,426.5,198.5,435.0,191.0,443.0,183.0,451.0,175.5,459.0,168.0,466.5,160.5,474.5,153.0,482.5,145.5,490.5,138.0,499.0,130.5,507.0,122.5,515.0,115.0" stroke="black" stroke-width="2" fill="none" />
<polyline points="515.0,107.0,507.0,115.0,499.0,123.0,491.0,130.5,482.5,139.0,474.5,146.5,466.5,154.0,458.5,161.0,450.5,168.5,443.0,176.0,435.5,183.5,427.0,190.5,419.0,197.5,411.0,204.5,402.5,212.0,395.0,219.0,386.5,227.0,378.5,234.5,370.5,242.5" stroke="black" stroke-width="2" fill="none" />
<polyline points="364.5,242.5,372.5,242.0,380.5,242.0,388.5,242.0,397.0,242.5,405.5,242.5,413.5,242.0,421.0,241.5,429.0,241.0,436.5,240.5,444.5,240.0,452.0,239.5,459.5,239.0,467.5,238.0,475.5,237.0,483.5,236.5,491.5,235.5,500.0,235.0,508.5,235.0,516.5,234.5" stroke="black" stroke-width="2" fill="none" />
<polyline points="451.5,207.0,443.5,208.0,436.0,208.5,428.5,209.0" stroke="black" stroke-width="2" fill="none" />
<polyline points="426.5,194.5,434.5,194.0" stroke="black" stroke-width="2" fill="none" />
<polyline points="445.0,184.5,437.5,185.0,429.5,186.5,421.5,187.5" stroke="black" stroke-width="2" fill="none" />
<polyline points="419.5,200.0,411.0,200.5,403.0,201.0,395.0,201.5" stroke="black" stroke-width="2" fill="none" />
<polyline points="394.5,192.0,402.5,192.0" stroke="black" stroke-width="2" fill="none" />
<polyline points="410.5,215.0,418.5,214.5,426.5,215.0,434.5,215.0,442.0,215.5,450.0,215.5" stroke="black" stroke-width="2" fill="none" />
<polyline points="467.0,231.0,459.0,231.5,451.0,232.0,443.5,232.5,436.0,233.0,428.0,233.5,420.0,234.0" stroke="black" stroke-width="2" fill="none" />
<polyline points="412.5,226.0,420.0,225.5,428.0,224.5,436.0,224.0,443.5,224.0,452.0,223.5,459.5,223.0" stroke="black" stroke-width="2" fill="none" />
<polyline points="460.0,168.5,452.0,168.5" stroke="black" stroke-width="2" fill="none" />
<polyline points="451.0,163.5,443.0,164.0" stroke="black" stroke-width="2" fill="none" />
<polyline points="453.5,118.0,445.5,125.5,437.5,132.5,429.5,140.0,421.5,147.5,413.0,154.5,405.0,162.0,396.0,168.5,387.5,175.0,379.5,182.5,371.0,190.0" stroke="black" stroke-width="2" fill="none" />
<polyline points="371.0,186.5,379.0,186.0,387.0,185.5,395.0,185.0,403.0,184.5,411.0,184.0" stroke="black" stroke-width="2" fill="none" />
<polyline points="402.5,216.5,394.5,217.0,386.5,217.5,378.5,217.5" stroke="black" stroke-width="2" fill="none" />
<polyline points="378.5,227.0,386.5,226.0,394.5,225.5" stroke="black" stroke-width="2" fill="none" />
<polyline points="394.0,233.5,385.5,234.0,377.5,235.0" stroke="black" stroke-width="2" fill="none" />
<polyline points="372.0,234.0,379.5,226.5,388.0,219.0,396.5,211.5,404.0,204.5,411.5,197.5,419.0,190.0,426.5,183.0,434.0,175.5,442.5,167.5,450.5,159.5,458.5,152.0,467.0,144.0,475.5,136.0,483.5,128.5,491.0,121.0,499.0,114.0,507.5,106.5,515.0,99.0" stroke="black" stroke-width="2" fill="none" />
<polyline points="508.5,97.5,517.0,90.5" stroke="black" stroke-width="2" fill="none" />
<polyline points="514.5,95.5,506.0,96.5" stroke="black" stroke-width="2" fill="none" />
<polyline points="505.0,99.0,508.0,102.0,510.0,110.0,510.0,118.0,510.0,125.5,510.0,134.0,510.0,142.0,510.5,150.5,510.5,159.0,510.5,167.0" stroke="black" stroke-width="2" fill="none" />
<polyline points="497.0,110.0,488.5,117.0,481.5,124.0,473.5,131.5,466.0,138.5,458.5,146.0,451.0,153.5,443.0,161.5,435.0,169.0,427.0,176.5,419.0,184.0,411.5,191.5,404.0,199.0,396.0,206.5,388.0,214.0,380.0,221.5,371.5,229.0" stroke="black" stroke-width="2" fill="none" />
<polyline points="370.0,230.5,378.0,230.0,387.0,229.5,396.0,229.0,404.5,227.5,413.0,227.0,421.5,226.0,429.5,225.0,437.5,224.5,445.0,224.0,452.5,223.5,460.5,222.5,468.5,222.5,477.0,222.0,485.0,222.0,493.5,221.5,501.5,221.5,509.0,221.5,517.0,221.5" stroke="black" stroke-width="2" fill="none" />
<polyline points="517.0,213.0,508.5,213.5,500.0,214.0,492.0,214.5,484.0,214.0,476.0,214.0,468.5,214.5,460.5,214.5,452.5,215.0,444.5,215.0,436.5,216.0,428.5,217.0,420.0,218.0,411.5,219.0,403.0,219.5,395.0,220.5,386.0,221.5,377.5,222.5,369.5,223.0" stroke="black" stroke-width="2" fill="none" />
<polyline points="363.0,234.0,371.0,234.0,379.0,234.0,387.5,234.0,395.5,233.5,403.5,233.0,411.5,233.0,419.0,233.0,427.0,233.0,435.0,233.0,442.5,233.0,451.0,232.0,459.0,231.0,467.5,230.5,476.0,229.5,484.0,229.0,492.0,228.5,500.5,228.5,509.0,228.5,517.5,229.0" stroke="black" stroke-width="2" fill="none" />
<polyline points="515.5,197.5,507.5,197.5,499.5,198.0,491.0,198.0,483.0,198.5,474.5,199.0,466.0,199.0,458.0,200.0,450.5,201.0,442.5,201.5,434.0,202.5,426.0,202.5,418.0,202.5,410.5,202.5,403.0,202.5,395.0,202.5,387.0,202.5,379.0,202.5,370.5,202.0,363.0,202.5" stroke="black" stroke-width="2" fill="none" />
<polyline points="360.0,198.5,360.0,207.0" stroke="black" stroke-width="2" fill="none" />
<polyline points="369.5,202.0,377.5,202.0" stroke="black" stroke-width="2" fill="none" />
<polyline points="371.5,204.0,379.0,196.5,386.5,188.5,394.5,181.0,403.0,173.0,411.5,166.0,419.5,159.5,427.5,153.0,435.5,146.5,443.5,139.0,451.0,132.0,458.5,124.5,467.0,117.0,475.0,109.5" stroke="black" stroke-width="2" fill="none" />
<polyline points="474.5,101.0,466.0,108.5,458.0,116.0,450.0,123.5,441.5,130.5,434.0,137.5,425.5,144.5,417.5,151.5,409.5,158.5,401.0,165.5,393.0,173.0,385.0,180.5,377.0,188.5,369.5,196.5" stroke="black" stroke-width="2" fill="none" />
<polyline points="364.5,194.5,367.0,202.5,366.0,211.0,367.5,220.0,366.5,228.0,367.0,235.5,364.0,244.0,369.0,252.0,372.0,256.5,380.5,261.5,388.0,260.5,394.0,264.5,406.0,273.5,413.0,266.5" stroke="black" stroke-width="2" fill="none" />
<polyline points="446.0,282.5,438.0,293.0,430.0,304.5" stroke="black" stroke-width="2" fill="none" />
<polyline points="434.5,319.0,442.5,319.0,451.0,318.5,459.5,317.5,467.5,316.5" stroke="black" stroke-width="2" fill="none" />
<polyline points="461.5,323.5,465.5,316.5,478.5,308.5" stroke="black" stroke-width="2" fill="none" />
<polyline points="381.5,315.0,373.5,315.5" stroke="black" stroke-width="2" fill="none" />
<polyline points="367.0,314.5,375.0,314.0,383.0,313.0,391.0,314.0,399.0,315.5,407.0,315.5,415.0,313.5" stroke="black" stroke-width="2" fill="none" />
<polyline points="415.0,317.0,407.0,320.0,399.0,320.0,391.5,319.0,383.5,318.0,375.0,318.0,374.0,328.5,366.0,338.5,357.0,345.5,347.5,350.5,339.5,365.0,331.5,378.0,323.5,386.0,315.5,399.0,307.5,407.5,299.0,416.5,291.0,424.5,283.0,434.0,275.5,440.5,267.5,448.5,259.5,455.5,252.0,461.5,244.0,469.5,236.0,475.0,228.0,483.0,220.0,490.0,212.0,492.0,204.0,491.5,193.0,493.5,182.0,486.5,174.0,476.5,166.0,470.0,158.5,467.0,150.5,464.0,142.5,461.0" stroke="black" stroke-width="2" fill="none" />
<polyline points="141.5,459.0,133.5,466.0,124.5,474.0" stroke="black" stroke-width="2" fill="none" />
<polyline points="123.0,477.5,131.0,477.0,140.0,476.0,148.0,476.0,156.0,475.5,164.0,475.0,172.0,474.5,180.0,473.5,188.0,472.5,196.0,471.5,204.0,471.0,211.5,471.0,219.5,470.5,227.0,470.0,234.5,469.5" stroke="black" stroke-width="2" fill="none" />
<polyline points="234.5,467.0,226.0,474.5,217.5,482.0" stroke="black" stroke-width="2" fill="none" />
<polyline points="210.5,482.0,218.5,474.5" stroke="black" stroke-width="2" fill="none" />
<polyline points="213.0,475.0,204.5,482.5" stroke="black" stroke-width="2" fill="none" />
<polyline points="207.0,489.0,211.0,497.0" stroke="black" stroke-width="2" fill="none" />
<polyline points="213.0,500.5,205.0,500.0,197.0,500.5,188.5,501.0" stroke="black" stroke-width="2" fill="none" />
<polyline points="187.0,498.0,195.0,491.0" stroke="black" stroke-width="2" fill="none" />
<polyline points="188.5,491.0,180.0,498.5" stroke="black" stroke-width="2" fill="none" />
<polyline points="182.5,496.5,190.0,496.5" stroke="black" stroke-width="2" fill="none" />
<polyline points="178.0,491.0,170.0,491.5,162.0,492.0" stroke="black" stroke-width="2" fill="none" />
<polyline points="162.5,492.5,170.5,492.0,179.0,492.0,187.0,492.0,195.5,491.0,204.5,490.5,212.5,490.0" stroke="black" stroke-width="2" fill="none" />
<polyline points="222.0,494.5,230.0,487.5,238.5,479.0,238.5,479.0,230.5,487.0,223.0,495.0,230.5,501.0,224.5,509.0,228.5,503.0,236.5,502.5,239.0,503.5,244.5,511.5" stroke="black" stroke-width="2" fill="none" />
<polyline points="243.5,506.5,236.0,514.0" stroke="black" stroke-width="2" fill="none" />
<polyline points="236.0,515.5,244.0,514.5" stroke="black" stroke-width="2" fill="none" />
<polyline points="234.5,507.0,226.5,514.5" stroke="black" stroke-width="2" fill="none" />
<polyline points="228.0,511.5,236.0,511.5,244.0,510.5,251.5,509.5" stroke="black" stroke-width="2" fill="none" />
<polyline points="243.5,501.5,236.5,501.5,229.5,502.5" stroke="black" stroke-width="2" fill="none" />
<polyline points="203.5,473.5,195.5,481.0" stroke="black" stroke-width="2" fill="none" />
<polyline points="196.5,474.5,189.0,482.0,181.0,489.5,172.5,497.5" stroke="black" stroke-width="2" fill="none" />
<polyline points="170.5,489.5,178.0,481.5" stroke="black" stroke-width="2" fill="none" />
<polyline points="178.0,476.0,170.0,483.5,163.0,491.0" stroke="black" stroke-width="2" fill="none" />
<polyline points="164.0,493.0,180.0,500.0,183.0,512.5" stroke="black" stroke-width="2" fill="none" />
<polyline points="180.0,509.5,183.0,505.5,191.5,510.0" stroke="black" stroke-width="2" fill="none" />
<polyline points="173.0,477.0,165.0,484.0,157.5,491.5" stroke="black" stroke-width="2" fill="none" />
<polyline points="156.0,484.0,165.0,476.5,173.5,469.0" stroke="black" stroke-width="2" fill="none" />
<polyline points="169.0,469.5,174.0,477.5,181.0,485.5,193.0,493.5" stroke="black" stroke-width="2" fill="none" />
<polyline points="172.0,478.5,164.0,479.0,156.0,480.0" stroke="black" stroke-width="2" fill="none" />
<polyline points="148.5,473.5,156.5,473.0,165.0,471.5" stroke="black" stroke-width="2" fill="none" />
<polyline points="161.5,467.0,154.0,475.0,146.0,482.0" stroke="black" stroke-width="2" fill="none" />
<polyline points="141.0,483.0,149.5,475.5,157.5,468.0" stroke="black" stroke-width="2" fill="none" />
<polyline points="147.5,467.0,139.5,475.0,132.0,482.5" stroke="black" stroke-width="2" fill="none" />
<polyline points="130.0,474.5,138.5,467.0" stroke="black" stroke-width="2" fill="none" />
<polyline points="131.0,459.0,123.5,466.5" stroke="black" stroke-width="2" fill="none" />
<polyline points="121.5,459.0,113.5,466.5" stroke="black" stroke-width="2" fill="none" />
<polyline points="115.5,468.0,123.5,467.5,132.5,466.5,141.0,466.0,149.0,465.5,157.5,464.5,165.0,464.0,173.0,464.0,180.5,464.0,188.5,464.5,196.5,464.5,204.5,464.0,213.0,462.5,220.5,462.0,228.0,461.0,235.5,460.5,243.0,460.0" stroke="black" stroke-width="2" fill="none" />
<polyline points="243.0,465.5,251.5,458.5,259.5,450.5,267.5,443.0" stroke="black" stroke-width="2" fill="none" />
<polyline points="267.0,437.5,275.5,437.0,283.5,437.0" stroke="black" stroke-width="2" fill="none" />
<polyline points="290.0,427.0,282.5,427.5,274.0,428.0" stroke="black" stroke-width="2" fill="none" />
<polyline points="284.5,422.0,292.5,421.0,300.0,420.0" stroke="black" stroke-width="2" fill="none" />
<polyline points="295.5,414.0,288.0,422.0,278.0,430.0,269.0,437.5,258.5,442.0,251.0,447.5,246.0,450.5,237.0,458.5,222.0,466.0,225.0,463.5,233.0,460.5,241.0,457.5,250.5,448.0,258.5,442.5,267.0,440.0,276.0,432.0,284.0,425.0,292.0,418.5" stroke="black" stroke-width="2" fill="none" />
<polyline points="305.5,436.5,313.0,436.5" stroke="black" stroke-width="2" fill="none" />
<polyline points="324.0,419.0,331.5,419.0" stroke="black" stroke-width="2" fill="none" />
<polyline points="331.0,411.0,338.5,410.5" stroke="black" stroke-width="2" fill="none" />
<polyline points="340.5,404.5,348.5,404.0" stroke="black" stroke-width="2" fill="none" />
<polyline points="355.5,405.5,363.0,404.5" stroke="black" stroke-width="2" fill="none" />
<polyline points="364.5,397.0,372.0,396.0" stroke="black" stroke-width="2" fill="none" />
<polyline points="355.5,389.5,347.5,390.0" stroke="black" stroke-width="2" fill="none" />
<polyline points="343.5,385.0,352.0,377.5" stroke="black" stroke-width="2" fill="none" />
<polyline points="355.0,376.5,362.5,369.0" stroke="black" stroke-width="2" fill="none" />
<polyline points="361.5,363.5,353.5,370.5" stroke="black" stroke-width="2" fill="none" />
<polyline points="355.5,372.0,363.5,371.0,371.0,370.5" stroke="black" stroke-width="2" fill="none" />
<polyline points="364.0,381.0,355.5,382.0,347.5,382.5" stroke="black" stroke-width="2" fill="none" />
<polyline points="337.5,379.5,332.5,388.0,327.5,395.5,318.5,403.5,314.5,408.0,322.5,400.0,330.5,389.0" stroke="black" stroke-width="2" fill="none" />
<polyline points="340.5,398.0,348.0,397.0,356.0,396.5" stroke="black" stroke-width="2" fill="none" />
<polyline points="339.0,372.0,330.5,373.0,322.0,373.5" stroke="black" stroke-width="2" fill="none" />
<polyline points="331.0,364.5,339.0,364.0,347.0,364.0,355.5,364.0,364.0,363.5" stroke="black" stroke-width="2" fill="none" />
<polyline points="361.5,363.5,353.5,360.0,345.5,362.0" stroke="black" stroke-width="2" fill="none" />
<polyline points="350.5,363.5,358.5,370.5" stroke="black" stroke-width="2" fill="none" />
<polyline points="358.5,363.5,366.0,371.5,365.0,379.0,360.0,387.0,355.0,394.5,347.5,402.5,341.5,410.0,334.5,418.0,323.5,426.0,316.5,436.0,315.5,437.0,323.5,426.0,331.5,422.0,339.0,412.0,347.0,401.5,355.0,392.5,363.0,379.5" stroke="black" stroke-width="2" fill="none" />
<polyline points="377.5,382.0,370.0,392.0,362.5,403.0,357.5,409.0,365.0,401.0,371.0,393.0,376.5,384.5,384.5,377.0" stroke="black" stroke-width="2" fill="none" />
<polyline points="381.5,359.0,374.0,374.0,366.0,389.0,358.0,399.5,354.0,411.0,351.0,409.5,356.0,401.5,363.0,393.5,368.0,386.0,373.0,377.5,376.5,370.0,381.5,362.0,383.5,354.0,388.5,346.0" stroke="black" stroke-width="2" fill="none" />
<polyline points="378.5,322.5,369.5,330.5,362.5,338.5,354.0,347.0,347.0,351.5,343.0,359.5,339.0,368.0,333.0,376.0,324.5,384.0,318.5,392.0,312.5,400.0,305.0,408.0,299.0,416.5,291.5,424.5,285.0,432.5,275.5,440.5,267.5,448.0,257.5,456.0,250.0,463.5,240.0,472.0,230.0,480.0,222.5,487.5,214.5,494.0" stroke="black" stroke-width="2" fill="none" />
<polyline points="220.5,462.0,228.0,461.5,235.5,461.0,243.0,461.0,251.5,461.0" stroke="black" stroke-width="2" fill="none" />
<polyline points="242.0,452.0,250.5,451.0,259.0,450.5,267.0,450.0" stroke="black" stroke-width="2" fill="none" />
<polyline points="277.5,444.0,269.0,444.5,261.0,445.0,253.0,446.5" stroke="black" stroke-width="2" fill="none" />
<polyline points="316.5,508.5,324.5,508.0,331.5,507.5" stroke="black" stroke-width="2" fill="none" />
<polyline points="331.0,510.0,323.0,511.5,336.0,505.5" stroke="black" stroke-width="2" fill="none" />
<polyline points="340.0,499.5,348.0,491.5,356.0,484.0" stroke="black" stroke-width="2" fill="none" />
<polyline points="361.5,481.0,354.0,489.0,346.5,496.5" stroke="black" stroke-width="2" fill="none" />
<polyline points="339.0,490.0,347.0,483.0" stroke="black" stroke-width="2" fill="none" />
<polyline points="344.5,480.0,333.5,488.0,323.5,496.0,314.5,503.5,309.5,511.5,316.5,502.0,324.5,494.0,332.0,488.0,340.0,481.5,348.0,478.5,356.0,476.0,364.0,476.5" stroke="black" stroke-width="2" fill="none" />
<polyline points="363.0,476.0,355.0,477.0" stroke="black" stroke-width="2" fill="none" />
<polyline points="340.0,486.5,348.5,486.0,356.5,485.5,364.5,484.5,372.0,483.5" stroke="black" stroke-width="2" fill="none" />
<polyline points="370.0,445.5,378.5,445.0" stroke="black" stroke-width="2" fill="none" />
<polyline points="380.0,442.5,387.5,435.0,395.0,427.5" stroke="black" stroke-width="2" fill="none" />
<polyline points="391.5,425.0,372.0,433.0,366.0,441.0,367.5,448.5,368.5,456.5,370.5,464.0,370.0,472.0,365.5,480.5,362.5,488.5,351.0,496.0,342.0,499.0,350.0,497.0,358.5,493.0,366.5,483.5" stroke="black" stroke-width="2" fill="none" />
<polyline points="363.0,491.0,355.0,491.5,346.5,492.0,338.5,492.5,330.5,493.0" stroke="black" stroke-width="2" fill="none" />
<polyline points="324.0,500.5,332.0,500.0,340.0,500.0,348.0,499.5" stroke="black" stroke-width="2" fill="none" />
<polyline points="371.5,443.0,379.5,435.5" stroke="black" stroke-width="2" fill="none" />
<polyline points="378.0,430.0,386.5,429.0,394.5,428.5,402.5,428.5,410.0,428.0,418.5,427.0,426.5,427.0" stroke="black" stroke-width="2" fill="none" />
<polyline points="426.5,424.0,434.5,416.5" stroke="black" stroke-width="2" fill="none" />
<polyline points="429.0,421.0,421.0,428.0,412.5,435.5" stroke="black" stroke-width="2" fill="none" />
<polyline points="410.0,429.5,402.5,436.5" stroke="black" stroke-width="2" fill="none" />
<polyline points="396.5,433.5,405.0,433.0,412.5,432.0" stroke="black" stroke-width="2" fill="none" />
<polyline points="402.0,427.5,394.5,435.5" stroke="black" stroke-width="2" fill="none" />
<polyline points="385.5,437.5,373.5,443.5,369.5,450.0,378.5,441.5,386.5,437.5,394.0,435.5,402.5,434.5,410.0,431.5,418.0,429.5,425.5,428.0,433.5,428.0,441.5,428.0,449.5,427.0,457.5,426.0,465.5,424.5,473.5,423.5,481.5,422.5,489.5,422.5,497.5,422.5,505.5,422.0" stroke="black" stroke-width="2" fill="none" />
<polyline points="476.0,421.5,467.5,428.5" stroke="black" stroke-width="2" fill="none" />
<polyline points="461.0,428.0,469.0,420.5" stroke="black" stroke-width="2" fill="none" />
<polyline points="459.0,420.5,451.0,428.0" stroke="black" stroke-width="2" fill="none" />
<polyline points="451.5,422.0,443.5,429.0" stroke="black" stroke-width="2" fill="none" />
<polyline points="434.5,427.0,443.0,419.0" stroke="black" stroke-width="2" fill="none" />
<polyline points="403.5,421.5,411.5,421.0,420.0,421.0,427.5,420.5,435.5,419.5,443.0,419.0,451.0,419.0,459.0,418.5,467.0,418.0,475.0,417.5,483.0,417.0,491.5,416.5,499.0,415.5,507.0,415.0,514.5,415.0" stroke="black" stroke-width="2" fill="none" />
<polyline points="379.0,440.0,371.0,441.0" stroke="black" stroke-width="2" fill="none" />
<polyline points="371.0,437.0,378.5,436.5,387.0,436.0,395.5,435.5,404.0,434.5" stroke="black" stroke-width="2" fill="none" />
<polyline points="366.5,436.5,374.5,432.0,382.5,429.0,390.5,426.5,398.0,424.5,406.0,423.5,414.0,421.5,422.0,421.0,430.0,420.0,438.0,419.0,446.0,418.5,454.0,417.5,462.5,417.0,470.5,417.0,479.0,416.5,486.5,414.5,493.5,415.0,501.5,416.0" stroke="black" stroke-width="2" fill="none" />
<polyline points="351.5,365.0,359.5,373.0,355.0,376.0,346.0,384.0,344.0,391.0,341.0,403.0,334.0,410.5,326.0,419.0,317.0,427.0,303.5,433.5,311.5,429.0,319.5,422.0,327.5,417.0,335.5,408.0" stroke="black" stroke-width="2" fill="none" />
<polyline points="339.5,357.5,348.0,357.0" stroke="black" stroke-width="2" fill="none" />
<polyline points="355.0,348.5,347.5,348.5,339.5,348.5" stroke="black" stroke-width="2" fill="none" />
<polyline points="347.5,342.5,355.5,342.0" stroke="black" stroke-width="2" fill="none" />
<polyline points="347.0,336.0,342.0,344.0,338.5,353.0,333.5,361.0,328.5,369.0,325.5,377.5,329.5,368.5,337.5,355.5,341.5,344.0" stroke="black" stroke-width="2" fill="none" />
<polyline points="373.0,253.0,365.0,246.5" stroke="black" stroke-width="2" fill="none" />
<polyline points="363.0,195.5,371.0,195.5,378.5,195.5,386.0,195.5,394.0,195.0,402.5,194.5,410.5,194.5,419.0,194.5,427.5,194.0,435.5,193.5,444.0,193.0,452.0,192.5,460.0,192.0,467.5,191.5,475.0,191.0,483.0,190.5,491.0,190.0,499.5,189.5,507.5,188.5,516.0,188.0" stroke="black" stroke-width="2" fill="none" />
<polyline points="475.0,120.5,467.0,121.0" stroke="black" stroke-width="2" fill="none" />
<polyline points="466.0,120.0,474.5,113.0,482.5,106.0,490.5,98.5" stroke="black" stroke-width="2" fill="none" />
<polyline points="490.5,90.5,482.5,97.5" stroke="black" stroke-width="2" fill="none" />
<polyline points="468.0,102.0,460.5,109.5" stroke="black" stroke-width="2" fill="none" />
<polyline points="458.5,100.0,451.0,107.5,443.5,115.0,435.5,123.0,427.5,130.5,419.0,138.0,411.0,146.0,403.0,153.5,395.0,161.0,387.0,167.5,379.0,174.5,371.0,182.0,362.5,190.0" stroke="black" stroke-width="2" fill="none" />
<polyline points="364.0,183.5,371.5,175.5,379.0,168.0,387.0,160.0,395.0,152.5,402.0,144.5,409.5,137.0,417.5,129.0,425.5,121.5,433.5,114.0" stroke="black" stroke-width="2" fill="none" />
<polyline points="429.0,108.0,421.5,115.5,413.0,123.0,404.5,131.0,396.0,139.0,388.0,146.5,380.0,154.0,372.5,161.0,365.0,168.5,357.0,175.5" stroke="black" stroke-width="2" fill="none" />
<polyline points="355.0,183.0,362.5,175.5,370.5,168.0,378.5,160.5,386.0,152.0,394.5,144.5,401.5,136.0,409.5,128.5,417.5,121.0,426.0,114.0,434.0,106.5" stroke="black" stroke-width="2" fill="none" />
<polyline points="427.5,99.0,419.0,107.0,411.0,114.5,403.0,122.0,395.0,130.0,387.0,137.0,380.0,144.5,372.5,151.0,365.0,158.5,357.5,166.0,349.5,173.5" stroke="black" stroke-width="2" fill="none" />
<polyline points="347.0,177.5,355.0,177.0" stroke="black" stroke-width="2" fill="none" />
<polyline points="355.0,188.0,363.0,187.5,371.0,187.5,379.5,187.5,387.5,186.5,395.5,186.5,404.0,185.5,412.0,185.5,420.0,185.0,428.0,184.5,435.5,184.5,443.5,184.0,452.0,184.0,459.5,183.5,467.5,182.5,475.0,182.0,483.0,182.0,491.0,181.5,499.0,181.0,507.0,180.5,515.0,180.0" stroke="black" stroke-width="2" fill="none" />
<polyline points="505.0,89.5,513.0,88.5" stroke="black" stroke-width="2" fill="none" />
<polyline points="501.0,90.0,509.0,82.0,517.0,74.5" stroke="black" stroke-width="2" fill="none" />
<polyline points="516.5,65.0,508.0,72.5,500.0,80.0" stroke="black" stroke-width="2" fill="none" />
<polyline points="498.0,75.5,506.0,75.0,515.0,74.0" stroke="black" stroke-width="2" fill="none" />
<polyline points="516.5,60.0,508.5,67.0,500.5,73.5" stroke="black" stroke-width="2" fill="none" />
<polyline points="498.0,67.0,506.5,66.5,514.5,66.0" stroke="black" stroke-width="2" fill="none" />
<polyline points="515.0,52.0,507.0,59.0,499.0,66.5" stroke="black" stroke-width="2" fill="none" />
<polyline points="491.0,67.0,499.0,59.5,507.0,52.0,515.5,45.0" stroke="black" stroke-width="2" fill="none" />
<polyline points="515.5,36.0,508.0,43.5,499.5,51.0,491.0,58.5" stroke="black" stroke-width="2" fill="none" />
<polyline points="492.0,58.0,500.0,57.5,508.0,57.5,516.0,56.5" stroke="black" stroke-width="2" fill="none" />
<polyline points="516.5,48.5,509.0,49.0,501.0,49.0,493.0,49.5" stroke="black" stroke-width="2" fill="none" />
<polyline points="492.5,50.0,501.0,43.0,509.0,35.5,517.0,28.5" stroke="black" stroke-width="2" fill="none" />
<polyline points="517.5,18.5,509.5,26.0,501.5,33.0,492.5,40.5,484.0,49.0" stroke="black" stroke-width="2" fill="none" />
<polyline points="485.5,51.5,493.0,51.0,500.5,51.0,508.0,50.5,515.5,50.5" stroke="black" stroke-width="2" fill="none" />
<polyline points="517.0,42.5,508.5,42.5,500.5,43.0,492.0,43.5,484.0,44.5" stroke="black" stroke-width="2" fill="none" />
<polyline points="485.5,42.5,493.0,42.0,501.0,41.0,509.0,40.0,517.0,39.0" stroke="black" stroke-width="2" fill="none" />
<polyline points="515.5,11.5,507.5,19.0,499.5,26.0,491.0,33.5,483.0,41.0" stroke="black" stroke-width="2" fill="none" />
<polyline points="484.0,35.5,492.0,35.0,500.5,34.5,508.5,34.0,516.0,33.0" stroke="black" stroke-width="2" fill="none" />
<polyline points="513.5,4.5,505.5,12.0,498.0,19.0,490.5,26.0,482.5,33.0" stroke="black" stroke-width="2" fill="none" />
<polyline points="474.0,35.0,482.0,28.5,490.0,21.0,497.5,13.5,505.5,6.0" stroke="black" stroke-width="2" fill="none" />
<polyline points="498.0,4.0,490.0,11.0,482.0,19.0,474.5,26.0" stroke="black" stroke-width="2" fill="none" />
<polyline points="475.0,26.0,483.5,25.5,491.0,24.5,499.0,24.0,506.5,24.0,515.0,23.5" stroke="black" stroke-width="2" fill="none" />
<polyline points="493.0,2.0,485.0,10.0,476.5,17.5" stroke="black" stroke-width="2" fill="none" />
<polyline points="476.5,17.0,484.0,17.0,492.0,16.5,499.5,16.0,507.5,14.5,515.5,13.5" stroke="black" stroke-width="2" fill="none" />
<polyline points="483.5,3.5,475.0,11.0,467.5,18.5" stroke="black" stroke-width="2" fill="none" />
<polyline points="468.0,12.5,475.5,4.5" stroke="black" stroke-width="2" fill="none" />
<polyline points="467.0,5.0,459.5,12.5" stroke="black" stroke-width="2" fill="none" />
<polyline points="467.0,8.5,475.0,8.5,484.0,8.0,492.5,8.0,501.0,7.5,509.0,7.0,516.5,6.5" stroke="black" stroke-width="2" fill="none" />
<polyline points="516.0,62.0,508.0,62.5,499.5,63.0,491.5,63.5,483.5,64.0,476.0,64.5,467.5,65.0,459.5,66.0,451.0,66.5,443.0,67.0,435.0,67.5,427.0,67.5,419.0,68.0,411.5,68.0,403.5,69.0,395.5,69.5,388.0,70.5,380.0,71.0,371.5,71.5,363.5,73.0,355.5,73.5,347.5,74.0,340.0,74.5,332.0,75.5,324.5,76.0,316.5,76.5,308.0,76.5,300.0,76.5,291.5,77.0,283.5,77.5,275.0,78.0" stroke="black" stroke-width="2" fill="none" />
<polyline points="274.5,83.5,282.5,83.0,291.5,83.0,300.0,83.0,308.0,82.5,316.0,82.5,324.0,82.5,332.0,82.5,340.0,82.5,347.5,82.0,355.5,81.5,363.5,81.0,372.0,80.0,380.5,79.5,388.5,78.5,396.5,78.0,404.5,77.0,412.5,76.0,420.5,75.5,428.0,75.0,435.5,74.5,443.5,74.0,452.0,73.5,460.0,73.0,467.5,72.0,475.5,71.0,483.0,70.5,491.5,70.5,499.5,70.5,507.0,70.0,515.0,69.5" stroke="black" stroke-width="2" fill="none" />
<polyline points="515.5,66.5,508.0,67.0,500.5,67.5,493.0,67.5,485.0,67.5,477.0,67.0,469.0,67.0,461.0,67.5" stroke="black" stroke-width="2" fill="none" />
<polyline points="454.0,84.0,445.5,92.0" stroke="black" stroke-width="2" fill="none" />
<polyline points="449.5,98.5,457.5,91.5" stroke="black" stroke-width="2" fill="none" />
<polyline points="452.0,100.0,455.0,107.5,459.0,115.5" stroke="black" stroke-width="2" fill="none" />
<polyline points="427.0,91.5,419.0,99.5" stroke="black" stroke-width="2" fill="none" />
<polyline points="410.5,107.5,402.5,115.0" stroke="black" stroke-width="2" fill="none" />
<polyline points="398.0,115.0,389.5,122.5,381.0,130.0,372.0,137.5,363.5,145.5,355.5,153.5,347.0,161.0,338.5,169.0,330.5,177.0" stroke="black" stroke-width="2" fill="none" />
<polyline points="332.0,171.0,340.0,170.0,349.0,169.0,357.0,167.5,365.0,166.5,373.0,165.5,381.0,164.5,389.0,164.0,397.0,163.5,405.5,163.0" stroke="black" stroke-width="2" fill="none" />
<polyline points="419.5,175.5,411.5,176.0,403.5,176.0,396.0,176.5,388.0,176.5,380.5,177.0,372.5,177.5" stroke="black" stroke-width="2" fill="none" />
<polyline points="340.5,182.5,348.5,181.5,356.0,180.5,363.5,180.0,371.5,179.5,379.5,179.0,387.5,178.5,395.5,179.0,403.5,179.0,411.5,178.5,420.0,178.0,427.5,178.0,435.5,177.5,444.0,176.5,452.5,176.0,461.0,174.5,469.0,173.5,477.0,172.0,484.5,171.0,492.5,170.0,501.0,169.5,508.5,169.0,516.5,168.5" stroke="black" stroke-width="2" fill="none" />
<polyline points="397.0,124.5,388.5,131.5,380.5,138.5,372.0,146.0,364.0,153.5,356.0,160.5,348.0,168.5,339.5,176.5" stroke="black" stroke-width="2" fill="none" />
<polyline points="331.5,169.0,339.0,161.0,347.0,153.0,354.5,145.0,362.0,137.5,370.5,129.5,379.0,121.5,387.5,114.5" stroke="black" stroke-width="2" fill="none" />
<polyline points="386.0,107.5,378.5,115.5,370.5,123.5,362.5,131.0,354.0,138.5,346.5,145.5,338.5,153.5,330.5,160.5,322.5,167.5" stroke="black" stroke-width="2" fill="none" />
<polyline points="323.0,161.0,331.0,161.0,338.5,160.5,346.0,160.0,353.5,159.5,361.0,159.5,369.0,159.5,377.5,159.0,385.5,158.5,393.5,158.0,402.0,158.0" stroke="black" stroke-width="2" fill="none" />
<polyline points="397.0,126.5,389.0,127.0,381.0,128.0,372.5,128.5" stroke="black" stroke-width="2" fill="none" />
<polyline points="363.0,115.0,355.0,123.0,347.0,130.0,339.0,137.5,331.0,144.5,323.0,152.0,315.0,159.5" stroke="black" stroke-width="2" fill="none" />
<polyline points="318.0,159.5,320.0,167.5,329.0,175.5,329.0,179.5,336.5,183.0,344.5,183.0,352.5,186.0,358.5,193.5,367.0,206.0" stroke="black" stroke-width="2" fill="none" />
<polyline points="351.5,190.5,343.5,185.5,335.0,185.0,327.0,185.0" stroke="black" stroke-width="2" fill="none" />
<polyline points="313.5,173.0,305.5,181.0" stroke="black" stroke-width="2" fill="none" />
<polyline points="306.0,183.5,313.5,183.0" stroke="black" stroke-width="2" fill="none" />
<polyline points="307.0,171.5,299.0,179.0" stroke="black" stroke-width="2" fill="none" />
<polyline points="292.0,173.5,300.0,173.5,307.5,173.0,314.5,172.5,322.0,171.5,330.0,170.5,338.0,170.0,346.0,169.0,354.5,168.5,362.5,167.5,371.0,166.5,379.0,166.5,386.5,166.5,394.0,166.5,402.0,166.0,410.5,165.5,418.5,165.5,427.0,165.5,435.5,165.0,443.5,164.5,452.0,164.0,460.0,163.5,468.0,163.0,475.5,162.5,483.0,162.0,491.0,161.5,499.0,161.0,507.5,160.5,515.5,159.5" stroke="black" stroke-width="2" fill="none" />
<polyline points="434.5,60.0,426.5,67.0" stroke="black" stroke-width="2" fill="none" />
<polyline points="418.0,51.0,426.5,43.5" stroke="black" stroke-width="2" fill="none" />
<polyline points="426.5,35.5,418.5,43.5" stroke="black" stroke-width="2" fill="none" />
<polyline points="414.0,42.0,422.0,35.0" stroke="black" stroke-width="2" fill="none" />
<polyline points="419.5,26.5,411.5,34.5" stroke="black" stroke-width="2" fill="none" />
<polyline points="394.5,41.5,386.5,49.0,378.5,56.5,370.5,64.0" stroke="black" stroke-width="2" fill="none" />
<polyline points="379.5,65.5,387.5,57.5,395.0,50.0" stroke="black" stroke-width="2" fill="none" />
<polyline points="395.5,61.0,387.0,69.0" stroke="black" stroke-width="2" fill="none" />
<polyline points="388.0,74.5,396.5,66.5" stroke="black" stroke-width="2" fill="none" />
<polyline points="398.5,74.0,390.0,82.0" stroke="black" stroke-width="2" fill="none" />
<polyline points="380.5,107.5,372.5,115.0,364.5,123.0,356.5,130.5,348.0,138.5,340.0,146.0,332.0,153.5,323.5,160.5" stroke="black" stroke-width="2" fill="none" />
<polyline points="324.0,154.0,332.0,153.5,339.5,153.0,347.0,152.0,354.5,152.0,362.0,151.5,370.0,151.5,378.0,150.5,386.0,150.0,394.0,150.0,401.5,149.0" stroke="black" stroke-width="2" fill="none" />
<polyline points="404.0,135.0,395.5,135.0,387.5,135.0,380.0,135.0,372.5,135.0,364.5,135.5,356.5,135.5" stroke="black" stroke-width="2" fill="none" />
<polyline points="356.0,116.5,348.0,124.5,340.0,132.0,331.5,139.5,324.0,147.0,316.0,154.0" stroke="black" stroke-width="2" fill="none" />
<polyline points="315.5,146.0,323.5,145.5,332.0,145.0,340.0,144.5,347.5,144.5,355.5,144.5,363.5,144.0,372.0,143.0,380.5,142.5,388.0,141.0,396.5,140.5,404.5,140.0" stroke="black" stroke-width="2" fill="none" />
<polyline points="347.5,114.5,339.0,121.5,331.0,129.0,323.0,136.5,316.0,143.5" stroke="black" stroke-width="2" fill="none" />
<polyline points="314.0,137.5,322.0,137.0,330.0,137.0,338.5,137.0,347.0,136.0" stroke="black" stroke-width="2" fill="none" />
<polyline points="336.5,115.0,328.5,123.0,320.5,130.0,313.0,137.5,305.5,145.0" stroke="black" stroke-width="2" fill="none" />
<polyline points="306.5,136.0,315.0,128.5,324.0,121.0,332.0,114.0" stroke="black" stroke-width="2" fill="none" />
<polyline points="331.0,107.0,323.0,114.0,315.5,121.0,307.5,128.0,299.5,135.0" stroke="black" stroke-width="2" fill="none" />
<polyline points="300.5,130.0,308.0,122.0,315.5,114.0,323.5,106.0" stroke="black" stroke-width="2" fill="none" />
<polyline points="324.0,100.0,316.5,107.5,308.5,115.0,300.5,122.0,292.5,128.5" stroke="black" stroke-width="2" fill="none" />
<polyline points="291.5,122.0,299.5,115.0" stroke="black" stroke-width="2" fill="none" />
<polyline points="292.0,114.5,284.5,121.5" stroke="black" stroke-width="2" fill="none" />
<polyline points="281.0,116.0,273.0,123.5" stroke="black" stroke-width="2" fill="none" />
<polyline points="273.5,125.0,281.5,124.5,289.5,124.0,298.0,123.5,306.0,123.5,314.5,123.0,323.0,122.5,331.5,122.0,340.0,121.5,347.5,121.5,355.5,121.0,363.5,120.5,372.0,119.5,380.0,119.0,387.5,119.0,395.5,118.5,403.5,118.0,412.5,117.0,420.5,116.0,428.5,116.0,436.5,115.5,445.0,115.0,452.5,114.0,460.0,113.5,468.0,112.5,475.5,112.0,484.0,111.5,491.5,111.0,499.0,110.5,507.0,110.5,515.0,110.0" stroke="black" stroke-width="2" fill="none" />
<polyline points="445.0,27.0,453.0,19.0" stroke="black" stroke-width="2" fill="none" />
<polyline points="458.5,3.5,466.5,12.5,474.0,23.0,482.0,41.5,490.5,60.5" stroke="black" stroke-width="2" fill="none" />
<polyline points="371.5,51.5,363.5,59.0" stroke="black" stroke-width="2" fill="none" />
<polyline points="355.5,52.0,347.5,59.5,339.5,67.0" stroke="black" stroke-width="2" fill="none" />
<polyline points="332.0,50.0,340.0,42.0,347.5,33.5,355.0,25.0,363.0,17.0,370.5,9.5" stroke="black" stroke-width="2" fill="none" />
<polyline points="370.5,10.5,365.5,18.5,367.5,14.5" stroke="black" stroke-width="2" fill="none" />
<polyline points="363.5,5.5,356.0,12.5,348.0,20.0,340.0,27.5,332.0,35.0,324.5,42.0" stroke="black" stroke-width="2" fill="none" />
<polyline points="332.0,40.0,339.5,32.0,347.5,24.0,355.5,16.0,363.5,9.0,371.0,1.5" stroke="black" stroke-width="2" fill="none" />
<polyline points="355.0,3.0,347.0,10.5,339.0,19.0,331.0,26.5,322.5,33.5" stroke="black" stroke-width="2" fill="none" />
<polyline points="339.5,57.5,347.0,50.0,354.5,42.0,362.0,35.0" stroke="black" stroke-width="2" fill="none" />
<polyline points="363.5,26.5,356.0,34.5,348.0,42.5,339.5,50.0,331.5,57.5" stroke="black" stroke-width="2" fill="none" />
<polyline points="314.5,33.0,322.0,25.0,330.0,17.0,338.0,9.5,346.0,2.0" stroke="black" stroke-width="2" fill="none" />
<polyline points="339.0,2.0,331.0,10.0,323.0,17.0,315.0,24.0" stroke="black" stroke-width="2" fill="none" />
<polyline points="315.0,17.5,323.5,10.0,332.0,2.5" stroke="black" stroke-width="2" fill="none" />
<polyline points="322.5,4.0,315.0,12.0,307.0,19.0" stroke="black" stroke-width="2" fill="none" />
<polyline points="306.5,11.0,314.5,3.5" stroke="black" stroke-width="2" fill="none" />
<polyline points="266.5,45.0,274.5,45.0,282.5,44.0,291.0,43.5,299.0,43.0,307.0,42.5,314.5,42.5,323.0,42.0,331.0,41.5,339.5,40.5,347.5,39.5,355.5,39.5,363.0,39.5,370.5,39.0,379.0,38.0,386.5,37.5,394.5,37.0,402.0,37.5,410.0,37.0,418.5,36.5,426.5,35.5,434.5,35.5,442.5,35.0,450.5,34.5,459.0,34.0,467.0,33.0,475.5,32.0" stroke="black" stroke-width="2" fill="none" />
<polyline points="315.0,93.0,307.0,100.5" stroke="black" stroke-width="2" fill="none" />
<polyline points="313.5,101.0,305.5,108.5" stroke="black" stroke-width="2" fill="none" />
<polyline points="315.0,119.5,323.5,119.0" stroke="black" stroke-width="2" fill="none" />
<polyline points="315.5,128.5,323.5,128.0,331.5,127.5,339.5,127.5" stroke="black" stroke-width="2" fill="none" />
<polyline points="293.0,149.0,300.5,148.5,309.0,147.5,317.0,146.5,324.5,146.0,332.0,145.0,339.5,144.5,347.5,144.5,355.0,144.0,362.5,143.5,371.0,144.0,379.0,143.0,387.5,142.5,395.5,143.0,404.0,143.0,412.0,143.0,421.0,142.5,429.0,142.0,437.5,141.5,445.5,141.5,453.5,141.5,461.5,140.5,469.5,139.0,477.0,138.5,485.0,137.5,492.5,137.0,500.0,136.0,507.5,135.5,515.5,135.0" stroke="black" stroke-width="2" fill="none" />
<polyline points="513.5,128.0,505.5,128.5,498.0,129.0,490.0,129.5,482.0,129.5,474.0,129.5,466.5,129.0,458.5,129.0,450.5,128.5,442.5,129.0,434.5,130.0,427.0,130.5,419.0,131.5,411.0,132.0,403.0,132.5,395.5,133.0,387.0,133.5,379.0,133.5,371.5,134.0,363.5,135.0,355.5,135.0,348.0,136.5,339.5,137.5,331.0,138.5,323.0,139.5,315.0,139.5,307.0,140.0,299.0,140.5,291.5,141.0,283.0,141.5" stroke="black" stroke-width="2" fill="none" />
<polyline points="282.5,132.5,290.5,132.0,298.5,131.0,306.5,130.5,315.0,130.0,323.0,129.5,331.5,129.0,339.5,129.0,347.5,128.5,355.5,127.5,363.0,127.0,371.0,126.5,379.0,126.5,387.5,126.5,395.5,125.5,403.5,125.5,412.0,124.5,420.0,124.5,428.0,124.0,436.0,123.5,443.5,123.5,451.5,123.0,460.0,123.0,467.5,122.5,475.5,121.5,483.0,121.0,491.0,121.0,499.0,120.5,507.0,120.0,515.0,119.5" stroke="black" stroke-width="2" fill="none" />
<polyline points="283.0,163.5,275.0,171.0" stroke="black" stroke-width="2" fill="none" />
<polyline points="265.0,171.5,273.0,163.5,281.0,156.0" stroke="black" stroke-width="2" fill="none" />
<polyline points="276.5,156.0,292.0,163.5,300.0,171.0,298.0,177.5" stroke="black" stroke-width="2" fill="none" />
<polyline points="275.5,160.0,268.0,160.5" stroke="black" stroke-width="2" fill="none" />
<polyline points="265.0,161.5,272.5,154.0" stroke="black" stroke-width="2" fill="none" />
<polyline points="267.5,154.5,259.0,162.0" stroke="black" stroke-width="2" fill="none" />
<polyline points="261.5,161.0,270.5,169.0" stroke="black" stroke-width="2" fill="none" />
<polyline points="276.0,172.5,269.0,173.5,262.0,174.0,254.5,174.5" stroke="black" stroke-width="2" fill="none" />
<polyline points="261.0,169.0,269.0,171.5,277.0,171.0,284.5,168.0,292.5,169.0" stroke="black" stroke-width="2" fill="none" />
<polyline points="258.0,154.0,249.5,161.5" stroke="black" stroke-width="2" fill="none" />
<polyline points="248.0,161.5,256.0,158.0,264.5,162.0" stroke="black" stroke-width="2" fill="none" />
<polyline points="275.5,148.5,267.5,149.0,260.0,149.5,252.0,149.5,243.5,150.0" stroke="black" stroke-width="2" fill="none" />
<polyline points="249.0,153.0,256.5,151.5,264.5,150.5,272.5,152.0,280.5,156.0,288.5,159.5,296.5,165.0" stroke="black" stroke-width="2" fill="none" />
<polyline points="269.5,140.5,261.5,141.0" stroke="black" stroke-width="2" fill="none" />
<polyline points="266.0,121.5,274.0,114.0" stroke="black" stroke-width="2" fill="none" />
<polyline points="267.5,113.0,275.5,106.0" stroke="black" stroke-width="2" fill="none" />
<polyline points="266.0,105.0,258.5,113.0" stroke="black" stroke-width="2" fill="none" />
<polyline points="259.0,106.0,251.0,113.5" stroke="black" stroke-width="2" fill="none" />
<polyline points="246.5,117.0,254.5,119.0,262.5,119.0,270.5,121.0,273.5,124.5,277.5,128.5" stroke="black" stroke-width="2" fill="none" />
<polyline points="257.5,99.5,249.5,106.5,242.0,114.5" stroke="black" stroke-width="2" fill="none" />
<polyline points="236.5,120.0,244.5,119.5,252.5,119.0,260.5,118.0,268.0,117.0,276.0,116.0,283.5,115.5,291.5,114.5,299.5,113.5,307.5,112.5,315.5,111.5,323.5,111.0,331.5,110.5,339.5,110.5,347.5,110.0,355.5,110.0,364.0,108.5,372.0,108.0,380.0,107.5,388.0,107.0,396.5,107.0,404.0,106.0,412.0,106.0,420.0,105.5,428.0,104.5,436.0,104.5,444.0,104.5,452.0,104.0,460.5,103.0,469.0,102.5,477.0,102.5,485.0,101.5,492.5,100.5,501.0,100.0,509.0,100.0,517.0,99.5" stroke="black" stroke-width="2" fill="none" />
<polyline points="450.5,58.0,442.5,58.0,434.5,58.0,427.0,58.5,419.0,59.5,411.0,60.5,403.5,61.0,396.0,62.0,388.0,63.0,379.5,64.0,371.5,64.0,363.0,64.0,355.0,64.5,346.5,65.0,339.0,66.0,331.5,66.5,324.0,67.5,316.5,68.0,308.5,68.5,301.0,69.5,293.0,70.0,284.5,70.0,276.5,70.5" stroke="black" stroke-width="2" fill="none" />
<polyline points="267.0,61.5,275.0,61.5,283.0,61.0,291.5,60.0,299.5,59.0,308.0,58.0,316.5,58.0,324.5,57.5,332.5,57.0,340.5,57.0,348.5,57.0,356.0,56.0,364.0,55.5,371.5,55.5,379.0,55.0,386.5,55.5,394.0,54.5,401.5,54.5,409.5,54.0,417.5,53.0,425.5,53.0,433.5,52.0,442.0,51.5,450.5,50.5,459.5,49.5,468.5,49.0,476.5,48.0,484.5,47.0,493.0,46.5,501.5,46.5,509.5,46.0,517.5,45.5" stroke="black" stroke-width="2" fill="none" />
<polyline points="474.5,40.5,466.5,41.0,458.5,42.0,450.0,42.5,442.5,43.5,434.5,44.0,426.5,45.0,418.0,45.0,410.0,45.0,402.0,45.0,394.5,45.5,387.0,46.0,379.0,46.5,371.5,47.0,363.5,47.5,356.0,48.0,347.5,48.5,340.0,49.0,332.0,49.5,324.0,50.0,315.5,50.5,307.5,51.0,299.0,51.0,290.5,51.5,282.0,52.0,274.0,53.0,266.0,53.5" stroke="black" stroke-width="2" fill="none" />
<polyline points="251.5,37.5,259.5,37.0,267.5,36.5,275.5,36.5,283.5,36.0,291.5,35.5,299.5,35.0,307.0,34.0,314.5,33.0,322.5,32.0,331.0,31.5,339.0,31.0,347.0,31.0,355.5,31.0,364.0,30.5,372.5,30.0,380.0,29.0,387.5,28.0,395.5,27.5,403.0,27.0,411.0,27.0,418.5,26.5,427.0,26.0,435.5,25.5,444.0,24.5,452.5,24.0,460.0,23.0,468.0,22.5,476.0,22.0,484.0,22.0,492.5,21.5,500.5,20.5,508.0,19.5,516.0,19.0" stroke="black" stroke-width="2" fill="none" />
<polyline points="515.0,12.0,507.0,12.5,499.0,13.0,491.0,14.0,483.5,14.0,475.5,14.0,468.0,14.0,460.5,14.0,452.5,14.5,445.0,15.5,437.0,16.0,429.5,17.0,421.5,17.0,413.5,17.5,405.5,18.0,397.0,18.5,389.0,19.0,381.0,19.5,373.0,20.5,365.0,21.5,357.0,22.5,349.0,24.0,340.0,25.0,332.0,26.0,324.0,26.0,315.5,26.5,307.5,26.5,299.0,27.0,290.5,27.5,282.0,28.0,274.0,28.5,266.0,29.0,257.5,29.5,250.0,30.0" stroke="black" stroke-width="2" fill="none" />
<polyline points="250.5,22.0,258.0,21.0,266.0,20.0,274.5,19.0,282.5,18.5,290.5,18.0,299.0,17.5,307.5,16.5,315.5,16.5,324.0,16.0,332.0,15.5,340.0,15.0,348.0,15.0,356.0,14.5,363.5,13.5,371.5,13.5,379.5,13.0,387.5,13.0,396.0,12.5,404.0,11.5,412.0,11.5,420.0,10.5,428.5,10.0,436.5,9.5,444.5,9.0,452.0,8.5,460.0,8.0,468.5,7.5,476.5,7.0,484.0,6.0,492.0,5.5,500.0,5.5,508.5,5.0,516.5,4.5" stroke="black" stroke-width="2" fill="none" />
<polyline points="516.0,148.0,508.0,148.0,500.5,148.5,492.5,148.5,484.5,149.0,476.5,149.0,468.5,150.0,460.5,151.0,452.0,152.0,443.5,153.0,435.0,153.5,427.0,154.5,418.0,155.5,409.5,156.5,401.5,157.0,393.5,157.5,386.0,157.5,378.0,158.0,370.0,158.5,362.0,159.0,354.0,159.0,346.5,159.0,339.0,159.0,330.5,160.0,322.0,160.5,314.0,161.0,306.5,161.5,298.5,161.5,290.5,162.5,282.0,163.0,274.0,163.5,266.0,164.0,258.5,164.0,250.5,164.5,242.5,165.0" stroke="black" stroke-width="2" fill="none" />
<polyline points="242.5,156.5,251.0,156.5,259.0,156.5,267.5,156.0,275.0,155.0,283.0,154.5,291.0,154.0,299.5,154.0,307.5,153.5,315.0,153.0,323.0,152.0,331.0,152.0,338.5,151.5,346.0,151.0,353.5,150.5,361.0,150.5,369.0,150.5,377.5,150.0,385.5,149.5,393.5,149.0,402.0,149.0,409.5,148.0,418.0,147.0,426.0,146.5,434.0,145.5,442.0,145.0,450.5,144.0,459.5,143.0,468.0,142.0,476.0,141.0,484.0,140.0,492.0,140.0,500.5,140.0,508.5,140.0,516.0,140.5" stroke="black" stroke-width="2" fill="none" />
<polyline points="514.5,-1.0,507.0,-0.5,499.0,0.0,491.0,0.5,483.0,1.0,475.0,1.5,467.0,2.0,459.0,2.5,451.0,2.0,443.0,2.0,435.0,2.5,427.0,3.0,419.0,3.5,411.0,4.0,403.0,4.5,395.0,5.0,386.5,6.0,378.5,6.0,370.0,5.5,362.5,5.5,354.5,5.5,347.0,6.0,339.5,6.5,332.5,7.0,324.5,7.5,316.5,8.5,309.0,9.0,301.0,10.0,292.5,10.5,284.5,11.0,276.5,12.5,269.0,13.5,260.5,14.5,252.0,15.5,243.5,16.5" stroke="black" stroke-width="2" fill="none" />
<polyline points="243.5,7.5,251.5,7.0,259.5,6.0,267.0,5.0,275.5,4.0,283.5,3.5,291.5,2.5,300.0,2.5,308.0,2.0,315.5,1.5,323.5,1.0,331.5,0.5,340.0,0.0,348.0,-0.5,355.5,-0.5,363.5,-0.5,371.5,-1.0,380.0,-2.0,388.5,-2.5,396.0,-4.0,404.5,-4.5,412.5,-5.0,420.0,-5.5,428.0,-5.5,435.5,-6.0,443.5,-6.0,451.5,-6.5,459.5,-7.0,467.0,-7.0,474.5,-7.5,482.5,-8.0,490.5,-8.0,499.0,-8.5,507.5,-9.5,515.5,-10.5" stroke="black" stroke-width="2" fill="none" />
<polyline points="515.0,76.0,507.0,76.5,498.5,77.0,490.0,77.0,482.0,78.0,474.5,79.0,466.5,79.5,458.0,80.5,450.0,80.5,442.0,80.5,434.5,80.5,427.0,80.5,419.0,80.5,411.0,80.5,403.0,80.5,394.5,80.0,387.0,80.5,378.5,81.5,370.5,82.5,362.5,83.5,354.5,84.5,346.0,86.0,337.5,87.0,329.5,88.0,321.0,89.0,313.5,90.0,306.0,90.5,297.5,91.0,289.5,91.5,282.5,92.0,275.5,92.5,268.0,93.0,260.5,93.5,252.0,93.5,244.0,94.5,236.0,95.0,228.0,95.5" stroke="black" stroke-width="2" fill="none" />
<polyline points="227.5,94.5,235.5,92.5,243.5,93.0,252.0,96.0,260.0,98.5,268.0,105.5" stroke="black" stroke-width="2" fill="none" />
<polyline points="268.5,105.0,260.5,97.0" stroke="black" stroke-width="2" fill="none" />
<polyline points="251.5,98.0,243.0,105.5" stroke="black" stroke-width="2" fill="none" />
<polyline points="242.5,98.5,234.5,105.5" stroke="black" stroke-width="2" fill="none" />
<polyline points="219.5,92.5,211.0,93.0" stroke="black" stroke-width="2" fill="none" />
<polyline points="204.5,101.0,212.5,100.0,220.5,99.5,228.5,99.0,236.0,98.5,243.5,98.5,252.0,98.0,260.0,98.0,267.5,98.0,275.5,97.0,283.0,97.0,291.5,96.5,299.5,96.0,308.0,95.5,316.0,95.5,324.5,95.5,332.5,95.0,340.0,94.5,348.0,93.5,355.5,93.0,363.5,92.5,371.5,92.0,379.5,90.5,388.0,90.0,396.0,89.5,403.5,88.5,411.5,88.0,419.5,87.0,427.0,87.0,435.0,86.5,443.0,86.5,451.0,86.0,459.0,85.5,467.5,85.0,475.5,84.0,484.0,83.5,491.5,83.0,499.5,82.5,507.5,82.0,516.0,81.5" stroke="black" stroke-width="2" fill="none" />
<polyline points="515.0,89.0,507.5,89.5,499.5,89.5,491.0,89.5,483.5,90.0,475.5,91.0,468.0,92.0,460.0,92.5,451.5,93.0,443.5,93.5,436.0,94.0,428.5,94.5,420.5,95.0,412.5,96.0,404.5,97.0,396.5,97.5,388.5,98.5,380.0,99.0,371.5,100.0,363.5,100.5,355.5,101.0,348.0,101.5,340.0,101.5,332.0,101.5,324.0,101.5,316.0,101.5,308.0,102.0,299.5,102.0,290.5,102.0,282.5,102.5,274.5,103.0,266.5,104.0,258.5,104.5,250.5,105.0,242.0,105.5,234.5,106.5,226.5,107.5,218.5,108.0,211.0,108.5,203.0,109.0" stroke="black" stroke-width="2" fill="none" />
<polyline points="170.5,83.0,162.5,90.0" stroke="black" stroke-width="2" fill="none" />
<polyline points="164.5,81.5,156.5,89.0,149.0,96.5" stroke="black" stroke-width="2" fill="none" />
<polyline points="140.0,97.5,147.5,90.0,155.5,82.5,163.0,75.0" stroke="black" stroke-width="2" fill="none" />
<polyline points="156.5,75.0,148.0,82.5,139.5,89.5,131.0,96.5,122.5,104.5,114.0,112.0,106.0,119.5,99.0,127.0,92.0,135.0,84.5,142.5,77.0,150.0,68.5,157.5,60.0,164.0,51.5,171.0,42.5,178.5,34.5,186.0,26.5,193.0,18.5,201.0,10.5,209.0,2.5,217.0" stroke="black" stroke-width="2" fill="none" />
<polyline points="1.0,216.0,9.0,216.0,17.0,215.5,25.0,215.0,33.0,214.5,41.0,214.0,49.0,213.5,57.5,213.0,66.0,212.5,75.0,212.5,83.0,212.0" stroke="black" stroke-width="2" fill="none" />
<polyline points="85.0,212.5,77.0,219.0,69.0,226.5,60.0,234.0,51.5,242.0,43.0,249.0" stroke="black" stroke-width="2" fill="none" />
<polyline points="20.0,246.5,27.5,239.0,35.5,231.5,43.0,224.0,51.0,216.5,59.0,209.0,67.5,202.0,75.5,194.5,83.5,186.5,92.5,179.0" stroke="black" stroke-width="2" fill="none" />
<polyline points="90.0,191.5,82.0,192.0,74.0,192.0,65.5,192.5,57.5,193.0,49.0,194.0,40.5,194.5,33.0,195.5,25.0,196.5,17.0,197.0,8.5,197.5,0.5,197.5" stroke="black" stroke-width="2" fill="none" />
<polyline points="3.0,195.5,11.0,188.5,19.5,181.0,28.5,174.0,37.0,166.5,45.5,159.5,53.5,152.0,61.5,144.5,69.0,137.0,77.0,129.0,84.0,121.0,91.5,113.0,98.5,105.0,106.0,97.5,113.5,89.5,121.0,81.5,129.0,74.0" stroke="black" stroke-width="2" fill="none" />
<polyline points="138.0,75.0,130.0,82.0,122.5,89.5,115.0,97.0,108.0,105.0,100.0,113.0,91.5,120.5,83.5,128.0,75.0,135.0,67.0,142.5,59.0,150.0,51.5,157.5,43.0,165.5,35.0,173.0,27.0,180.5,18.5,188.0,10.5,196.0,2.0,203.5" stroke="black" stroke-width="2" fill="none" />
<polyline points="3.0,203.0,10.5,202.5,18.5,202.0,26.0,202.0,34.0,202.5,42.0,202.5,50.5,202.0,59.5,202.0,68.0,202.0,76.0,201.5,84.0,201.5,92.0,201.0" stroke="black" stroke-width="2" fill="none" />
<polyline points="85.5,203.5,77.5,211.0,69.5,219.0,62.0,226.5,53.5,233.5,45.5,241.0,37.5,248.5" stroke="black" stroke-width="2" fill="none" />
<polyline points="4.5,250.5,12.5,244.0,21.0,236.5,28.5,229.0,36.5,222.0,44.0,215.0,52.5,207.5,60.0,200.0,67.5,192.5,75.5,185.5,84.0,178.5,91.5,171.0,99.0,163.0,106.5,154.5,114.0,146.0,121.0,138.5,129.0,130.5" stroke="black" stroke-width="2" fill="none" />
<polyline points="123.5,136.0,114.0,144.0,112.0,146.0,120.0,139.0,128.0,135.5,136.0,134.0,144.0,135.5,152.0,136.0,159.5,136.0" stroke="black" stroke-width="2" fill="none" />
<polyline points="158.0,124.5,166.0,124.0,173.5,123.5,180.5,122.5,187.5,122.0" stroke="black" stroke-width="2" fill="none" />
<polyline points="178.5,149.0,170.5,149.5,162.5,150.0" stroke="black" stroke-width="2" fill="none" />
<polyline points="146.5,149.0,139.0,156.0" stroke="black" stroke-width="2" fill="none" />
<polyline points="138.0,164.5,146.5,164.5,155.0,164.5,163.5,164.0" stroke="black" stroke-width="2" fill="none" />
<polyline points="149.5,147.0,141.0,147.0" stroke="black" stroke-width="2" fill="none" />
<polyline points="137.0,147.5,145.0,140.0" stroke="black" stroke-width="2" fill="none" />
<polyline points="144.5,138.0,155.5,141.0,150.5,149.0,156.5,151.0,160.0,144.0" stroke="black" stroke-width="2" fill="none" />
<polyline points="140.5,140.0,132.0,148.0" stroke="black" stroke-width="2" fill="none" />
<polyline points="131.0,143.5,122.5,144.0" stroke="black" stroke-width="2" fill="none" />
<polyline points="117.0,139.5,108.5,146.5,100.5,154.5,92.0,162.5,84.0,170.0,76.0,177.5,68.0,184.5,60.0,191.5,51.5,198.5,43.5,205.5,35.5,212.5,27.0,220.5,19.0,228.5,11.0,236.5,3.5,244.0" stroke="black" stroke-width="2" fill="none" />
<polyline points="3.5,245.5,11.5,245.5,19.5,245.5,27.5,245.5,36.0,244.5,44.5,244.0,53.0,244.0,61.0,243.5,69.0,243.0,77.5,242.0,85.5,241.5" stroke="black" stroke-width="2" fill="none" />
<polyline points="77.0,235.5,69.0,243.0" stroke="black" stroke-width="2" fill="none" />
<polyline points="77.0,238.0,69.0,238.5,60.0,239.0,51.5,239.5,43.0,239.5,34.0,240.5,26.0,241.0,18.0,241.0,10.0,241.5,2.0,242.5" stroke="black" stroke-width="2" fill="none" />
<polyline points="2.5,237.0,10.0,237.0,18.0,237.0,26.5,236.5,35.5,236.0,44.0,235.5,52.0,234.5,60.5,233.5,68.5,233.0,76.5,232.5,85.0,232.0" stroke="black" stroke-width="2" fill="none" />
<polyline points="83.0,222.5,75.0,230.0,67.0,236.5,59.0,243.5,51.5,250.0" stroke="black" stroke-width="2" fill="none" />
<polyline points="28.5,247.5,36.5,239.5,45.0,232.0,53.0,225.0,61.0,218.0,69.0,211.0,77.0,203.5,84.5,196.0" stroke="black" stroke-width="2" fill="none" />
<polyline points="83.0,197.0,75.0,197.0,67.5,197.0,59.5,197.0,51.5,197.0,43.0,197.5,35.0,198.0,26.5,199.0,18.5,200.0,11.0,200.5,3.0,201.0" stroke="black" stroke-width="2" fill="none" />
<polyline points="3.0,194.5,11.0,194.0,19.5,193.5,27.5,193.0,35.0,192.5,43.0,191.0,51.5,190.0,59.5,189.0,67.0,188.5,75.0,187.5,82.5,187.0" stroke="black" stroke-width="2" fill="none" />
<polyline points="83.5,194.0,82.5,202.0,82.5,210.0,81.5,218.0,80.0,226.0,80.0,234.0,80.0,242.0" stroke="black" stroke-width="2" fill="none" />
<polyline points="82.5,253.5,75.0,254.0" stroke="black" stroke-width="2" fill="none" />
<polyline points="79.0,260.0,77.0,268.0,77.5,275.5,78.5,284.0,78.0,292.0,78.0,300.0,80.0,308.0" stroke="black" stroke-width="2" fill="none" />
<polyline points="77.5,310.5,85.0,309.5,92.5,309.0" stroke="black" stroke-width="2" fill="none" />
<polyline points="92.0,317.0,84.0,317.5,76.0,317.5" stroke="black" stroke-width="2" fill="none" />
<polyline points="75.5,327.0,83.5,326.5,91.5,326.5" stroke="black" stroke-width="2" fill="none" />
<polyline points="91.0,333.5,83.0,334.0" stroke="black" stroke-width="2" fill="none" />
<polyline points="83.5,339.5,92.0,339.0,100.0,338.5" stroke="black" stroke-width="2" fill="none" />
<polyline points="91.5,340.5,91.5,349.0,95.0,353.5" stroke="black" stroke-width="2" fill="none" />
<polyline points="93.0,356.5,101.0,356.5" stroke="black" stroke-width="2" fill="none" />
<polyline points="99.0,361.5,91.0,369.0" stroke="black" stroke-width="2" fill="none" />
<polyline points="92.5,372.0,100.5,371.5,108.0,371.5" stroke="black" stroke-width="2" fill="none" />
<polyline points="101.0,369.5,92.5,377.5" stroke="black" stroke-width="2" fill="none" />
<polyline points="91.5,380.5,100.0,380.0,108.0,379.5" stroke="black" stroke-width="2" fill="none" />
<polyline points="124.5,383.0,132.0,382.0,140.0,381.5" stroke="black" stroke-width="2" fill="none" />
<polyline points="148.5,370.0,157.0,372.5,165.5,373.5,174.0,373.5,182.0,372.5,187.0,370.5" stroke="black" stroke-width="2" fill="none" />
<polyline points="202.5,365.0,210.5,364.5,218.0,363.5" stroke="black" stroke-width="2" fill="none" />
<polyline points="218.5,358.0,210.5,358.5" stroke="black" stroke-width="2" fill="none" />
<polyline points="211.5,350.5,219.5,350.0,228.0,349.5" stroke="black" stroke-width="2" fill="none" />
<polyline points="229.5,342.0,221.5,342.5,213.5,343.0" stroke="black" stroke-width="2" fill="none" />
<polyline points="212.5,330.5,220.5,322.5" stroke="black" stroke-width="2" fill="none" />
<polyline points="221.0,314.0,212.5,321.5,204.0,328.5" stroke="black" stroke-width="2" fill="none" />
<polyline points="201.5,322.0,210.0,315.0" stroke="black" stroke-width="2" fill="none" />
<polyline points="211.5,320.0,204.0,320.0" stroke="black" stroke-width="2" fill="none" />
<polyline points="203.0,320.0,213.0,328.0,216.5,336.5" stroke="black" stroke-width="2" fill="none" />
<polyline points="193.5,321.5,201.5,314.0,209.5,306.5" stroke="black" stroke-width="2" fill="none" />
<polyline points="202.0,308.5,194.0,315.5,186.5,322.5" stroke="black" stroke-width="2" fill="none" />
<polyline points="186.0,315.5,194.0,308.5,202.5,301.0" stroke="black" stroke-width="2" fill="none" />
<polyline points="203.0,302.0,211.0,307.0,217.5,317.0,224.5,332.5" stroke="black" stroke-width="2" fill="none" />
<polyline points="198.0,298.0,189.5,306.0,181.0,314.0" stroke="black" stroke-width="2" fill="none" />
<polyline points="170.5,314.0,178.0,306.0,185.5,298.0" stroke="black" stroke-width="2" fill="none" />
<polyline points="180.5,300.5,172.0,308.0,164.5,315.0" stroke="black" stroke-width="2" fill="none" />
<polyline points="169.5,312.0,178.0,311.5,186.0,311.0,194.5,311.0,202.5,310.5,210.5,310.5" stroke="black" stroke-width="2" fill="none" />
<polyline points="181.5,293.0,173.5,300.5,165.0,307.5,156.5,315.0,147.5,322.0,139.0,329.5,131.0,336.5" stroke="black" stroke-width="2" fill="none" />
<polyline points="133.0,334.0,141.0,333.0,148.5,332.0,156.5,331.5,164.5,331.5,172.5,331.5,180.5,331.0,189.0,330.5,197.0,330.5,205.5,330.5,213.5,330.0,221.5,329.5,229.5,329.0" stroke="black" stroke-width="2" fill="none" />
<polyline points="172.5,292.0,164.5,299.5,156.5,307.0,148.0,314.0,139.5,320.5" stroke="black" stroke-width="2" fill="none" />
<polyline points="139.0,313.5,147.0,305.5,155.0,297.5,163.5,289.5" stroke="black" stroke-width="2" fill="none" />
<polyline points="157.0,291.5,149.0,299.0,140.5,306.0,132.5,313.5" stroke="black" stroke-width="2" fill="none" />
<polyline points="140.5,313.0,148.5,312.5,156.5,312.0,164.5,312.0" stroke="black" stroke-width="2" fill="none" />
<polyline points="153.5,296.0,145.0,296.0,137.0,296.0" stroke="black" stroke-width="2" fill="none" />
<polyline points="132.0,299.5,139.5,292.5,147.5,285.5" stroke="black" stroke-width="2" fill="none" />
<polyline points="150.0,287.5,158.0,290.5,166.0,290.5,174.0,294.0,182.0,295.0,190.0,295.5,198.0,299.0,204.0,305.5,211.5,313.5,216.5,321.5,220.5,330.0,225.5,337.5,227.0,344.5,225.5,352.5,220.5,360.5,224.0,359.0" stroke="black" stroke-width="2" fill="none" />
<polyline points="195.0,303.0,187.0,302.5,179.0,302.5,170.5,302.5,163.0,302.5,155.0,303.0,147.0,303.5,139.0,303.5" stroke="black" stroke-width="2" fill="none" />
<polyline points="131.0,303.0,139.0,296.0,147.5,288.5,155.5,281.0" stroke="black" stroke-width="2" fill="none" />
<polyline points="163.0,268.0,154.0,268.5,145.5,269.0,137.5,269.5" stroke="black" stroke-width="2" fill="none" />
<polyline points="123.5,276.5,131.5,276.0,139.5,276.5,148.0,276.5,156.5,276.5,165.0,276.5,172.5,275.5,179.5,274.5" stroke="black" stroke-width="2" fill="none" />
<polyline points="188.5,228.0,196.5,227.5,204.5,228.0,212.0,228.0" stroke="black" stroke-width="2" fill="none" />
<polyline points="202.5,220.5,194.5,228.0" stroke="black" stroke-width="2" fill="none" />
<polyline points="189.5,225.0,197.5,225.0,205.0,224.5" stroke="black" stroke-width="2" fill="none" />
<polyline points="197.0,218.0,189.0,226.0" stroke="black" stroke-width="2" fill="none" />
<polyline points="187.0,220.0,179.0,227.0" stroke="black" stroke-width="2" fill="none" />
<polyline points="176.5,221.5,186.5,229.5,195.0,234.0,203.0,229.0" stroke="black" stroke-width="2" fill="none" />
<polyline points="205.5,219.5,198.0,219.5,190.0,220.0,182.5,220.5" stroke="black" stroke-width="2" fill="none" />
<polyline points="179.5,218.5,187.0,211.0" stroke="black" stroke-width="2" fill="none" />
<polyline points="179.5,211.5,188.0,211.0,196.0,210.0" stroke="black" stroke-width="2" fill="none" />
<polyline points="194.5,213.5,204.5,222.0,203.0,230.5" stroke="black" stroke-width="2" fill="none" />
<polyline points="185.0,224.5,177.0,221.0" stroke="black" stroke-width="2" fill="none" />
<polyline points="172.0,214.5,179.5,212.5,188.0,212.0,196.0,214.0,204.0,219.0" stroke="black" stroke-width="2" fill="none" />
<polyline points="165.0,219.5,157.0,220.5,149.0,221.0" stroke="black" stroke-width="2" fill="none" />
<polyline points="154.5,211.0,146.5,211.0,138.5,211.5" stroke="black" stroke-width="2" fill="none" />
<polyline points="141.0,210.5,149.0,218.5" stroke="black" stroke-width="2" fill="none" />
<polyline points="152.5,212.0,144.0,204.0" stroke="black" stroke-width="2" fill="none" />
<polyline points="145.0,203.5,150.0,212.0,156.5,220.0" stroke="black" stroke-width="2" fill="none" />
<polyline points="164.0,229.0,155.0,229.0,146.5,229.0,138.5,229.0" stroke="black" stroke-width="2" fill="none" />
<polyline points="156.0,222.5,151.5,224.5,147.0,216.5,139.0,208.0,139.5,208.0" stroke="black" stroke-width="2" fill="none" />
<polyline points="138.0,204.0,146.0,203.5,154.5,203.0" stroke="black" stroke-width="2" fill="none" />
<polyline points="140.5,170.0,133.0,170.5" stroke="black" stroke-width="2" fill="none" />
<polyline points="122.5,155.5,114.5,163.0" stroke="black" stroke-width="2" fill="none" />
<polyline points="113.5,154.5,121.0,147.5,129.0,139.5,137.0,132.0" stroke="black" stroke-width="2" fill="none" />
<polyline points="118.0,133.5,110.0,141.0,101.5,148.0,93.5,155.0,85.5,162.0,77.5,168.5,69.5,175.5,61.0,183.0,53.0,190.5,44.5,197.5,36.5,204.5,28.5,212.0,21.0,219.5,12.5,227.0,4.5,234.5" stroke="black" stroke-width="2" fill="none" />
<polyline points="4.0,233.5,12.0,232.5,19.5,232.5,27.5,232.0,35.0,232.0,43.0,231.5,51.0,230.5,59.0,230.0,67.0,229.5,75.0,228.5" stroke="black" stroke-width="2" fill="none" />
<polyline points="70.0,233.0,75.0,241.0,71.5,253.0,71.0,261.0,72.0,269.0,72.0,276.5,70.5,285.0,71.5,292.5,72.5,300.5,73.5,308.5,73.0,316.0,75.5,324.5,76.5,332.5,78.5,340.5,83.5,348.0,85.0,356.0,81.5,364.0,82.0,371.5" stroke="black" stroke-width="2" fill="none" />
<polyline points="84.0,367.0,92.0,366.5,99.5,366.0" stroke="black" stroke-width="2" fill="none" />
<polyline points="87.5,366.0,91.5,374.5,93.5,382.0,94.5,390.0,97.5,397.5,99.0,405.5,100.0,413.0,101.0,421.5,102.5,429.5,105.5,437.0,106.0,445.0,109.5,453.0,112.5,461.0,116.5,469.0,124.5,477.5,140.0,485.5" stroke="black" stroke-width="2" fill="none" />
<polyline points="140.0,486.0,148.0,485.0,156.0,484.0,164.5,483.0,172.5,482.5,180.5,482.5,188.0,482.0,196.5,482.0,204.5,481.5,212.0,481.0,219.5,481.0,228.0,480.5" stroke="black" stroke-width="2" fill="none" />
<polyline points="123.5,450.5,115.5,458.0" stroke="black" stroke-width="2" fill="none" />
<polyline points="115.0,461.5,123.0,461.0,131.5,460.5,139.5,460.0,147.5,459.5,155.0,459.0,163.5,458.0,172.5,457.0,181.0,456.5" stroke="black" stroke-width="2" fill="none" />
<polyline points="124.0,444.0,116.0,451.5" stroke="black" stroke-width="2" fill="none" />
<polyline points="108.0,447.5,116.0,465.5,123.5,476.0,131.5,482.0,139.5,486.0,147.5,486.5,155.0,489.5,163.0,492.0,171.5,495.0,179.5,499.5,187.5,500.5,195.5,502.5,203.0,502.0,211.0,498.5" stroke="black" stroke-width="2" fill="none" />
<polyline points="148.5,451.5,140.5,452.5,132.5,453.0,124.0,453.5,115.5,454.0,107.5,454.5" stroke="black" stroke-width="2" fill="none" />
<polyline points="107.5,446.5,115.5,446.0,123.5,445.0,131.0,444.0" stroke="black" stroke-width="2" fill="none" />
<polyline points="115.5,435.0,107.5,442.5" stroke="black" stroke-width="2" fill="none" />
<polyline points="106.0,437.5,114.5,437.0,122.5,436.5" stroke="black" stroke-width="2" fill="none" />
<polyline points="123.0,429.0,115.0,430.0,107.0,430.5" stroke="black" stroke-width="2" fill="none" />
<polyline points="113.5,421.0,105.0,421.5,97.0,422.0" stroke="black" stroke-width="2" fill="none" />
<polyline points="99.5,413.0,107.5,413.0,114.5,412.5" stroke="black" stroke-width="2" fill="none" />
<polyline points="115.0,403.0,107.0,404.0,98.5,404.5" stroke="black" stroke-width="2" fill="none" />
<polyline points="98.5,396.0,106.5,395.5" stroke="black" stroke-width="2" fill="none" />
<polyline points="105.5,389.0,97.5,389.5,89.5,390.0" stroke="black" stroke-width="2" fill="none" />
<polyline points="81.0,376.0,73.0,369.0" stroke="black" stroke-width="2" fill="none" />
<polyline points="76.5,369.0,75.0,377.0" stroke="black" stroke-width="2" fill="none" />
<polyline points="83.5,364.5,91.0,362.5,94.5,365.0,96.0,373.0,99.0,380.5,100.0,388.5,103.0,396.5,105.5,404.5,107.5,412.0,110.5,420.0" stroke="black" stroke-width="2" fill="none" />
<polyline points="124.0,373.0,132.5,372.0,140.0,371.5,147.5,371.5,156.0,371.5" stroke="black" stroke-width="2" fill="none" />
<polyline points="149.0,362.0,141.0,362.0,133.0,362.5,124.5,363.0" stroke="black" stroke-width="2" fill="none" />
<polyline points="124.0,357.5,132.5,357.0,141.0,356.5,149.0,356.0,156.5,354.5,164.5,354.0" stroke="black" stroke-width="2" fill="none" />
<polyline points="154.5,348.5,146.5,349.5,138.5,350.0,130.5,350.5,122.5,350.5" stroke="black" stroke-width="2" fill="none" />
<polyline points="123.0,343.0,131.0,342.5,139.0,342.0,147.0,341.0,154.5,340.5,162.5,340.0,171.5,339.0,180.5,338.0,189.0,337.0,198.0,336.0,206.5,335.5" stroke="black" stroke-width="2" fill="none" />
<polyline points="228.0,319.5,219.5,319.5,211.0,320.0,203.5,321.0,196.5,321.5,189.0,322.5,181.0,323.0,173.0,323.5,165.0,324.0,157.0,324.5,148.5,324.5,141.0,325.0,133.5,325.0" stroke="black" stroke-width="2" fill="none" />
<polyline points="122.5,318.0,130.0,317.5,138.0,317.0,146.5,316.5,154.0,315.5,163.0,315.0,171.5,314.0,180.5,313.5,189.5,313.0,198.0,312.0,206.5,311.5,214.0,311.0,222.0,310.5" stroke="black" stroke-width="2" fill="none" />
<polyline points="220.0,301.0,212.0,302.0,203.5,302.5,195.5,303.0,187.0,303.5,179.0,304.0,171.0,305.0,163.0,305.5,154.5,307.0,146.0,308.5,138.0,309.5,130.0,310.5,122.0,311.0" stroke="black" stroke-width="2" fill="none" />
<polyline points="124.0,302.5,132.0,302.0,139.5,301.5,147.0,300.5,154.0,299.5,162.0,298.5,169.5,298.0,177.5,296.5,186.0,296.0,194.0,295.5,201.5,295.0,210.0,294.5" stroke="black" stroke-width="2" fill="none" />
<polyline points="202.5,287.5,194.5,288.5,186.5,289.5,178.0,290.0,169.5,290.5,161.5,291.0,154.5,292.0,147.0,293.0,139.5,294.5,132.0,295.0,124.5,295.5" stroke="black" stroke-width="2" fill="none" />
<polyline points="124.5,288.0,132.5,287.5,140.5,287.0,148.5,286.0,156.5,285.5,164.0,285.0,172.0,284.5,179.5,284.0,186.5,283.5,194.0,283.0" stroke="black" stroke-width="2" fill="none" />
<polyline points="215.0,328.5,207.0,322.0,199.0,321.0,191.0,315.0,182.5,312.5,174.5,312.0,166.0,312.0,158.0,312.5,150.0,314.5,142.0,311.0" stroke="black" stroke-width="2" fill="none" />
<polyline points="142.0,363.5,150.0,365.0,158.0,365.0,165.5,368.0,173.5,369.0,181.5,362.5,190.0,364.0" stroke="black" stroke-width="2" fill="none" />
<polyline points="99.5,349.0,91.0,349.5,82.5,350.5" stroke="black" stroke-width="2" fill="none" />
<polyline points="77.0,302.5,85.0,302.0" stroke="black" stroke-width="2" fill="none" />
<polyline points="83.5,291.0,76.0,291.5,68.0,292.0" stroke="black" stroke-width="2" fill="none" />
<polyline points="67.0,285.0,75.0,284.5,83.5,283.5" stroke="black" stroke-width="2" fill="none" />
<polyline points="84.5,268.5,77.0,269.0" stroke="black" stroke-width="2" fill="none" />
<polyline points="75.0,261.5,83.5,260.5" stroke="black" stroke-width="2" fill="none" />
<polyline points="82.0,276.5,74.0,277.5,66.0,278.0" stroke="black" stroke-width="2" fill="none" />
<polyline points="27.5,252.0,20.0,252.5,12.0,253.0,4.0,253.5" stroke="black" stroke-width="2" fill="none" />
<polyline points="3.5,249.0,11.5,248.5,19.0,248.5,27.0,248.0,34.5,247.0,43.0,246.5" stroke="black" stroke-width="2" fill="none" />
<polyline points="3.5,230.5,11.5,229.5,19.0,228.5,26.5,227.5,34.5,227.0,42.5,226.5,50.0,226.0,58.0,225.5,66.5,225.5,74.5,225.5,83.0,225.0" stroke="black" stroke-width="2" fill="none" />
<polyline points="98.0,160.5,90.5,160.5,82.5,161.0,74.5,161.0,67.0,161.0,59.0,162.0" stroke="black" stroke-width="2" fill="none" />
<polyline points="50.5,152.0,59.0,151.5,67.0,152.0,75.0,152.0,83.0,152.0,90.5,151.5,98.5,151.5" stroke="black" stroke-width="2" fill="none" />
<polyline points="108.0,144.5,100.0,144.5,92.0,144.5,84.0,144.5,75.5,144.5,67.5,144.5,59.0,145.5,51.0,145.5" stroke="black" stroke-width="2" fill="none" />
<polyline points="43.0,137.0,51.0,136.0,58.5,135.5,66.5,134.5,74.5,134.0,83.0,133.5,90.5,133.0,98.5,132.0,106.5,132.0" stroke="black" stroke-width="2" fill="none" />
<polyline points="115.0,125.5,107.0,133.0,99.5,140.0,91.5,147.0,83.0,154.5,75.0,161.5,66.5,169.0,58.5,176.0,51.0,183.0,43.0,190.5,35.0,198.0,27.5,205.5,19.5,213.0,12.0,220.5,4.5,228.0" stroke="black" stroke-width="2" fill="none" />
<polyline points="4.0,226.0,11.5,225.5,18.5,224.5,26.0,223.5,34.0,223.0,41.5,222.5,50.0,221.5,58.0,220.5,66.5,220.0,75.0,219.0" stroke="black" stroke-width="2" fill="none" />
<polyline points="84.0,215.0,76.0,215.5,67.5,216.0,59.0,216.5,50.5,216.5,42.0,217.0,33.5,217.5,25.5,218.5,17.5,219.0,9.5,219.5,1.5,220.0" stroke="black" stroke-width="2" fill="none" />
<polyline points="2.0,215.0,10.0,214.5,18.0,213.5,26.5,212.5,34.5,212.0,42.5,211.5,50.5,210.5,58.5,209.5,66.5,209.0,74.5,209.5,82.0,209.0" stroke="black" stroke-width="2" fill="none" />
<polyline points="83.5,204.0,75.5,204.5,67.0,205.0,59.0,206.0,50.5,207.0,43.0,207.0,34.5,207.5,26.5,208.0,18.0,208.0,9.5,208.0,1.5,208.5" stroke="black" stroke-width="2" fill="none" />
<polyline points="2.0,211.0,11.0,203.5,19.0,196.0,27.0,188.5,35.0,181.0,43.0,173.5,50.5,166.0,58.5,159.0,66.5,151.5,74.5,143.5,82.0,135.5,90.0,127.5,98.0,120.0,106.0,112.5,114.5,105.0,123.5,97.5,132.5,90.5,140.5,82.5,148.5,75.0" stroke="black" stroke-width="2" fill="none" />
<polyline points="145.5,72.0,135.5,80.0,137.0,80.0,145.0,73.5,153.0,74.0,161.0,74.5,169.0,77.0" stroke="black" stroke-width="2" fill="none" />
<polyline points="140.0,58.0,132.0,65.5,124.5,73.0,116.5,80.5,108.0,88.0,99.5,95.0,91.5,102.5,83.0,110.0,74.5,117.5,66.5,125.0,58.0,132.5,50.5,140.5,42.0,148.5,33.5,156.5,25.5,164.0,17.5,172.0,9.0,179.0,0.5,186.5" stroke="black" stroke-width="2" fill="none" />
<polyline points="3.0,185.5,11.0,185.0,19.5,184.0,28.0,183.5,35.5,183.0,43.5,182.0,51.5,181.5,59.0,181.0,66.5,180.0,74.0,179.5" stroke="black" stroke-width="2" fill="none" />
<polyline points="91.0,184.5,83.0,184.5,75.0,185.0,67.0,185.5,59.5,186.5,51.5,187.5,43.5,188.0,35.5,188.5,27.5,189.0,19.0,189.5,11.0,190.0,3.5,191.0" stroke="black" stroke-width="2" fill="none" />
<polyline points="4.0,181.0,12.0,180.5,20.0,180.0,28.5,179.5,36.5,178.5,44.5,177.5,52.0,177.0,59.5,176.5,67.5,176.5,75.5,176.0,83.5,175.0,91.5,175.0,99.0,175.0,107.0,175.0" stroke="black" stroke-width="2" fill="none" />
<polyline points="114.5,165.0,106.5,165.5,98.5,166.5,91.0,167.0,83.0,168.0,74.5,168.5,66.5,169.0,58.5,169.5,51.0,169.5,43.5,170.0,35.5,170.5,28.5,171.0,20.5,172.0,13.0,172.5,5.0,173.0" stroke="black" stroke-width="2" fill="none" />
<polyline points="4.0,173.0,11.5,166.5,19.0,159.0,27.0,151.0,35.0,143.0,43.0,135.5,51.0,128.5,59.0,120.5,68.0,113.0,76.0,105.5,84.0,98.5,91.5,90.5,100.0,83.5,108.5,76.0,117.0,68.5" stroke="black" stroke-width="2" fill="none" />
<polyline points="109.0,69.0,101.5,76.0,93.5,83.0,85.5,90.5,77.5,98.5,69.5,106.0,61.0,113.5,52.5,121.0,44.5,128.0,36.5,135.0,28.5,142.5,20.5,149.5,12.5,157.5,4.0,165.0" stroke="black" stroke-width="2" fill="none" />
<polyline points="3.0,163.0,11.0,162.0,19.5,161.5,28.0,160.5,36.5,160.5,44.5,160.0,52.5,159.0" stroke="black" stroke-width="2" fill="none" />
<polyline points="42.5,129.5,50.5,128.5,58.5,128.0,66.5,127.5,74.5,126.5,82.5,126.5,90.5,125.5,98.5,125.0,106.5,124.5" stroke="black" stroke-width="2" fill="none" />
<polyline points="108.5,108.5,116.5,107.5" stroke="black" stroke-width="2" fill="none" />
<polyline points="114.0,111.5,106.0,112.5,98.5,113.0,91.0,114.0" stroke="black" stroke-width="2" fill="none" />
<polyline points="91.5,106.0,99.5,105.5" stroke="black" stroke-width="2" fill="none" />
<polyline points="108.0,99.0,115.5,98.0,123.5,98.0,131.5,97.0,140.0,96.0" stroke="black" stroke-width="2" fill="none" />
<polyline points="148.0,98.0,140.0,98.5,132.0,100.5,124.5,100.5,117.0,107.0,114.0,115.5,117.0,107.5,125.0,99.5" stroke="black" stroke-width="2" fill="none" />
<polyline points="122.5,89.0,131.0,88.0,140.0,87.5,148.5,87.0,156.5,86.5" stroke="black" stroke-width="2" fill="none" />
<polyline points="150.5,44.0,142.0,51.5,133.5,58.5,124.5,65.5,115.5,73.0,107.0,80.0,98.5,87.5,90.5,94.5,83.0,102.0,75.0,110.0,67.0,118.0,59.0,125.0,51.5,132.5,43.0,140.0,34.5,147.5,26.0,155.5,18.0,163.0,10.5,171.5,2.5,179.5" stroke="black" stroke-width="2" fill="none" />
<polyline points="3.5,177.0,11.5,176.5,19.5,175.5,27.5,175.0,35.5,175.0,43.0,174.5,50.5,173.5,58.5,173.0,66.0,172.5,73.5,172.5" stroke="black" stroke-width="2" fill="none" />
<polyline points="90.5,163.5,82.5,164.5,75.0,164.5,67.0,164.5,59.5,165.0,52.0,165.5,43.5,166.0,36.0,166.5,28.5,167.5,20.5,168.0,12.5,168.5,4.0,169.0" stroke="black" stroke-width="2" fill="none" />
<polyline points="1.5,165.0,9.5,165.0,17.0,164.0,25.5,163.5,34.0,163.5,42.5,163.0,50.5,162.0,58.0,161.0,66.0,160.5,74.5,160.0,82.5,159.0,90.5,159.0,99.0,159.0,107.0,159.0,115.5,159.0,123.5,159.0,131.0,158.0" stroke="black" stroke-width="2" fill="none" />
<polyline points="115.5,151.0,123.5,147.0,131.0,143.0,139.0,147.0,145.0,142.5,152.5,143.5,161.0,146.0" stroke="black" stroke-width="2" fill="none" />
<polyline points="132.0,50.0,140.0,43.0,148.0,36.0" stroke="black" stroke-width="2" fill="none" />
<polyline points="149.5,27.0,142.0,28.0" stroke="black" stroke-width="2" fill="none" />
<polyline points="131.0,33.0,140.0,26.0,148.5,18.5,156.5,10.5,164.5,3.5" stroke="black" stroke-width="2" fill="none" />
<polyline points="163.0,12.0,155.0,20.0,147.0,28.0,139.5,35.5,132.0,42.0" stroke="black" stroke-width="2" fill="none" />
<polyline points="130.0,24.5,138.5,17.5,147.0,11.0,155.0,4.0" stroke="black" stroke-width="2" fill="none" />
<polyline points="147.0,2.5,139.0,9.5" stroke="black" stroke-width="2" fill="none" />
<polyline points="148.0,16.5,156.0,16.5" stroke="black" stroke-width="2" fill="none" />
<polyline points="108.5,59.5,100.5,66.5,92.5,74.0,84.5,81.5,77.0,88.5,68.5,96.0,60.5,104.0,52.5,112.0,45.0,120.0,37.5,127.5,29.5,135.0,21.5,142.5,13.0,150.0,5.0,157.5" stroke="black" stroke-width="2" fill="none" />
<polyline points="3.0,158.5,11.5,158.0,19.5,157.5,28.0,157.0,36.0,156.0,44.5,155.0,52.5,154.0,60.5,153.0,68.5,152.0,76.5,151.5,85.0,150.5,93.5,150.0,101.5,150.0,110.0,149.5,118.5,149.0,126.5,148.5,134.5,148.0,142.0,147.0,149.0,146.5,156.5,146.5,164.5,146.0,172.5,145.5" stroke="black" stroke-width="2" fill="none" />
<polyline points="91.5,69.0,83.5,77.0,76.0,84.0,67.5,91.0,58.5,98.0,50.0,104.5,42.0,112.0,34.5,119.0,27.0,127.0,19.0,134.5,11.0,143.0,3.0,150.0" stroke="black" stroke-width="2" fill="none" />
<polyline points="1.0,150.5,9.5,149.5,18.0,149.0,26.5,148.5,34.5,148.0,43.0,147.5,51.5,147.0,60.0,146.0,68.5,145.0,76.5,144.5,84.5,144.0,92.5,143.5,100.5,142.5,108.5,142.5,116.0,143.0,123.5,143.0,131.5,142.5,139.5,141.5,147.0,141.0,155.0,140.5" stroke="black" stroke-width="2" fill="none" />
<polyline points="93.0,61.0,84.5,68.0,75.5,75.5,67.0,82.5,59.0,89.5,51.0,96.5,42.5,104.0,34.5,112.0,26.5,119.5,19.0,127.0,11.5,134.0,3.5,142.0" stroke="black" stroke-width="2" fill="none" />
<polyline points="4.5,141.0,12.5,140.5,20.5,140.0,28.5,140.0,36.5,139.5,44.0,139.0,51.5,138.5,58.5,138.0,66.0,138.0,73.5,138.0,81.0,137.5,89.5,137.0,98.5,136.5,107.0,136.0,115.0,135.0,123.5,135.0,131.5,134.5,140.0,134.5,148.0,134.5,156.0,133.5,164.0,133.0,172.0,132.5,179.5,132.0" stroke="black" stroke-width="2" fill="none" />
<polyline points="93.0,51.5,84.5,59.0,76.5,67.0,68.5,74.5,60.0,82.5,51.5,90.0,43.5,98.0,36.0,106.0,28.0,113.5,20.0,121.0,11.5,128.5,3.5,135.5" stroke="black" stroke-width="2" fill="none" />
<polyline points="4.0,133.5,12.0,133.5,20.0,132.5,28.0,131.5,36.0,131.0,43.0,129.5,51.0,129.0,59.0,129.0,67.0,128.5,74.5,127.5,82.0,126.5,90.0,126.5,98.5,126.0,106.5,125.5,114.5,125.5,123.0,125.5,131.0,125.0,139.5,124.5,148.0,123.5,155.5,122.5,163.5,121.5,172.0,121.0,180.0,120.5,188.0,120.5" stroke="black" stroke-width="2" fill="none" />
<polyline points="92.5,43.5,85.0,51.5,77.0,59.5,68.5,66.5,60.5,73.5,52.0,80.5,44.0,88.5,35.5,96.0,27.5,104.0,19.0,112.5,10.5,120.0,3.0,127.0" stroke="black" stroke-width="2" fill="none" />
<polyline points="4.5,127.5,12.5,127.0,21.0,126.5,28.5,125.0,37.0,124.0,44.5,123.5,52.0,122.5,60.0,121.5,68.0,121.0,76.0,121.0,84.0,120.5,92.0,120.0,100.0,119.5,107.5,119.0,115.5,119.0,123.0,118.5,131.5,118.5,139.5,118.0" stroke="black" stroke-width="2" fill="none" />
<polyline points="83.0,71.0,75.0,72.0" stroke="black" stroke-width="2" fill="none" />
<polyline points="76.0,82.0,68.0,82.5" stroke="black" stroke-width="2" fill="none" />
<polyline points="67.5,89.0,75.5,89.0" stroke="black" stroke-width="2" fill="none" />
<polyline points="74.5,96.0,66.0,96.5,58.0,97.0" stroke="black" stroke-width="2" fill="none" />
<polyline points="51.5,104.0,59.5,104.0,67.0,104.0,75.0,104.0" stroke="black" stroke-width="2" fill="none" />
<polyline points="74.5,111.0,66.5,111.5,58.0,111.5,50.0,111.5" stroke="black" stroke-width="2" fill="none" />
<polyline points="42.5,120.0,50.5,120.0,59.0,120.0,67.0,120.0,75.5,120.0,83.5,120.0,91.0,119.0,98.5,118.0,106.0,118.0" stroke="black" stroke-width="2" fill="none" />
<polyline points="69.0,59.5,61.0,67.0,52.5,75.0,44.5,82.5,37.0,91.0,29.0,98.5,21.0,106.0,12.5,113.0,4.5,120.5" stroke="black" stroke-width="2" fill="none" />
<polyline points="4.0,121.5,12.5,121.0,20.5,120.5,28.0,119.5" stroke="black" stroke-width="2" fill="none" />
<polyline points="37.0,135.5,29.0,135.5,21.0,136.0,13.0,136.5,5.5,137.5" stroke="black" stroke-width="2" fill="none" />
<polyline points="4.5,131.0,12.5,130.5,20.5,130.0,28.5,129.0" stroke="black" stroke-width="2" fill="none" />
<polyline points="43.0,150.0,34.5,151.5,26.0,153.0,18.0,154.0,10.0,154.5,2.5,155.0" stroke="black" stroke-width="2" fill="none" />
<polyline points="2.5,146.5,10.5,146.0,18.5,145.5,26.5,144.5,34.5,143.5" stroke="black" stroke-width="2" fill="none" />
<polyline points="4.5,115.5,12.0,115.0,19.5,115.0,27.5,115.0,35.5,114.5,43.5,114.5,51.0,114.0,59.0,114.0,67.0,114.0,75.5,113.5,83.5,112.5,91.5,112.5,99.5,112.5,107.5,112.5,116.0,111.5,124.5,111.0,133.0,111.0,141.0,110.5,149.0,110.0,157.5,109.0,165.5,108.5,173.0,107.5,180.5,107.0,188.0,106.5" stroke="black" stroke-width="2" fill="none" />
<polyline points="77.0,36.0,69.5,44.0,61.0,51.5,52.5,58.5,43.5,66.0,35.0,73.5,27.0,81.0,19.0,88.0,11.0,95.0,2.5,102.5" stroke="black" stroke-width="2" fill="none" />
<polyline points="1.5,104.0,9.5,103.5,18.5,103.0,27.0,103.0" stroke="black" stroke-width="2" fill="none" />
<polyline points="27.0,110.5,19.0,111.0,11.0,111.0,3.0,111.5" stroke="black" stroke-width="2" fill="none" />
<polyline points="1.5,112.5,9.5,105.0,18.0,97.5,26.5,90.0,34.5,82.5,43.5,74.5,52.0,66.5,60.5,59.0,68.5,51.5" stroke="black" stroke-width="2" fill="none" />
<polyline points="60.5,42.5,68.5,35.0" stroke="black" stroke-width="2" fill="none" />
<polyline points="69.5,18.0,61.5,25.5,53.5,33.0,45.5,40.5,37.5,48.0,29.5,55.5,21.0,62.5,12.5,70.0,4.0,77.5" stroke="black" stroke-width="2" fill="none" />
<polyline points="4.0,76.5,11.5,75.5,19.5,75.0,27.5,74.5,35.0,73.5,42.5,73.5,50.5,72.5,59.0,72.0,67.0,71.5,75.0,70.5,83.0,70.0,90.5,69.5,98.5,69.0,106.0,69.0,114.0,69.5,122.0,69.5,130.5,69.0,139.5,69.0,148.0,69.0,156.0,68.5,164.0,68.5,172.0,68.0" stroke="black" stroke-width="2" fill="none" />
<polyline points="76.5,4.5,69.0,11.5,61.5,18.5,54.0,26.0,46.0,33.5,38.0,41.0,30.0,48.5,21.5,55.5,13.0,63.0,5.5,70.5" stroke="black" stroke-width="2" fill="none" />
<polyline points="3.5,71.0,11.0,70.5,18.5,70.0,26.0,69.5,34.0,69.0,41.5,68.0,49.5,67.5,57.5,67.0,65.5,66.0,73.0,65.5,80.5,64.5,88.5,64.5,97.0,64.0,105.0,63.5,113.0,62.5,120.5,61.5,129.0,61.0,137.5,60.0,145.5,59.5,154.0,59.0" stroke="black" stroke-width="2" fill="none" />
<polyline points="67.5,2.0,60.0,9.0,52.5,16.5,45.0,24.0,37.0,31.5,29.0,39.5,20.5,47.0,12.0,55.0,3.5,62.5" stroke="black" stroke-width="2" fill="none" />
<polyline points="2.5,61.0,11.0,61.0,19.0,61.0,27.5,61.0,35.5,61.0,43.5,60.0,51.5,60.0,59.5,59.5,67.5,59.0,75.5,58.5,83.5,58.0,91.0,57.0,99.0,56.5,107.5,56.0,115.5,55.5,123.5,55.0,131.5,54.5,139.5,53.5,147.0,52.5,155.0,52.0" stroke="black" stroke-width="2" fill="none" />
<polyline points="60.5,1.0,53.0,9.0,45.0,17.0,36.5,24.5,28.0,32.0,19.0,40.0,11.0,48.0,3.0,55.5" stroke="black" stroke-width="2" fill="none" />
<polyline points="1.5,57.0,9.5,56.5,18.5,56.5,26.5,56.5,35.0,56.0" stroke="black" stroke-width="2" fill="none" />
<polyline points="44.5,51.5,36.5,59.0,29.0,66.0,21.5,73.0,13.0,81.0,4.5,88.5" stroke="black" stroke-width="2" fill="none" />
<polyline points="2.0,89.5,9.5,88.5,17.5,88.5,25.5,88.0" stroke="black" stroke-width="2" fill="none" />
<polyline points="26.5,95.5,18.5,95.5,10.5,96.0,2.5,96.5" stroke="black" stroke-width="2" fill="none" />
<polyline points="3.5,97.0,12.0,89.5,20.0,82.0,28.5,74.5,37.0,66.5,45.5,58.5" stroke="black" stroke-width="2" fill="none" />
<polyline points="35.0,71.0,27.0,72.0,19.0,72.5,11.0,73.5,3.0,73.5" stroke="black" stroke-width="2" fill="none" />
<polyline points="3.5,81.0,11.0,80.5,19.0,79.5,26.5,79.5" stroke="black" stroke-width="2" fill="none" />
<polyline points="31.0,69.0,39.0,49.0,47.5,37.5,55.5,26.5,63.5,15.5,71.5,8.5,78.5,2.0,68.5,10.0,61.5,18.0,55.5,26.5,49.0,34.5,44.0,42.5,39.0,50.0,35.5,58.0,32.5,66.0,30.5,74.0,28.5,81.5,26.5,89.5,25.5,97.5,25.0,105.5,26.0,113.5,27.0,121.0,30.5,129.0" stroke="black" stroke-width="2" fill="none" />
<polyline points="4.5,107.0,12.0,106.0,20.0,106.5,27.5,106.0,35.5,106.0,43.5,106.0,51.5,106.0,59.0,105.5,67.0,105.0,74.5,104.5,82.5,104.0,90.0,104.0,98.0,104.0,106.5,103.5,115.5,103.0,124.0,102.5,132.0,101.5,140.5,100.5,148.5,100.0,156.5,99.5,165.0,99.0,172.5,98.5,180.5,98.0,188.0,98.0" stroke="black" stroke-width="2" fill="none" />
<polyline points="52.5,2.5,44.5,10.5,36.5,18.0,28.5,26.0,20.5,33.5,12.5,41.0,3.5,48.5" stroke="black" stroke-width="2" fill="none" />
<polyline points="4.0,48.5,11.5,48.5,19.0,48.5,27.0,48.0,35.0,47.5,43.0,46.5" stroke="black" stroke-width="2" fill="none" />
<polyline points="34.5,65.0,27.0,65.5,19.5,65.5,12.0,66.0,4.5,66.0" stroke="black" stroke-width="2" fill="none" />
<polyline points="2.0,52.5,9.5,52.5,17.5,52.5,26.0,52.0,35.0,51.0,43.5,50.5,51.5,50.0,59.5,50.0,67.5,49.5,76.0,48.5,84.0,48.0,92.0,47.5,100.0,47.0,108.5,46.5,116.5,45.5,124.5,44.5,132.0,44.0,139.5,43.5,147.5,43.5,155.5,43.0" stroke="black" stroke-width="2" fill="none" />
<polyline points="45.0,2.5,37.0,10.5,29.0,18.5,21.0,26.5,12.5,35.0,4.0,43.0" stroke="black" stroke-width="2" fill="none" />
<polyline points="4.5,43.5,12.0,43.0,20.0,43.0,28.5,42.5,36.5,41.5,45.0,41.5,53.0,41.0,61.0,41.0,69.0,41.0,76.5,40.5,85.0,40.0,93.0,39.5,100.5,39.0,108.5,38.0,115.5,37.5,123.5,37.0,131.0,36.5,138.5,36.5,146.5,36.0,154.5,35.5,163.0,35.0" stroke="black" stroke-width="2" fill="none" />
<polyline points="37.5,3.0,30.0,10.5,22.0,18.0,14.0,25.0,5.5,33.0" stroke="black" stroke-width="2" fill="none" />
<polyline points="3.0,31.0,11.0,30.5,19.0,29.5,27.0,29.5,35.5,29.5,43.0,29.0,51.5,28.5,59.0,27.5,66.5,27.0,75.0,26.5,83.0,25.5,91.5,25.0,99.5,24.5,108.0,24.0,116.0,23.0,124.5,22.0,132.5,21.0,140.5,20.0,148.5,19.0,156.5,18.5,165.0,17.5,173.5,17.0" stroke="black" stroke-width="2" fill="none" />
<polyline points="30.0,3.0,22.0,10.0,13.5,17.5,5.0,25.0" stroke="black" stroke-width="2" fill="none" />
<polyline points="2.0,25.0,10.0,24.0,18.0,23.5,26.0,23.0,34.5,23.0,42.5,23.0,50.5,22.5,58.0,22.5" stroke="black" stroke-width="2" fill="none" />
<polyline points="20.0,3.0,11.5,10.5,3.0,19.0" stroke="black" stroke-width="2" fill="none" />
<polyline points="3.5,20.5,11.5,20.0,19.5,19.5,27.0,19.5,34.5,20.0,42.0,19.5,50.0,19.0,58.0,18.0,65.5,17.5,73.0,17.5,81.0,17.5,89.5,16.5,98.0,16.0,106.5,15.5,114.5,15.0,123.0,14.5,131.5,14.0,140.0,13.0,148.5,12.0,156.5,11.5,164.5,11.0,172.5,10.5" stroke="black" stroke-width="2" fill="none" />
<polyline points="11.0,4.0,3.0,11.0" stroke="black" stroke-width="2" fill="none" />
<polyline points="4.5,12.0,12.5,11.5,21.0,10.5,29.0,10.0,37.0,9.5,45.5,10.0,53.0,9.0,61.0,9.0,69.0,8.5,76.5,8.0,84.5,8.0,92.5,7.5,100.5,7.0,108.5,7.0,116.5,6.5,124.0,6.0,131.5,5.5,138.5,5.0,146.0,5.0,153.5,5.0,161.0,4.5,169.5,4.0" stroke="black" stroke-width="2" fill="none" />
<polyline points="186.0,90.5,178.0,90.5,170.5,91.5,163.0,92.0,154.5,92.5,146.5,92.5,138.0,92.5,130.0,93.0,122.5,93.5,114.5,94.0,106.5,94.5,99.0,95.5,91.5,96.5,83.5,97.5,75.0,97.5,66.5,97.5,58.5,97.5,50.5,98.0,42.5,98.0,34.0,98.5,26.0,98.5,18.0,99.5,10.5,100.0,2.0,100.5" stroke="black" stroke-width="2" fill="none" />
<polyline points="1.5,95.0,9.5,94.5,17.5,93.5,25.0,92.0,33.0,91.5,41.0,90.0,49.5,89.5,57.5,88.5,65.5,88.0,73.5,87.5,81.5,87.0,89.5,86.5,97.5,86.0,105.5,85.5,113.5,84.5,122.0,84.0,130.5,83.5,139.0,83.5,147.5,83.0,156.0,82.5,164.0,82.0,172.0,81.5,179.5,81.0,187.0,80.5" stroke="black" stroke-width="2" fill="none" />
<polyline points="178.0,74.5,170.0,75.5,162.0,76.0,154.5,76.5,146.5,76.0,138.5,76.5,130.5,77.5,122.5,78.5,114.5,79.0,106.5,79.5,98.0,80.5,90.0,81.5,82.0,82.0,74.0,82.0,66.0,82.0,58.0,82.5,49.5,83.0,41.0,83.5,33.0,83.5,25.5,83.5,18.0,84.0,10.0,85.0,2.0,86.0" stroke="black" stroke-width="2" fill="none" />
<polyline points="3.0,41.5,10.5,41.0,18.5,40.5,26.5,40.0,34.5,39.5,42.0,39.0" stroke="black" stroke-width="2" fill="none" />
<polyline points="3.5,39.5,11.5,39.0,19.5,38.5,27.0,38.0,35.0,37.5,42.5,36.5,50.5,36.0,58.0,34.5,65.5,33.5,73.5,33.0,81.5,32.0,89.5,32.0,97.0,31.0,105.5,30.5,114.0,30.5,122.5,30.0,130.5,29.0,138.0,28.0,146.0,27.5,154.5,27.0,162.5,26.0" stroke="black" stroke-width="2" fill="none" />
<polyline points="51.5,30.5,43.5,31.5,35.5,32.0,27.5,33.0,19.5,34.0,11.5,35.0,3.0,36.0" stroke="black" stroke-width="2" fill="none" />
<polyline points="4.5,15.5,12.5,15.0,20.5,14.5,28.5,14.0,36.0,14.0,44.0,14.5,52.0,14.0,59.5,13.5,67.0,13.5" stroke="black" stroke-width="2" fill="none" />
<polyline points="77.0,4.5,68.5,5.0,60.5,6.0,52.5,6.5,44.0,6.5,35.5,7.0,27.0,7.5,19.0,7.5,10.5,8.0,3.0,8.5" stroke="black" stroke-width="2" fill="none" />
<polyline points="3.0,7.0,10.5,6.5,19.0,5.5,27.0,4.5,35.5,4.0,43.5,4.0,52.0,3.0,60.0,2.5,68.0,2.0,76.0,1.5,84.0,0.5,92.0,0.5,100.0,-0.5,108.0,-1.5,116.0,-2.0,123.0,-3.5,131.0,-4.0,139.0,-4.0,147.0,-4.5,154.5,-5.5,162.0,-6.5,170.0,-6.5" stroke="black" stroke-width="2" fill="none" />
<polyline points="73.0,241.5,65.0,244.5,57.0,246.5,48.5,248.0,40.0,250.0,32.5,251.0,24.5,253.5,16.5,254.5,8.5,256.5,0.0,258.0" stroke="black" stroke-width="2" fill="none" />
<polyline points="1.5,390.0,9.5,396.0" stroke="black" stroke-width="2" fill="none" />
<polyline points="12.5,395.5,4.0,396.0" stroke="black" stroke-width="2" fill="none" />
<polyline points="6.0,400.5,1.5,398.5,1.5,391.5" stroke="black" stroke-width="2" fill="none" />
<polyline points="1.5,435.5,9.5,443.5,17.5,452.5,25.5,467.0,33.0,478.5,41.0,496.0,49.5,510.0" stroke="black" stroke-width="2" fill="none" />
<polyline points="50.0,508.5,42.0,508.5" stroke="black" stroke-width="2" fill="none" />
<polyline points="43.5,499.5,35.0,500.5" stroke="black" stroke-width="2" fill="none" />
<polyline points="37.0,491.5,45.5,491.0" stroke="black" stroke-width="2" fill="none" />
<polyline points="35.5,483.5,27.5,484.0" stroke="black" stroke-width="2" fill="none" />
<polyline points="28.5,477.0,36.5,476.5" stroke="black" stroke-width="2" fill="none" />
<polyline points="27.0,469.5,19.5,470.0" stroke="black" stroke-width="2" fill="none" />
<polyline points="17.5,462.0,9.0,462.5" stroke="black" stroke-width="2" fill="none" />
<polyline points="11.5,452.0,19.5,451.5" stroke="black" stroke-width="2" fill="none" />
<polyline points="10.0,443.5,2.0,443.5" stroke="black" stroke-width="2" fill="none" />
<polyline points="1.0,443.5,9.0,454.5,17.0,469.0,25.5,478.0,33.5,492.0,41.5,506.0" stroke="black" stroke-width="2" fill="none" />
<polyline points="50.5,435.5,42.5,431.5" stroke="black" stroke-width="2" fill="none" />
<polyline points="43.5,433.0,52.5,441.0,55.0,441.5" stroke="black" stroke-width="2" fill="none" />
<polyline points="4.0,443.0,7.0,451.0,12.0,458.5,17.5,464.5,22.0,472.5,26.0,480.5,31.5,488.5,35.5,497.0,39.5,505.0" stroke="black" stroke-width="2" fill="none" />
<polyline points="47.5,507.5,43.0,499.5,39.0,491.5,34.5,484.0,30.5,476.0,24.0,468.0,19.5,460.0,14.5,452.0,7.0,444.0,2.0,436.0" stroke="black" stroke-width="2" fill="none" />
</svg>