<svg xmlns="http://www.w3.org/2000/svg" version="1.1"><polyline points="196.0,20.0,177.0,28.0,165.5,36.0,157.5,44.0,150.5,52.0,143.5,60.5,140.0,68.0,135.0,76.0,131.0,84.0,127.5,93.0,135.5,81.0,143.5,67.0,152.0,56.0,160.0,47.0,168.5,38.5,176.5,33.5,184.5,28.0,193.0,25.0,201.0,21.5,209.0,20.5,217.0,20.0,224.5,20.5,232.0,22.0,240.0,25.0,247.5,28.0,256.5,32.5,264.5,37.5,273.0,43.0,281.0,41.0,289.0,37.5,297.5,33.0,305.5,31.5,314.0,29.5,322.0,27.5,330.5,27.5,339.0,27.5,346.5,29.5,354.0,32.5,362.0,39.5,370.0,48.5" stroke="black" stroke-width="2" fill="none" />
<polyline points="365.5,32.0,357.5,32.5,349.0,33.5,341.0,34.5,333.0,35.5,324.5,36.5,316.5,37.0,308.0,38.0,300.0,38.5,292.5,39.0,285.0,39.5" stroke="black" stroke-width="2" fill="none" />
<polyline points="298.5,31.0,306.0,30.5,314.0,29.5,322.0,29.0,330.5,28.5,338.5,28.0,347.0,27.0,355.0,26.0" stroke="black" stroke-width="2" fill="none" />
<polyline points="352.5,30.5,362.0,38.5,368.0,47.0,373.0,55.0,375.0,63.0,374.0,71.0" stroke="black" stroke-width="2" fill="none" />
<polyline points="395.0,80.5,407.0,88.0,419.0,99.0,419.5,105.5" stroke="black" stroke-width="2" fill="none" />
<polyline points="419.5,106.0,411.0,114.0,403.0,121.5,394.5,129.5,386.5,137.0,378.5,144.0,370.5,152.0,363.0,160.0" stroke="black" stroke-width="2" fill="none" />
<polyline points="371.5,160.0,379.0,152.5,386.0,144.5,394.5,137.0,402.0,129.5,410.0,122.0,418.0,114.0,426.0,106.5" stroke="black" stroke-width="2" fill="none" />
<polyline points="435.5,106.0,427.5,113.5,419.0,121.5,411.0,129.5,403.0,137.5,394.5,145.5,386.5,153.0,379.0,160.0" stroke="black" stroke-width="2" fill="none" />
<polyline points="381.0,163.0,389.0,162.0,397.0,161.5,405.0,161.0,413.5,160.5" stroke="black" stroke-width="2" fill="none" />
<polyline points="419.0,153.0,427.0,145.5,435.0,138.5,443.0,131.5" stroke="black" stroke-width="2" fill="none" />
<polyline points="443.0,122.0,435.0,130.0,426.0,137.5,418.5,145.0,411.0,152.0,403.5,159.5" stroke="black" stroke-width="2" fill="none" />
<polyline points="394.0,159.5,402.0,152.0,410.0,144.5,418.5,137.5,427.5,130.0,435.5,122.5,444.0,115.0" stroke="black" stroke-width="2" fill="none" />
<polyline points="443.0,112.5,435.0,112.5" stroke="black" stroke-width="2" fill="none" />
<polyline points="443.0,105.5,435.5,113.5,427.5,121.5,420.0,129.0,412.5,137.0,404.5,145.0,396.5,152.5,388.0,160.0" stroke="black" stroke-width="2" fill="none" />
<polyline points="404.5,168.5,396.5,168.5,388.5,169.5,381.0,170.0,373.0,171.0,365.0,171.0,356.5,171.5,348.5,172.0,340.5,172.5,332.5,172.5,324.5,172.5,316.5,173.0,308.5,174.0,300.0,175.0,292.0,176.0,283.5,177.5,275.0,178.5,267.0,179.0,259.0,179.0,251.0,179.0,243.0,180.0,235.5,180.5,227.5,180.5,219.5,181.0,211.0,181.5,203.0,182.0,194.5,182.5,186.5,183.0,178.5,183.5,170.5,183.5,162.5,183.5,155.0,184.0,147.0,184.5,139.5,185.0,131.5,185.5,124.0,186.5,116.0,187.5,108.5,187.5,101.0,187.5,93.5,188.0,86.0,188.5,78.0,189.5" stroke="black" stroke-width="2" fill="none" />
<polyline points="78.0,180.0,86.5,179.5,94.0,178.5,102.0,178.5,109.5,178.5,117.5,178.0,125.0,178.0,133.0,178.5,141.0,178.5,149.0,178.0,157.0,177.5,165.0,177.0,173.0,176.5,180.5,176.0,188.0,175.0,196.0,174.0,204.0,174.0,212.5,174.0,220.5,174.0,228.5,174.0,237.0,173.5,244.5,173.0,252.0,172.5,260.0,172.0,268.5,171.0,276.5,170.5,285.0,169.5,293.0,168.5,301.0,167.5,309.5,166.5,317.5,166.0,325.5,165.5,333.5,165.5,341.5,165.0,349.0,164.0,357.0,163.5,365.0,162.5,372.5,162.0,380.0,161.5,387.5,160.5,395.0,160.0" stroke="black" stroke-width="2" fill="none" />
<polyline points="396.0,154.5,388.0,155.5,380.0,156.0,372.5,156.5,365.0,156.5,357.0,157.0,349.0,157.5,341.0,157.5,333.0,158.0,325.0,158.5,317.5,159.5,309.0,160.0,301.0,160.5,293.0,161.0,285.5,161.5,277.5,162.0,269.5,162.5,261.0,163.0,253.0,163.5,244.5,164.5,236.0,165.0,228.0,165.5,220.5,166.0,212.5,166.5,204.5,167.0,196.5,167.5,188.5,167.5,181.0,168.0,173.5,168.5,165.5,168.0,157.5,168.5,149.0,169.0,140.5,169.5,132.5,169.5,125.0,170.0,116.5,170.5,108.5,171.5,100.0,172.0,91.5,172.5,83.0,172.5,75.0,173.0" stroke="black" stroke-width="2" fill="none" />
<polyline points="75.0,171.5,83.0,152.0,90.5,135.0,98.5,121.0,106.5,109.5,114.5,100.5,115.5,105.5,125.5,104.0,133.5,104.0,141.5,108.0,149.5,112.0,157.5,117.0,165.5,122.0,173.5,126.0,176.5,129.0" stroke="black" stroke-width="2" fill="none" />
<polyline points="179.0,130.5,187.0,130.0,195.0,129.5" stroke="black" stroke-width="2" fill="none" />
<polyline points="191.5,130.0,199.5,124.0,208.0,123.5,216.0,122.5,223.5,123.0,231.5,123.0,239.5,123.0,247.0,122.0,255.0,120.5,263.0,118.5,271.0,117.5,279.0,116.5,287.5,116.0,295.5,114.5,304.0,113.5" stroke="black" stroke-width="2" fill="none" />
<polyline points="307.5,106.0,300.0,114.0,292.0,122.0,283.5,130.0,275.0,137.5,266.5,145.0,258.5,152.5,251.5,160.0,243.5,167.0" stroke="black" stroke-width="2" fill="none" />
<polyline points="250.5,166.0,258.0,159.0,266.0,151.5,274.0,144.0,281.5,136.5,290.0,129.0,298.0,121.5,306.0,114.0,314.0,106.0" stroke="black" stroke-width="2" fill="none" />
<polyline points="322.5,109.5,314.5,116.5,306.5,124.0,299.0,131.5,291.0,138.5,283.0,145.5,275.0,152.5,267.0,159.5,259.0,167.0" stroke="black" stroke-width="2" fill="none" />
<polyline points="266.0,167.0,273.5,159.0,281.5,151.5,290.0,144.5,298.0,136.5,306.5,129.5,314.5,122.0,322.0,113.5,330.0,106.0" stroke="black" stroke-width="2" fill="none" />
<polyline points="331.0,112.5,339.0,105.5" stroke="black" stroke-width="2" fill="none" />
<polyline points="345.5,111.0,353.5,110.0,362.0,107.0,352.0,110.0,347.5,112.5,337.5,124.5,334.5,138.5,342.0,147.0" stroke="black" stroke-width="2" fill="none" />
<polyline points="340.0,144.0,348.5,136.0,357.0,129.5,365.0,122.0,372.5,114.5,380.0,107.0" stroke="black" stroke-width="2" fill="none" />
<polyline points="383.0,108.5,391.0,112.0,399.0,111.0,407.0,110.0,415.5,108.0" stroke="black" stroke-width="2" fill="none" />
<polyline points="413.0,121.5,421.0,121.0,429.0,120.5,437.0,120.0,445.5,119.5" stroke="black" stroke-width="2" fill="none" />
<polyline points="444.0,123.0,436.0,124.0,428.0,124.0,419.5,125.0,411.5,126.0,403.5,127.0,395.0,128.0,387.0,128.5,379.0,129.5,371.5,130.0,363.5,130.5" stroke="black" stroke-width="2" fill="none" />
<polyline points="351.0,125.0,338.0,120.0,346.5,117.0,354.5,117.0,362.5,118.0,370.5,116.5,378.5,117.0,387.0,116.0,395.0,116.0,403.5,115.0,411.5,112.0,419.5,111.0,427.0,109.5,434.5,107.5" stroke="black" stroke-width="2" fill="none" />
<polyline points="434.0,112.5,426.5,115.5,418.5,116.0,410.0,117.5,402.0,119.0,394.0,120.0,385.5,120.5,377.5,122.5,369.5,123.0,362.0,123.0,354.0,125.0,346.5,127.5,339.0,128.0" stroke="black" stroke-width="2" fill="none" />
<polyline points="341.5,131.5,349.0,124.0,357.0,116.5" stroke="black" stroke-width="2" fill="none" />
<polyline points="363.0,112.5,362.5,114.5,350.5,114.5,358.5,111.5,366.5,108.0,375.0,107.0,383.0,107.5,391.0,107.5,399.0,108.0,407.5,107.0" stroke="black" stroke-width="2" fill="none" />
<polyline points="402.0,114.5,394.5,121.0,386.5,128.5,379.0,136.5,371.5,144.0,364.0,152.0" stroke="black" stroke-width="2" fill="none" />
<polyline points="354.5,153.0,362.5,145.0,370.0,137.0,377.5,129.5,385.0,122.0,393.5,114.5" stroke="black" stroke-width="2" fill="none" />
<polyline points="387.5,116.5,379.0,124.0,371.0,131.5,363.0,138.5,355.0,146.0,347.0,153.5" stroke="black" stroke-width="2" fill="none" />
<polyline points="354.5,153.5,362.5,153.0,371.0,153.0,379.5,152.5,387.5,152.0,396.0,151.0,403.5,150.5,411.5,150.0,419.5,149.5,428.0,148.5" stroke="black" stroke-width="2" fill="none" />
<polyline points="435.5,141.0,427.5,141.5,419.5,141.5,411.0,142.0,403.0,142.5,395.0,143.0,386.5,143.0,378.5,143.0,371.0,143.5,363.0,144.0,355.0,144.5,347.5,145.0" stroke="black" stroke-width="2" fill="none" />
<polyline points="348.0,145.5,356.0,138.0,364.0,130.0,372.0,122.5,380.0,114.5,388.5,106.5" stroke="black" stroke-width="2" fill="none" />
<polyline points="382.5,104.0,390.5,104.0,398.0,106.0" stroke="black" stroke-width="2" fill="none" />
<polyline points="372.5,107.5,365.0,115.0,357.0,122.5,349.0,130.0,341.0,137.0" stroke="black" stroke-width="2" fill="none" />
<polyline points="339.5,137.5,347.5,137.0,355.5,136.0,363.5,135.5,371.0,135.0,378.5,135.0,387.0,134.5,395.0,135.0,403.0,134.5,411.0,134.5,419.0,134.5,426.5,133.5,434.5,132.5" stroke="black" stroke-width="2" fill="none" />
<polyline points="443.0,135.0,434.5,136.0,427.0,136.5,419.0,137.5,411.0,137.5,403.0,138.0,395.0,138.0,386.5,138.5,378.5,139.0,370.5,139.5,362.5,140.0,354.5,140.5,346.5,141.0,338.5,141.5" stroke="black" stroke-width="2" fill="none" />
<polyline points="334.0,131.0,341.5,123.0,349.5,115.0" stroke="black" stroke-width="2" fill="none" />
<polyline points="349.0,106.5,340.5,114.0,333.0,122.0" stroke="black" stroke-width="2" fill="none" />
<polyline points="330.0,125.0,338.5,124.5,347.0,123.5,355.0,123.0,363.5,122.5,372.0,122.0,380.0,122.0,388.5,121.5,397.0,121.0,404.5,121.5,412.5,121.0,420.5,120.5,429.5,120.5,437.5,120.0,445.0,119.0" stroke="black" stroke-width="2" fill="none" />
<polyline points="444.0,126.0,436.0,126.5,427.5,127.5,419.0,128.0,410.5,128.0,402.5,129.0,395.0,130.0,387.0,130.0,379.0,130.5,371.0,130.5,363.0,131.0,355.0,131.0,347.0,131.5,339.0,132.0,331.0,132.5" stroke="black" stroke-width="2" fill="none" />
<polyline points="323.5,123.5,315.0,131.0,307.0,138.5,299.0,145.5,291.0,152.5,283.0,160.0,274.5,167.5" stroke="black" stroke-width="2" fill="none" />
<polyline points="283.5,168.5,291.0,160.5,298.5,153.0,306.5,146.0,314.0,139.0" stroke="black" stroke-width="2" fill="none" />
<polyline points="313.5,145.5,311.5,153.5,301.5,155.0,309.5,145.0,317.0,139.5,325.5,146.5,333.0,147.5,341.0,149.5" stroke="black" stroke-width="2" fill="none" />
<polyline points="359.0,159.5,340.5,150.5,335.5,142.5,331.5,134.0,330.5,126.0,328.0,119.5,319.5,118.5" stroke="black" stroke-width="2" fill="none" />
<polyline points="315.0,121.0,307.0,122.0" stroke="black" stroke-width="2" fill="none" />
<polyline points="317.5,127.5,309.5,128.0,301.5,128.5,293.0,129.0,285.0,129.5,276.5,130.5,268.0,131.0" stroke="black" stroke-width="2" fill="none" />
<polyline points="274.5,116.0,266.5,123.5,258.5,131.0,251.0,138.5,243.0,146.5,235.0,153.5,227.0,161.0,219.5,168.0" stroke="black" stroke-width="2" fill="none" />
<polyline points="226.5,168.5,234.5,161.0,242.0,154.0,251.0,146.5,260.0,139.0,268.5,131.5,276.5,123.5,284.0,116.0" stroke="black" stroke-width="2" fill="none" />
<polyline points="291.5,115.5,283.0,123.0,274.5,131.0,266.5,138.5,258.5,146.5,250.5,154.5,242.5,161.0,234.0,168.5" stroke="black" stroke-width="2" fill="none" />
<polyline points="228.5,169.5,236.5,169.0,244.5,168.0,252.5,167.5,260.5,166.5,268.0,166.0" stroke="black" stroke-width="2" fill="none" />
<polyline points="245.5,122.0,238.0,130.0,230.0,137.5,222.0,145.0,214.0,152.0,205.5,159.5" stroke="black" stroke-width="2" fill="none" />
<polyline points="205.0,160.0,213.0,159.5,220.0,159.5,227.5,159.0,235.0,158.0,242.5,158.0,250.5,158.0,258.5,158.5,266.5,158.5,274.5,159.0,283.0,158.5,291.0,158.0" stroke="black" stroke-width="2" fill="none" />
<polyline points="298.5,146.0,290.0,146.5,282.0,147.0,273.5,147.5,266.0,148.0,258.0,149.0,250.0,150.0,242.0,151.0,234.0,151.5,226.5,152.5,219.0,153.0,211.5,153.0,204.0,153.0,196.0,153.5" stroke="black" stroke-width="2" fill="none" />
<polyline points="196.5,159.0,204.5,151.5,212.5,144.5,221.0,137.0,229.5,130.0,238.0,122.5,246.0,115.0" stroke="black" stroke-width="2" fill="none" />
<polyline points="243.0,117.5,245.0,113.0,235.0,113.0,225.0,112.5,211.5,117.5" stroke="black" stroke-width="2" fill="none" />
<polyline points="210.0,115.0,202.5,122.5,194.5,130.5,186.0,138.0" stroke="black" stroke-width="2" fill="none" />
<polyline points="183.0,132.0,187.0,140.0,189.0,148.0,195.0,156.0,204.5,164.5" stroke="black" stroke-width="2" fill="none" />
<polyline points="212.0,167.0,220.0,159.5,228.5,152.0,236.5,144.5,244.5,137.0,252.5,129.0,260.5,121.0,269.0,113.5" stroke="black" stroke-width="2" fill="none" />
<polyline points="268.5,107.5,260.5,114.5,252.0,122.0,243.5,129.0,235.5,136.5,227.5,143.5,219.0,150.5,210.0,158.0" stroke="black" stroke-width="2" fill="none" />
<polyline points="197.0,153.5,204.5,146.0,212.0,138.0,219.0,130.0,227.0,122.0" stroke="black" stroke-width="2" fill="none" />
<polyline points="221.5,126.0,213.5,133.5,205.5,140.0,197.5,147.0" stroke="black" stroke-width="2" fill="none" />
<polyline points="195.5,146.5,204.0,146.0,212.0,146.0,220.0,145.5,228.0,144.5,235.5,144.0,243.5,143.5,251.0,143.0,259.0,142.0,267.0,141.0,275.0,140.0,283.0,139.5,291.0,139.0,299.0,138.5,307.0,138.0" stroke="black" stroke-width="2" fill="none" />
<polyline points="314.0,130.0,305.5,130.5,298.0,131.5,290.0,132.0,282.0,132.5,274.0,133.0,267.0,133.5,259.5,134.5,251.5,135.0,244.0,135.5,236.0,136.0,228.0,136.0,220.0,136.0,211.5,136.0,203.0,136.5" stroke="black" stroke-width="2" fill="none" />
<polyline points="203.5,131.0,193.5,138.5" stroke="black" stroke-width="2" fill="none" />
<polyline points="186.0,145.5,194.0,138.0,202.5,130.5,210.5,123.0" stroke="black" stroke-width="2" fill="none" />
<polyline points="216.0,116.5,224.0,113.5,232.0,109.5,240.0,106.5,248.0,105.0,256.0,104.0,264.0,104.0,272.0,105.0,279.5,105.5,287.5,104.0,295.5,106.0,303.0,109.0,311.0,109.0,319.0,105.0,327.0,102.5,335.0,99.5,343.5,98.5,351.5,96.5,359.5,95.5,367.5,95.5,375.0,94.5,383.0,95.5,391.5,96.5,399.5,97.5,407.5,99.0,415.5,101.5,423.5,104.5" stroke="black" stroke-width="2" fill="none" />
<polyline points="442.5,102.5,444.5,111.0,444.0,119.0,444.0,127.5,441.0,135.5,436.0,143.5,428.5,151.5,415.5,159.5,405.5,167.5,392.5,176.0,388.0,179.0,391.0,187.0,398.0,195.0,404.0,203.0,407.0,211.5,410.0,219.5,411.0,227.5" stroke="black" stroke-width="2" fill="none" />
<polyline points="394.0,273.0,386.5,273.0,378.5,273.5,370.5,274.5,362.0,276.0,353.5,276.5,345.5,277.0,338.5,277.0,331.0,277.0,323.0,277.0,315.5,278.0,307.5,278.5,299.0,278.5,290.5,279.0,282.5,280.0,274.5,280.5,266.5,281.0,259.0,282.0,251.5,283.0,243.5,283.5,235.5,283.5,227.5,284.0,219.5,284.5,212.0,285.0,204.0,285.5,196.0,286.5,188.0,287.0,179.5,288.0,171.0,288.5,163.0,289.0,155.0,289.5,147.5,290.0,140.0,290.5,132.5,290.5,125.0,291.0,117.5,291.5,110.0,291.5,102.0,291.5,93.5,292.0,85.0,292.0,76.5,292.0" stroke="black" stroke-width="2" fill="none" />
<polyline points="78.5,291.5,85.5,283.5,93.0,276.0,101.0,268.5,109.5,261.0,117.5,253.0" stroke="black" stroke-width="2" fill="none" />
<polyline points="125.5,252.5,117.0,259.5,109.0,267.0,101.0,274.5,93.0,282.5,85.0,290.0,77.0,297.5" stroke="black" stroke-width="2" fill="none" />
<polyline points="77.5,297.5,85.0,297.0,93.5,296.5,101.5,296.5,109.5,296.5,117.5,296.5,125.5,296.0,133.0,295.0,141.0,294.5,149.0,294.5,157.5,294.5,165.5,293.5,173.5,293.5,181.5,292.5,189.0,292.0,196.5,291.5,204.5,290.5,212.5,290.0,220.5,289.0,228.0,288.5,235.5,288.0,244.0,287.5,252.0,287.0,260.0,286.5" stroke="black" stroke-width="2" fill="none" />
<polyline points="257.5,292.5,249.5,300.0,241.5,307.0,233.5,314.0,226.0,321.0,218.5,328.5,210.5,335.5" stroke="black" stroke-width="2" fill="none" />
<polyline points="227.0,336.0,235.0,329.0,243.5,321.5,252.0,314.0,260.0,306.5,268.0,299.0" stroke="black" stroke-width="2" fill="none" />
<polyline points="267.5,290.0,259.5,297.5,251.5,306.0,243.5,313.5,236.0,321.0,228.5,327.5,220.5,335.5" stroke="black" stroke-width="2" fill="none" />
<polyline points="234.0,339.0,242.0,332.0,250.0,325.0,258.0,318.0" stroke="black" stroke-width="2" fill="none" />
<polyline points="258.0,317.5,266.5,318.0,274.5,318.0,282.5,318.0,290.5,317.0,298.0,315.5,306.0,314.5" stroke="black" stroke-width="2" fill="none" />
<polyline points="307.5,321.5,316.5,313.5,324.5,306.0" stroke="black" stroke-width="2" fill="none" />
<polyline points="329.0,307.0,321.0,314.5,313.0,322.0,305.5,329.5,297.5,337.0" stroke="black" stroke-width="2" fill="none" />
<polyline points="299.5,331.5,291.5,339.0" stroke="black" stroke-width="2" fill="none" />
<polyline points="323.5,336.0,332.0,328.5,340.5,321.0,348.5,313.5,357.0,305.5,365.0,297.5,373.0,290.0" stroke="black" stroke-width="2" fill="none" />
<polyline points="370.0,290.5,378.0,291.5,386.0,294.5,394.0,297.5,402.0,302.0,410.0,305.0,418.0,307.5,423.5,307.0,426.5,315.0" stroke="black" stroke-width="2" fill="none" />
<polyline points="419.0,314.5,427.0,307.0" stroke="black" stroke-width="2" fill="none" />
<polyline points="418.5,307.0,410.5,314.5,402.5,323.0,394.5,330.5,386.5,338.5" stroke="black" stroke-width="2" fill="none" />
<polyline points="379.5,336.0,388.0,328.5,396.5,321.0,404.5,313.5,412.5,306.0" stroke="black" stroke-width="2" fill="none" />
<polyline points="411.5,298.5,403.5,306.0,395.5,313.0,387.0,320.5,378.5,328.0,371.0,335.5" stroke="black" stroke-width="2" fill="none" />
<polyline points="363.0,336.5,371.0,329.0,379.0,321.0,387.5,313.5,395.5,306.0,403.5,298.5" stroke="black" stroke-width="2" fill="none" />
<polyline points="393.5,299.0,385.5,306.5,378.0,313.5,370.5,320.5,363.0,328.0,355.0,336.0" stroke="black" stroke-width="2" fill="none" />
<polyline points="348.5,338.0,355.5,329.5,363.0,321.5,370.5,313.5,378.0,306.0,386.0,298.5" stroke="black" stroke-width="2" fill="none" />
<polyline points="387.0,296.5,378.5,298.0,370.5,299.0,362.5,299.5" stroke="black" stroke-width="2" fill="none" />
<polyline points="349.0,300.5,341.0,308.0,333.0,315.5,325.0,322.5,317.0,330.0,309.5,337.5" stroke="black" stroke-width="2" fill="none" />
<polyline points="331.5,336.0,339.0,328.0,347.5,320.5,355.0,313.0,363.0,305.5,371.5,298.0,379.5,290.5" stroke="black" stroke-width="2" fill="none" />
<polyline points="386.5,290.0,378.5,298.0,370.5,305.5,363.0,313.5,355.0,322.0,347.5,329.5,339.5,337.5" stroke="black" stroke-width="2" fill="none" />
<polyline points="347.0,335.5,355.0,335.0,363.0,335.0,371.0,335.0,378.5,334.5,386.5,334.5,394.5,334.0" stroke="black" stroke-width="2" fill="none" />
<polyline points="403.0,326.0,394.5,326.5,386.0,326.5,377.5,327.0,369.5,327.0,361.5,328.0,353.5,328.5,345.0,329.0,337.0,329.0" stroke="black" stroke-width="2" fill="none" />
<polyline points="325.5,320.5,333.0,320.0,340.5,319.5,348.0,319.0,355.5,318.5,363.5,318.0,371.0,318.0,379.0,317.5,387.0,317.0,395.0,316.0,403.0,315.5,411.0,315.0" stroke="black" stroke-width="2" fill="none" />
<polyline points="405.0,314.0,397.0,314.5,389.0,315.0,381.0,315.0,372.5,315.0,364.0,315.5,356.0,316.0,348.0,316.5,340.5,317.0,333.0,317.5,324.5,317.5,316.5,317.5,308.5,318.5,301.0,319.0,293.0,320.0,285.0,320.0,276.5,320.5,268.5,321.0,260.5,321.5,252.5,321.5,244.5,321.5,236.5,322.0,228.5,323.0,220.0,324.0,212.0,325.0,203.5,326.5,195.0,327.5,187.0,328.0,179.0,328.0,171.0,328.0,163.0,329.0,155.5,329.5,147.5,329.5,139.5,330.0,131.0,330.5,123.0,331.0,114.5,331.5,106.5,332.0,98.5,332.5,90.5,332.5,82.5,332.5,75.0,333.0" stroke="black" stroke-width="2" fill="none" />
<polyline points="74.5,334.0,82.5,326.0,90.5,318.0,98.5,311.0,106.5,304.0,114.5,296.5,122.5,290.0,130.5,283.5,138.5,276.5,147.0,269.5" stroke="black" stroke-width="2" fill="none" />
<polyline points="155.5,268.5,147.5,276.0,139.5,283.5,131.5,291.5,123.5,299.0,115.0,306.0,107.0,314.0,99.0,321.5,90.5,329.0,82.0,337.0" stroke="black" stroke-width="2" fill="none" />
<polyline points="77.0,330.5,85.0,330.0,93.0,329.5,100.5,329.0,108.0,328.0,116.0,327.0,124.0,327.0,132.5,327.0,140.5,327.0,148.5,327.0,157.0,326.5,164.5,326.0,172.0,325.5,180.0,325.0,188.5,324.0,196.5,323.5,205.0,322.5,213.0,321.5,221.0,320.5,229.5,319.5,237.5,319.0,245.5,318.5,253.5,318.5" stroke="black" stroke-width="2" fill="none" />
<polyline points="253.0,312.5,245.5,313.0,237.5,313.0,229.5,314.0,221.0,314.5,213.0,314.5,204.5,314.0,196.5,314.5,188.5,314.5,180.5,315.0,173.0,315.0,166.0,315.0,158.5,315.0,150.0,316.0,142.0,317.0,134.0,317.5,126.0,318.5,118.0,319.5,109.5,320.5,101.0,321.0,92.5,322.0,84.5,322.5,76.0,323.0" stroke="black" stroke-width="2" fill="none" />
<polyline points="77.5,325.5,85.5,325.0,93.5,325.5,101.0,325.0,108.5,324.5,116.5,324.5,124.5,324.0,132.5,323.5,140.5,323.0,148.0,322.5,156.0,322.0,164.5,321.5,173.0,320.5,181.0,320.0,189.5,319.5,197.5,319.0,205.5,318.5,213.0,318.0,221.0,317.5,229.0,317.0,237.5,316.5,245.0,315.5,253.0,315.0,261.0,314.5,269.0,314.5,277.0,314.0,285.0,313.5,292.5,313.5,300.0,313.0,308.0,312.5,316.0,311.5,323.5,311.5,331.5,310.5,339.5,309.5,348.5,308.5,356.5,307.5,364.5,307.0,372.5,307.0,380.5,307.0,389.5,306.0,397.5,305.0,405.5,305.0,414.0,305.0" stroke="black" stroke-width="2" fill="none" />
<polyline points="404.5,302.5,396.5,303.5,388.0,304.0,379.5,304.0,371.5,303.5,363.0,303.0,354.5,303.0,346.0,303.5" stroke="black" stroke-width="2" fill="none" />
<polyline points="325.0,313.5,333.0,312.5,340.5,312.0,347.5,311.0,355.0,310.0,362.5,309.5,370.0,309.5,378.5,309.0,386.5,308.5,394.5,307.5,402.0,306.5,410.0,306.5,417.5,306.5" stroke="black" stroke-width="2" fill="none" />
<polyline points="418.0,294.0,410.0,294.5,403.0,294.5,395.0,295.5,387.0,296.0,379.0,296.5,371.5,297.5,364.0,298.5,356.0,299.5,348.0,300.0,340.0,300.5,332.0,301.5,324.0,302.5,316.0,303.0,307.5,303.5,299.0,304.0,291.0,304.5,283.0,305.5,275.0,306.0,266.5,307.0,258.5,307.5,250.5,307.5,242.5,308.0,235.0,308.5,227.0,308.5,219.5,309.0,211.5,309.0,204.0,308.5,196.0,309.0,188.5,309.5,180.5,310.5,172.5,311.0,164.5,312.0,156.5,312.5,148.5,312.5,140.5,313.0,133.0,313.0,125.5,313.5,118.0,314.5,109.5,315.0,100.5,315.5,92.0,316.5,84.0,317.5,76.0,318.0" stroke="black" stroke-width="2" fill="none" />
<polyline points="77.5,318.5,84.5,311.0,92.0,304.0,99.5,296.5,107.5,289.0,115.5,281.0,123.5,273.0,131.0,266.0,139.0,258.5" stroke="black" stroke-width="2" fill="none" />
<polyline points="132.0,259.0,124.0,266.0,116.5,273.5,109.0,281.0,101.0,289.5,93.0,297.0,85.0,304.5,77.0,312.0" stroke="black" stroke-width="2" fill="none" />
<polyline points="77.0,311.5,85.0,311.5,93.0,311.0,101.0,310.5,108.5,310.5,116.0,310.0,124.0,309.5,132.0,309.0,140.0,308.5,148.5,307.5,157.0,307.0,165.0,306.5,172.0,306.5,179.5,306.0,187.0,305.0,194.5,305.0,202.5,305.0,210.5,305.5,218.5,305.5,226.5,306.0,235.0,305.5,243.0,305.0,250.5,303.5,258.5,302.5" stroke="black" stroke-width="2" fill="none" />
<polyline points="250.5,291.0,243.5,298.5,236.0,305.5,228.0,312.5,220.0,320.0,211.5,328.0,203.5,335.5" stroke="black" stroke-width="2" fill="none" />
<polyline points="242.5,338.0,251.0,330.5" stroke="black" stroke-width="2" fill="none" />
<polyline points="259.0,334.0,251.0,341.5" stroke="black" stroke-width="2" fill="none" />
<polyline points="244.0,326.0,236.0,327.0,227.5,327.5,219.0,328.0,211.0,329.0,203.0,330.0,194.5,331.0,186.5,331.5,178.0,332.0,170.0,332.5,162.0,333.5,154.5,334.0,146.5,334.0,138.5,334.5,130.5,335.0,122.5,335.5,114.5,336.5,106.0,336.5,97.5,337.0,89.5,337.5,81.5,339.0,73.5,339.5" stroke="black" stroke-width="2" fill="none" />
<polyline points="101.0,334.0,109.0,327.0,116.5,320.0,124.5,312.5,132.0,304.5,139.5,297.0,147.5,289.5,156.5,282.5,165.0,275.5" stroke="black" stroke-width="2" fill="none" />
<polyline points="173.0,275.0,165.0,282.5,156.5,290.5,148.5,298.0,140.0,305.5,132.0,313.0,124.0,321.0,116.0,328.5,107.5,336.0" stroke="black" stroke-width="2" fill="none" />
<polyline points="147.0,335.0,155.0,328.0,163.0,321.0,170.5,313.5,178.5,306.5,186.5,299.5,194.5,292.0,202.5,284.5" stroke="black" stroke-width="2" fill="none" />
<polyline points="202.5,275.0,194.5,282.5,186.5,290.0,179.0,297.5,171.5,305.5,164.0,313.0,156.0,320.5,147.5,328.0,139.5,335.5" stroke="black" stroke-width="2" fill="none" />
<polyline points="196.5,335.5,205.0,328.0,213.0,320.5,221.5,313.5,229.5,306.5,238.0,299.0,245.5,291.5" stroke="black" stroke-width="2" fill="none" />
<polyline points="236.5,290.5,228.5,298.0,220.0,306.0,212.0,313.0,204.5,320.0,196.5,327.5,188.0,335.0" stroke="black" stroke-width="2" fill="none" />
<polyline points="182.0,335.0,189.5,327.5,197.5,319.5,205.5,312.5,213.5,305.5,221.0,298.5,228.5,291.5,236.5,284.5" stroke="black" stroke-width="2" fill="none" />
<polyline points="228.5,282.5,220.5,290.5,213.0,298.5,204.5,306.0,196.0,313.5,188.0,321.0,180.0,328.5,172.5,336.0" stroke="black" stroke-width="2" fill="none" />
<polyline points="164.5,336.0,172.5,328.0,180.5,320.5,188.5,313.5,195.5,306.5,203.5,299.5,211.5,292.5,220.0,284.5" stroke="black" stroke-width="2" fill="none" />
<polyline points="212.0,284.0,204.0,291.5,196.0,298.5,188.0,305.5,180.0,313.0,172.0,320.5,164.0,327.5,155.5,334.5" stroke="black" stroke-width="2" fill="none" />
<polyline points="130.5,334.5,138.5,327.5,146.0,321.0,153.5,313.5,161.5,306.0,170.5,298.0,179.0,290.0,187.0,282.0,195.5,275.0" stroke="black" stroke-width="2" fill="none" />
<polyline points="187.5,276.0,179.5,284.0,172.0,291.5,164.0,299.0,156.0,306.0,147.5,313.0,139.5,320.0,131.0,327.0,122.5,334.0" stroke="black" stroke-width="2" fill="none" />
<polyline points="115.0,336.0,123.0,328.5,131.5,321.0,139.5,313.0,148.0,305.0,156.0,297.5,164.0,289.5,172.5,282.0,181.0,275.0" stroke="black" stroke-width="2" fill="none" />
<polyline points="163.0,267.5,155.0,275.5,147.5,282.5,139.5,290.0,132.0,298.0,124.5,305.5,116.5,312.5,108.5,320.0,100.5,327.5,92.5,335.0" stroke="black" stroke-width="2" fill="none" />
<polyline points="75.0,326.5,83.5,318.5,92.0,311.0,100.0,303.5,108.5,296.5,116.0,289.0,124.0,281.5,131.5,274.5,139.0,267.0,146.5,259.0" stroke="black" stroke-width="2" fill="none" />
<polyline points="132.5,250.0,124.5,257.5,116.5,265.5,108.5,273.5,100.5,281.0,92.5,288.5,85.0,296.0,77.0,304.0" stroke="black" stroke-width="2" fill="none" />
<polyline points="75.5,301.5,83.5,301.0,91.5,300.0,99.5,299.5,107.5,299.0,115.5,298.5,123.5,298.5,131.5,298.5,139.5,298.0,147.5,298.0,155.5,297.5,164.0,297.0,172.0,297.0,180.0,296.5,188.0,295.5,195.5,295.0,203.5,294.5,211.0,294.0,219.0,293.0,227.0,292.0,235.0,291.0,243.0,290.5,251.0,290.0,259.0,289.5,267.0,289.0,274.5,289.0,282.5,288.0,290.0,287.5,298.0,286.5,306.5,286.5,314.5,286.0,322.5,285.5,330.5,285.0,339.0,284.5,347.5,284.5,356.0,284.0,364.0,283.5,371.5,283.0,379.5,282.5,387.0,282.0,395.5,281.5,403.0,281.0,411.0,280.5,419.0,279.5" stroke="black" stroke-width="2" fill="none" />
<polyline points="426.0,286.5,418.5,287.5,410.5,288.0,402.0,287.5,394.0,288.0,385.5,289.0,378.0,289.5,370.0,290.5,362.0,291.5,354.0,292.5,345.5,292.5,338.0,293.0,330.5,293.5,322.5,293.5,314.0,294.0,306.5,295.0,298.0,295.5,290.0,296.0,282.0,296.0,274.0,297.0,266.0,297.0,257.5,297.5,250.0,298.5,242.0,299.0,234.0,299.5,226.0,300.0,219.0,300.5,211.5,301.5,203.5,302.0,196.0,302.5,188.0,303.0,180.0,303.0,172.0,303.0,163.5,303.0,155.0,303.5,147.5,303.5,140.0,304.5,132.0,305.0,124.0,305.0,116.0,305.0,108.0,306.0,100.0,306.5,92.0,307.0,84.5,308.5,76.5,309.0" stroke="black" stroke-width="2" fill="none" />
<polyline points="74.0,305.5,82.0,305.0,90.5,304.5,98.5,304.0,106.5,303.0,114.5,302.5,122.5,302.0,131.5,302.0,139.5,301.5,148.0,301.0,156.0,300.5,164.0,300.0,171.5,300.0,179.0,300.0,186.5,299.5,194.0,298.5,202.0,298.0,210.0,297.0,218.0,296.0,226.0,295.0,233.5,294.5,242.0,294.0,250.0,293.5,258.5,293.0" stroke="black" stroke-width="2" fill="none" />
<polyline points="258.5,322.5,266.5,321.0,274.5,321.0,282.5,321.0,290.0,320.0,297.5,320.0" stroke="black" stroke-width="2" fill="none" />
<polyline points="314.5,335.5,323.0,328.0,331.5,320.0,340.0,312.5,348.0,305.5,356.5,298.5,365.0,291.0,373.0,284.0" stroke="black" stroke-width="2" fill="none" />
<polyline points="369.0,279.5,361.0,279.5,353.0,280.0,345.5,280.0,337.5,278.5,329.5,277.5,321.5,277.5,313.5,277.5,305.0,276.5,297.0,276.5,289.0,276.0,281.0,275.5,273.0,274.5,265.0,273.5,257.0,272.0,249.0,271.0,241.0,269.0,233.0,268.0,224.5,266.0,216.5,264.0,208.5,261.0,200.5,258.0,192.5,254.0,185.0,249.0,177.0,242.0,169.0,224.0" stroke="black" stroke-width="2" fill="none" />
<polyline points="169.5,219.0,177.0,209.5,185.5,208.0,193.5,209.0,201.5,212.5,209.5,218.5,217.5,224.5,225.0,229.5,233.0,232.5,241.5,235.5,249.5,237.5,257.5,238.0,265.5,239.0,273.5,240.5,282.0,241.0,290.5,242.0,298.5,242.5,306.5,243.5,314.5,244.0,323.0,245.0,331.0,244.5,339.0,244.5,346.5,244.5,354.0,245.0,361.5,244.0,369.5,242.0,377.5,241.0,386.0,239.5,394.0,237.5,402.0,233.5,410.5,230.5,418.5,232.5,422.5,237.0,418.0,245.0,407.0,252.5,403.0,261.5,402.0,269.5" stroke="black" stroke-width="2" fill="none" />
<polyline points="380.0,265.5,372.0,266.0,364.0,266.5,356.0,266.5,348.5,267.0,340.5,268.0,332.0,268.5,323.5,269.0,315.5,270.0,308.0,270.5,300.0,270.5,292.0,271.0,284.0,271.5,275.5,272.0,267.5,273.0,259.5,274.0,251.5,274.5,243.5,275.0,236.0,275.5,228.0,275.5,220.5,276.0,212.5,276.5,205.0,277.0,197.5,277.5,189.0,278.0,181.0,278.5,173.0,278.5,164.5,279.0,156.5,279.5,148.5,280.0,140.5,281.0,132.0,282.0,123.5,282.5,115.0,283.5,107.5,284.0,100.0,284.5,92.0,284.5,84.5,284.5,76.5,285.0" stroke="black" stroke-width="2" fill="none" />
<polyline points="76.0,283.0,84.0,282.5,92.0,281.5,100.0,281.0,108.5,280.0,116.5,279.0,124.5,278.0,132.0,278.0,140.5,277.5,148.5,277.0,156.0,276.0,164.5,275.5,172.5,274.5,180.5,274.0" stroke="black" stroke-width="2" fill="none" />
<polyline points="219.5,280.5,211.5,281.0,203.5,282.0,195.0,282.5,187.0,283.0,179.5,283.0,171.5,283.0,163.5,284.0,155.5,284.0,148.0,284.5,140.0,285.0,132.0,285.0,124.0,286.0,115.5,286.5,107.5,286.5,99.5,287.0,91.5,287.0,84.0,287.0,76.0,287.0" stroke="black" stroke-width="2" fill="none" />
<polyline points="75.0,282.0,82.5,275.0,90.5,267.5,98.5,259.5,106.5,252.0,115.0,244.5" stroke="black" stroke-width="2" fill="none" />
<polyline points="106.0,243.5,98.0,251.0,90.0,258.5,81.5,265.5,74.0,273.0" stroke="black" stroke-width="2" fill="none" />
<polyline points="76.5,269.5,85.0,268.5,93.0,267.5,100.5,266.5,108.0,266.0,116.0,266.0,123.0,265.5,130.5,265.5,138.5,265.0,146.5,265.0,154.0,264.5,162.5,264.0,170.5,263.0,179.0,263.0,187.0,262.5,195.0,262.5,203.5,262.0,211.0,261.5,219.5,261.5,227.0,262.0,235.0,261.5,243.5,261.0,252.0,259.5,260.0,258.5,268.0,257.5,276.5,256.5,284.5,255.5,292.5,255.5,300.5,255.0,308.5,254.5,317.0,254.0,325.0,253.5,332.5,253.5,340.5,253.0,348.0,252.5,356.0,252.0,364.0,252.0,372.0,251.5,379.5,251.0,387.0,251.0,394.5,250.0,402.5,249.5" stroke="black" stroke-width="2" fill="none" />
<polyline points="379.0,259.0,371.0,259.5,363.5,260.0,355.5,260.0,348.0,260.0,340.0,260.5,332.0,260.5,324.5,261.0,317.0,262.0,309.0,262.5,301.5,263.0,293.5,263.5,285.5,264.0,277.5,264.5,269.5,265.5,261.0,266.0,253.0,266.5,245.0,267.0,237.0,267.5,229.0,268.0,220.5,268.5,212.0,269.0,203.5,269.5,195.5,270.0,187.0,270.0,179.0,270.5,171.5,270.5,164.0,271.0,156.5,271.5,148.0,272.0,140.0,272.0,132.0,272.5,124.0,273.0,116.5,274.0,108.5,275.5,101.0,277.0,93.0,278.0,84.5,278.5,77.0,279.0" stroke="black" stroke-width="2" fill="none" />
<polyline points="77.5,276.0,85.0,275.5,92.5,275.0,100.0,274.5,108.0,274.0,115.5,273.0,123.0,272.0,131.0,270.5,139.0,269.5,147.0,269.0,155.5,268.5" stroke="black" stroke-width="2" fill="none" />
<polyline points="139.0,262.0,131.5,262.5,124.0,262.5,116.5,262.5,108.5,262.5,101.0,263.0,93.0,263.0,85.0,263.0,77.5,263.0" stroke="black" stroke-width="2" fill="none" />
<polyline points="74.5,264.0,82.5,257.0,90.0,249.5,98.0,242.0,105.5,234.5" stroke="black" stroke-width="2" fill="none" />
<polyline points="99.0,235.0,91.0,242.5,83.0,250.0,75.0,257.5" stroke="black" stroke-width="2" fill="none" />
<polyline points="77.0,257.0,85.0,256.5,92.5,255.5,100.5,255.0,108.0,255.0,115.5,255.0,124.0,254.5" stroke="black" stroke-width="2" fill="none" />
<polyline points="99.5,228.0,92.0,235.5,84.0,243.0,76.0,250.5" stroke="black" stroke-width="2" fill="none" />
<polyline points="75.0,250.5,83.0,250.0,90.5,249.0,99.0,248.5,107.0,247.5" stroke="black" stroke-width="2" fill="none" />
<polyline points="91.5,227.5,83.5,235.5,75.5,243.0" stroke="black" stroke-width="2" fill="none" />
<polyline points="75.0,242.0,83.5,241.0,91.5,240.5,100.0,239.5" stroke="black" stroke-width="2" fill="none" />
<polyline points="84.0,227.0,76.0,235.0" stroke="black" stroke-width="2" fill="none" />
<polyline points="77.5,236.5,85.5,236.0,92.5,236.0,100.5,236.0,108.0,235.0,116.0,234.0,123.5,233.5,131.5,232.5,139.5,231.5,147.0,230.5,155.0,230.5,163.0,230.0,171.0,229.5,178.5,229.5,187.0,229.5,194.5,229.0,202.5,229.0,210.5,229.0,218.5,228.5,226.5,228.0,234.5,227.5,242.5,227.0,250.5,226.5,258.5,226.0,266.5,225.5,274.5,225.0,282.5,224.5,291.0,224.0,299.0,224.0,307.0,223.5,315.0,223.5,323.0,222.5,330.5,222.0,339.0,221.0,347.0,220.5,355.0,220.0,363.0,219.0,371.0,218.5,379.0,217.5,387.0,217.5,395.5,217.0,403.0,216.5,410.5,216.0,418.5,215.5" stroke="black" stroke-width="2" fill="none" />
<polyline points="411.5,240.0,403.5,239.5,395.5,240.0,387.5,241.0,379.0,241.5,370.5,242.5,363.0,243.0,355.0,243.5,347.0,244.0,339.5,244.5,332.0,245.0,324.0,245.0,316.0,245.0,308.0,246.0,300.0,246.0,291.5,247.0,283.5,248.0,275.5,249.0,267.0,250.0,259.0,250.5,251.0,251.5,243.5,252.0,235.5,252.5,227.5,253.5,219.0,254.0,211.0,254.5,202.5,255.0,194.5,255.5,186.5,256.0,179.0,256.5,171.0,257.0,163.5,257.0,155.5,257.5,147.5,257.5,140.0,258.0,132.5,258.0,125.0,257.5,117.0,257.5,109.0,258.0,100.5,258.0,92.5,258.0,85.0,258.5,77.0,259.0" stroke="black" stroke-width="2" fill="none" />
<polyline points="75.0,254.0,83.0,254.0,91.0,253.0,99.0,252.5,107.0,252.0,115.0,251.5,123.0,251.0,131.0,250.0,139.5,249.0,148.0,248.5,156.5,248.0,164.0,247.5,171.5,247.0,179.5,246.5,187.0,246.5,195.0,246.0,203.0,245.5,211.0,245.0,219.0,243.5,227.0,242.5,235.0,241.5,243.0,241.0,251.0,241.0,259.0,241.0,266.5,240.5,274.5,240.5,282.5,240.0,290.5,240.0,298.5,240.0,307.0,239.5,315.0,238.5,323.0,238.5,331.5,237.5,339.5,237.0,348.0,237.0,356.5,236.5,364.5,235.5,372.5,235.0,380.5,234.5,388.5,234.0,396.5,233.5,404.5,232.5,412.0,232.0" stroke="black" stroke-width="2" fill="none" />
<polyline points="418.0,225.0,410.0,226.0,402.0,227.0,394.0,228.0,386.0,228.0,378.5,228.0,371.0,228.5,363.0,229.0,355.0,229.0,347.5,230.0,339.5,230.5,331.5,230.5,323.5,231.0,315.5,231.5,307.5,231.5,299.0,232.0,291.0,232.5,283.0,233.0,274.5,233.0,266.5,233.0,259.0,233.5,251.0,234.0,243.0,234.5,235.5,235.0,227.0,235.5,219.0,235.5,211.0,236.0,202.0,235.5,194.0,236.0,186.5,236.5,179.0,237.0,171.5,237.5,163.5,238.0,155.5,238.0,147.5,238.5,140.0,239.5,132.0,240.5,124.5,242.0,116.5,243.0,108.0,243.5,100.0,244.0,92.0,244.5,83.5,245.5,75.5,246.5" stroke="black" stroke-width="2" fill="none" />
<polyline points="78.5,233.5,86.5,233.0,94.0,232.0" stroke="black" stroke-width="2" fill="none" />
<polyline points="84.0,219.5,75.5,227.0" stroke="black" stroke-width="2" fill="none" />
<polyline points="75.5,229.0,84.0,228.5,92.5,227.5,101.0,227.0,109.0,227.0,116.5,226.5,125.0,226.5,133.0,226.0,141.0,225.5,149.0,225.0,157.0,225.0,164.5,224.5,172.0,223.5,179.5,223.0,187.0,222.5,194.5,222.0,202.5,221.5,210.5,221.0,218.5,220.0,227.0,219.5,235.0,218.5,243.0,218.0,251.0,217.5,259.0,217.0,267.0,217.0,275.0,216.5,283.0,216.5,291.0,216.0,299.0,216.0,306.5,215.0,314.5,214.0,323.0,214.0,331.5,213.5,340.0,212.5,348.0,212.0,356.5,211.5,364.0,210.5,372.0,210.0,379.5,209.5,387.0,209.5,394.5,209.0,403.5,208.5,412.0,207.5,420.0,206.5" stroke="black" stroke-width="2" fill="none" />
<polyline points="422.0,199.0,414.0,199.5,406.0,200.0,397.5,200.0,390.0,200.5,381.5,201.5,372.5,202.0,364.0,203.0,355.5,203.5,347.5,204.0,339.5,204.0,331.5,204.0,323.0,205.0,315.0,205.5,307.0,206.0,299.0,207.0,291.0,207.5,283.0,208.0,275.5,208.0,267.5,208.5,260.0,209.0,252.5,209.5,245.0,210.0,237.5,210.5,229.0,211.0,221.0,211.5,213.0,212.0,204.5,212.5,196.5,213.0,188.5,214.0,180.5,215.5,172.0,216.5,163.0,217.0,155.0,217.5,147.0,218.0,139.5,218.5,131.5,218.5,123.5,218.5,115.5,219.0,107.0,219.5,99.5,220.0,91.5,220.5,83.5,220.5,76.0,220.5" stroke="black" stroke-width="2" fill="none" />
<polyline points="76.5,224.5,84.0,224.5" stroke="black" stroke-width="2" fill="none" />
<polyline points="74.0,215.5,82.0,215.0,89.5,214.5,97.0,213.5,105.0,212.5,113.0,211.5,121.5,210.5,129.5,210.0,138.0,209.0,146.5,208.5,154.5,208.0,163.0,207.5,171.0,207.5,179.5,207.5,188.0,207.0,196.0,206.5,204.5,205.5,213.0,204.5,221.5,204.0,229.5,204.0,237.0,203.5,245.0,202.5,252.5,202.0,259.5,201.0,267.0,200.0,274.5,199.5,282.0,199.5,290.5,199.0,298.5,198.5,306.5,197.5,314.0,196.5,322.0,196.5,329.5,196.5,337.5,196.5,346.0,196.0,355.0,195.5,364.0,195.5,373.0,195.0,381.5,194.5,390.0,193.5,398.0,193.0,406.0,192.5,413.5,192.0" stroke="black" stroke-width="2" fill="none" />
<polyline points="412.0,184.0,404.5,184.0,396.5,184.5,388.5,185.0,380.0,185.0,372.0,185.5,364.5,186.0,356.0,186.5,348.0,187.0,340.0,187.5,331.5,188.0,323.5,188.5,315.5,189.0,307.5,190.0,299.0,190.5,291.0,191.0,283.5,191.5,276.0,192.5,268.0,193.0,259.5,194.0,251.5,194.5,243.0,195.0,235.0,196.0,227.0,196.5,218.5,196.5,211.0,197.0,203.5,197.5,196.0,198.5,187.5,198.5,179.0,198.0,170.5,198.5,162.5,199.0,154.5,199.0,146.5,200.5,138.5,201.5,130.5,202.5,122.5,203.0,115.0,203.5,107.0,204.5,99.0,205.0,91.5,205.5,83.5,205.5,75.5,205.5" stroke="black" stroke-width="2" fill="none" />
<polyline points="77.0,199.5,85.0,199.0,92.5,198.5,100.5,198.0,108.5,197.5,116.0,197.0,123.0,196.0,130.5,195.5,138.0,195.5,145.5,195.0,153.5,194.5,161.5,194.0,169.5,192.5,177.5,192.0,186.0,191.5,194.5,191.5,202.5,190.5,210.5,190.0,218.5,189.5,226.5,189.0,234.5,189.0,242.0,188.5,250.0,187.5,258.0,187.0,266.5,186.5,274.5,186.0,283.0,185.0,291.0,184.0,299.0,183.0,307.5,182.5,316.0,182.0,324.0,181.0,332.5,180.5,341.0,180.0,349.0,180.5,357.0,180.0,365.0,179.5,373.0,179.0,380.5,179.0,388.5,178.5,396.5,178.5,404.5,177.5,413.0,176.5" stroke="black" stroke-width="2" fill="none" />
<polyline points="390.0,179.5,398.0,187.5,406.0,196.5,413.5,215.5" stroke="black" stroke-width="2" fill="none" />
<polyline points="402.5,198.5,395.0,190.0,387.0,182.0" stroke="black" stroke-width="2" fill="none" />
<polyline points="421.0,136.0,412.5,136.5,404.0,137.0,396.5,137.0,389.0,137.5,381.5,138.0,373.5,138.0,365.5,138.5,358.0,139.0,350.0,140.0,342.0,140.5,334.0,141.0,325.5,141.0,318.0,141.5,309.5,142.5,300.5,143.0,292.0,144.0,283.5,144.5,275.5,145.0,267.5,145.0,259.5,145.0,251.0,146.0,243.0,146.5,235.0,147.0,227.0,148.0,219.0,148.5,211.0,149.0,203.5,149.0,195.5,149.5,188.0,150.0,180.5,150.5,173.0,151.0,165.5,151.5,157.0,152.0,149.0,152.5,141.0,153.0,132.5,153.5,124.5,154.0,116.5,155.0,108.5,156.5,100.0,157.5,91.0,158.0,83.0,158.5" stroke="black" stroke-width="2" fill="none" />
<polyline points="76.0,158.0,84.0,141.5,92.5,125.5,100.5,112.5" stroke="black" stroke-width="2" fill="none" />
<polyline points="99.5,114.5,107.5,114.0,116.0,114.0,124.0,114.0,132.0,113.0,139.0,113.0,147.0,112.5,154.5,112.5,161.5,112.5,169.0,112.5,177.0,112.0,185.0,112.0,193.5,111.5,201.5,111.0,209.5,110.0,217.5,110.0,226.0,109.5,234.5,109.5,243.0,109.0,251.5,108.0,259.5,107.0,267.5,107.0,275.5,107.0,283.0,107.0,291.0,106.5,298.5,106.5,306.5,106.0,314.0,105.5,321.5,105.0,329.5,104.0,337.5,103.5,345.5,103.0,353.5,102.0,361.5,101.0,370.0,100.0,378.5,99.5,386.5,98.5,394.0,98.0,402.0,97.5,410.0,97.0,418.0,96.5,426.0,96.0,434.5,95.5,443.0,95.5" stroke="black" stroke-width="2" fill="none" />
<polyline points="379.5,115.0,371.0,115.5" stroke="black" stroke-width="2" fill="none" />
<polyline points="335.5,93.5,321.0,106.0,329.0,105.0,337.0,102.5,344.5,101.5,352.5,100.0,360.5,99.0,368.0,98.5,376.0,99.5,383.5,99.0,391.5,100.0,399.0,101.5,407.5,104.0,415.5,107.0" stroke="black" stroke-width="2" fill="none" />
<polyline points="444.5,99.5,437.0,100.0,429.0,101.0,421.0,101.0,412.5,101.5,404.5,102.0,396.5,102.5,388.5,102.5,380.5,102.5,372.5,103.0,364.5,104.0,356.0,105.0,348.0,106.0,339.5,107.5,331.0,108.5,323.0,109.0,315.0,109.0,307.0,109.0,299.0,110.0,291.5,110.5" stroke="black" stroke-width="2" fill="none" />
<polyline points="295.5,109.0,287.0,108.0,277.0,102.0,269.0,101.5,261.0,101.5,253.0,101.5,245.0,103.0,237.0,104.0,229.0,107.0,221.0,111.0" stroke="black" stroke-width="2" fill="none" />
<polyline points="238.5,108.0,246.0,108.0,253.0,108.0,260.5,108.0,268.5,107.5" stroke="black" stroke-width="2" fill="none" />
<polyline points="259.5,107.0,251.0,114.5" stroke="black" stroke-width="2" fill="none" />
<polyline points="239.5,103.0,225.5,106.0,210.5,114.0,208.5,115.5,216.0,111.5,224.0,107.5,232.0,102.0,240.5,100.0,248.5,98.0,256.5,96.5,265.0,96.5,273.0,96.5,281.0,97.5,289.0,98.5,297.0,102.0,305.0,104.0,313.0,104.0,321.0,100.0,328.5,96.5,336.5,95.0,344.5,93.0,352.0,92.0,360.0,91.0,368.0,90.0,376.0,90.5,384.0,90.5,392.5,91.5,400.5,92.5,408.5,94.5,416.5,96.5,424.0,102.5" stroke="black" stroke-width="2" fill="none" />
<polyline points="372.0,34.0,363.5,35.0,355.5,35.5,348.0,36.0,340.5,36.0,333.0,36.0,325.0,36.5,317.5,37.5,309.5,37.5,302.0,37.5,293.5,37.5,285.5,38.5,277.5,39.0,269.5,39.5,261.0,40.0,253.0,40.5,245.0,41.0,237.0,42.0,229.0,42.0,220.5,42.5,212.5,42.5,204.5,43.0,196.5,43.5,188.0,43.5,180.0,44.0,171.5,44.0,163.5,44.5,155.5,45.5" stroke="black" stroke-width="2" fill="none" />
<polyline points="164.0,37.0,172.5,36.5,180.5,35.5,188.5,35.0,196.5,35.5,204.5,35.0,212.0,34.5,219.5,33.5,227.0,33.0,235.0,32.0,243.0,31.5,251.0,31.5,260.0,31.0,268.5,30.5,276.5,29.5" stroke="black" stroke-width="2" fill="none" />
<polyline points="260.0,24.0,252.0,24.5,243.5,25.5,235.5,26.0,227.5,27.0,219.0,27.5,211.0,28.0,203.5,28.0,195.5,28.0,187.5,29.0,179.5,29.0" stroke="black" stroke-width="2" fill="none" />
<polyline points="197.5,23.5,205.5,22.5,213.5,22.5,221.5,21.5,229.0,21.0,236.5,20.5" stroke="black" stroke-width="2" fill="none" />
<polyline points="241.0,25.0,258.5,33.0,270.5,41.0,277.0,49.0,280.5,57.0,283.5,65.5,288.5,73.0,293.0,80.5,304.0,89.5,312.5,97.5,314.0,106.5,318.5,110.0,326.5,110.0,334.5,109.5,342.5,110.5,350.5,106.5,358.5,103.5,367.0,102.5" stroke="black" stroke-width="2" fill="none" />
<polyline points="402.0,62.0,394.0,63.0,386.5,63.5,379.0,64.5,371.0,65.0,363.5,65.5,355.5,66.0,347.5,66.0,340.0,66.5,332.0,67.5,324.5,67.5,316.0,67.5,308.0,67.5,300.0,68.5,291.5,69.0,284.0,69.5,276.5,69.5,268.5,69.5,260.5,70.5,252.0,71.0,243.5,71.0,235.5,70.5,227.0,70.0,218.5,70.0,210.0,70.5,202.5,71.0,194.5,72.0,187.0,73.0,179.5,73.5,171.5,73.5,163.0,75.0,154.5,75.5,146.0,76.0,138.5,76.5,130.0,77.0" stroke="black" stroke-width="2" fill="none" />
<polyline points="132.5,85.0,140.0,84.5,147.5,84.0,155.5,83.5,163.0,83.5,171.0,83.0,179.0,82.5,187.0,82.0,195.0,80.5,203.0,79.5,211.0,78.5,219.0,78.0,227.0,78.0,235.0,78.0,242.5,77.5,250.5,77.5,258.5,77.0,266.5,77.0,274.5,77.0,283.0,76.5,291.0,75.5,299.0,75.5,307.5,74.5,315.5,74.0,324.0,74.0,332.5,73.5,340.5,72.5,348.5,72.0,356.5,71.5,364.5,71.0,372.5,70.5,380.5,69.5,388.0,69.0,395.5,68.0,403.5,67.5,411.5,66.5" stroke="black" stroke-width="2" fill="none" />
<polyline points="379.0,48.0,371.5,48.0,364.0,48.5,356.0,49.0,348.0,49.0,340.0,49.5,332.5,50.0,324.5,50.5,317.0,50.5,309.0,51.0,300.5,51.5,292.5,52.0,284.5,52.5,276.5,52.5,268.5,53.5,260.0,54.5,252.0,55.5,244.0,56.5,235.5,58.0,227.0,58.5,219.0,59.0,211.5,58.5,203.0,58.5,195.5,59.0,187.0,59.5,179.0,59.5,171.0,60.0,162.5,60.0,154.5,61.0,146.0,61.5" stroke="black" stroke-width="2" fill="none" />
<polyline points="146.5,53.5,154.0,53.5,162.5,53.5,170.5,53.5,179.0,53.5,187.0,53.5,194.5,53.0,202.0,52.5,210.0,52.0,218.0,51.0,226.5,50.5,234.5,50.0,242.5,49.0,251.0,47.5,259.5,46.5,268.0,45.5,276.0,44.5,284.0,44.0,292.5,43.0,300.5,42.0,309.0,41.5,317.0,40.5,324.5,40.0,331.5,40.0,339.0,39.5,346.5,39.0,354.5,39.0,363.0,39.0,371.5,39.0,379.5,38.5" stroke="black" stroke-width="2" fill="none" />
<polyline points="388.5,52.0,381.0,52.5,373.0,53.0,365.0,54.0,357.0,55.0,348.5,56.0,340.5,56.5,332.0,56.5,323.5,57.0,315.5,57.5,308.5,58.5,301.0,59.5,292.0,59.5,283.5,60.5,275.5,61.0,267.5,61.5,260.0,62.0,251.5,63.0,243.5,63.5,235.0,64.0,226.5,64.0,218.5,64.5,210.5,65.0,202.5,65.5,195.5,65.5,188.5,65.5,181.0,65.5,173.0,66.5,165.0,67.5,157.5,68.0,149.5,69.0,141.0,69.5" stroke="black" stroke-width="2" fill="none" />
<polyline points="139.5,90.0,131.5,97.5,123.5,105.0" stroke="black" stroke-width="2" fill="none" />
<polyline points="123.0,104.5,122.0,112.5,121.5,120.5,120.5,129.0" stroke="black" stroke-width="2" fill="none" />
<polyline points="117.5,106.5,125.5,98.5,133.5,91.0" stroke="black" stroke-width="2" fill="none" />
<polyline points="140.0,93.5,154.0,101.5,168.5,109.5,180.5,118.0,190.0,111.0,198.0,109.0,206.0,105.5,213.5,101.0,221.5,97.5,229.0,93.5,237.0,92.0,245.0,90.0,253.0,89.0,260.5,89.0,268.5,89.0,276.5,89.0,284.5,90.0,292.5,91.0,301.0,93.0,309.0,98.0" stroke="black" stroke-width="2" fill="none" />
<polyline points="310.5,100.5,300.5,93.0" stroke="black" stroke-width="2" fill="none" />
<polyline points="298.5,100.5,306.0,114.5" stroke="black" stroke-width="2" fill="none" />
<polyline points="323.0,118.5,315.5,118.5,308.0,119.0,300.0,119.5,292.5,120.5,284.0,121.0,276.0,121.5,267.5,122.5,259.0,123.0,250.5,123.0,242.5,124.0,235.0,125.0,227.0,125.0,219.0,125.5,211.0,125.5,203.0,126.0,195.0,126.0,187.0,126.5,179.0,127.0,171.0,127.5,163.0,128.5,154.5,129.0,146.5,130.0,138.5,130.5,130.5,131.0,123.0,131.5,115.5,132.0,108.0,132.5,100.5,133.5,93.0,134.0" stroke="black" stroke-width="2" fill="none" />
<polyline points="92.5,126.5,101.0,125.5,109.0,124.5,116.5,124.0,124.0,123.0,132.0,122.5,139.5,122.0,147.5,121.0,155.0,120.5,162.5,120.5,170.0,120.0,178.5,119.5,187.0,118.5,195.0,118.0,203.5,117.5,212.0,117.0,220.0,117.0,228.5,116.5,237.0,116.0,244.5,116.5,252.5,116.0,260.5,115.5,269.5,115.5,277.5,115.0,285.0,114.0,292.5,113.5,301.0,113.0,309.5,112.5,317.5,112.0,326.0,111.5" stroke="black" stroke-width="2" fill="none" />
<polyline points="324.5,125.5,316.5,126.0,308.0,126.0,300.0,126.5,292.5,127.0,284.0,127.5,276.0,128.0,268.0,128.5,259.5,129.0,251.5,129.5,243.5,130.0,235.5,131.0,227.0,131.5,219.0,132.0,211.5,132.5,204.0,133.5,196.0,134.0,187.5,135.0,179.5,135.5,171.0,136.0,163.0,137.0,155.0,137.5,146.5,137.5,139.0,138.0,131.5,138.5,124.0,139.5,115.5,139.5,107.0,139.0,98.5,139.5,90.5,140.0,82.5,140.0" stroke="black" stroke-width="2" fill="none" />
<polyline points="82.5,149.0,91.0,148.5,99.0,148.5,107.5,148.5,116.0,148.0,124.0,147.5,132.5,146.5,141.0,145.5,149.5,145.0,157.5,145.0,165.0,144.5,173.0,143.5,180.5,143.0,187.5,142.0,195.0,141.0,202.5,140.5,210.0,140.5,218.5,140.0,226.5,139.5,234.5,138.5,242.0,137.5,250.0,137.5,257.5,137.5,265.5,137.5,274.0,137.0,283.0,136.5,292.0,136.5,301.0,136.0,309.5,135.5,318.0,134.5,326.0,134.0,334.0,133.5,341.5,133.0,349.0,132.0,356.5,131.5,364.5,130.5,372.5,130.0,381.0,129.5,389.0,129.0,397.0,128.5,405.0,128.0,413.0,127.5,421.0,127.5,428.5,127.5,436.5,127.0" stroke="black" stroke-width="2" fill="none" />
<polyline points="417.5,74.0,409.5,74.5,401.0,75.0,393.0,76.0,385.5,77.0,378.0,78.0,370.0,79.0,362.0,80.0,354.0,81.0,346.0,81.0,338.5,81.0,331.0,81.5,323.0,82.0,315.0,82.0,307.5,83.0,299.5,83.5,291.5,83.5,283.5,84.0,275.5,84.5,267.5,84.5,259.0,85.0,251.0,85.5,243.0,86.0,234.5,86.0,226.5,86.0,219.0,86.5,211.0,87.0,203.0,87.5,195.5,88.0,187.0,88.5,179.0,88.5,171.0,89.0,162.0,88.5,154.0,89.0,146.5,89.5,139.0,90.0,131.5,90.5,123.5,91.0,115.5,91.0" stroke="black" stroke-width="2" fill="none" />
<polyline points="115.5,93.5,102.5,101.5,100.0,109.5,98.0,117.5,93.0,125.5,88.5,133.5,85.0,141.5,80.5,149.0,78.0,157.0,75.5,164.5,73.0,173.0,72.5,180.5,72.0,188.5,72.0,197.0,71.5,205.0,72.0,213.0,71.5,221.0,72.0,229.0,72.0,236.5,71.5,244.0,71.5,252.0,71.5,260.0,71.5,268.0,71.5,276.5,71.5,284.5,71.5,293.0,71.5,301.0,71.5,309.0,71.5,317.5,72.0,325.5,72.0,333.0" stroke="black" stroke-width="2" fill="none" />
<polyline points="76.0,213.5,84.0,220.5,92.0,230.0,100.0,238.0,107.5,242.5,115.0,251.0,123.5,253.0,131.5,257.5,140.0,261.5,148.0,266.5,156.0,271.0,164.0,273.0,172.0,276.0,179.5,277.5,187.5,280.0,195.5,280.0,203.5,282.5,212.0,285.5,220.0,286.5,228.0,287.5,236.0,290.5,244.0,291.5,252.0,293.0,260.0,296.0,263.0,300.0,261.0,308.0,256.0,316.0,253.0,324.0,249.5,332.0,253.0,335.5,261.0,337.5,269.0,339.5,277.0,339.0,285.0,336.5,292.5,333.5,300.5,328.0,304.5,316.5,313.0,314.0,321.0,308.5,329.0,305.5,336.5,303.5,344.5,300.5,353.0,295.5,361.0,290.5,369.5,288.0,377.5,282.0,386.0,282.0,394.0,280.0,402.0,274.5" stroke="black" stroke-width="2" fill="none" />
<polyline points="399.0,272.0,391.0,277.0,391.0,280.0,403.0,272.0,406.5,263.5,404.5,255.5,410.5,247.0,418.5,239.0,415.0,230.5,413.0,222.5,411.0,215.0,408.0,207.5,404.0,199.5,398.5,191.5,390.5,183.5,395.5,171.5,402.5,167.5,394.5,172.5,386.5,176.0,378.5,178.5,370.5,180.0,362.5,180.5,355.0,180.5,347.0,180.5,339.5,179.5,332.0,176.0,324.0,174.0" stroke="black" stroke-width="2" fill="none" />
<polyline points="325.5,174.0,334.5,182.0" stroke="black" stroke-width="2" fill="none" />
<polyline points="340.5,184.0,332.5,181.0,324.5,177.0" stroke="black" stroke-width="2" fill="none" />
<polyline points="327.0,175.5,350.0,184.5,351.0,189.5,355.5,184.5,363.5,184.5,371.5,183.0,379.5,181.5,386.5,177.0,394.5,176.0,403.0,171.0,411.0,164.5,418.5,160.5,426.5,154.5,434.5,148.5,442.5,134.0" stroke="black" stroke-width="2" fill="none" />
<polyline points="443.0,80.5,435.0,81.5,427.0,82.0,419.5,82.5,411.0,83.5,403.0,83.5,394.5,84.0,386.5,84.0,378.5,84.0,370.5,84.0,362.5,84.0,354.5,84.5,346.5,85.0,339.0,85.5,330.5,86.0,322.5,86.0,314.5,86.0,306.5,87.0,298.5,88.0,290.5,88.5,282.5,90.0,274.5,91.5,266.5,92.5,259.0,93.5,251.0,93.5,243.0,93.5,235.0,94.0,227.0,93.5,218.5,94.0,211.0,94.0,203.5,94.5,195.5,95.0,187.5,96.0,179.5,96.5,172.0,97.5,164.5,98.0,156.5,98.5,148.0,98.5,140.0,99.0,131.5,99.0,123.5,99.5,115.5,99.5,107.5,100.5,100.0,101.0" stroke="black" stroke-width="2" fill="none" />
<polyline points="99.5,104.0,107.5,97.0,115.0,93.0,123.5,93.0,132.0,77.5,140.0,63.5,148.0,52.5,156.0,43.5,163.5,35.0,171.5,29.0,179.0,23.5,187.5,21.0,195.5,18.0,204.0,17.5,212.0,18.5,220.5,18.5,228.5,18.5,236.5,20.5,244.5,23.5,252.5,27.0,260.0,31.0,268.5,36.0,276.5,39.0,284.5,35.0,292.5,32.5,300.5,28.5,308.5,26.5,316.0,24.5,324.0,24.5,332.0,24.5,340.0,25.5,348.0,27.5,355.5,30.5,363.5,37.0,371.0,47.0" stroke="black" stroke-width="2" fill="none" />
<polyline points="348.0,26.0,361.0,34.5,368.0,42.5,374.0,51.0,376.5,58.5,378.5,66.5,388.5,74.5,404.5,82.5,413.5,90.0,422.5,97.5" stroke="black" stroke-width="2" fill="none" />
<polyline points="413.5,146.0,405.5,147.5,397.5,148.0,389.0,148.5,380.5,148.5,373.0,149.0,366.0,150.0,358.5,150.5,349.5,150.5,341.0,151.0,333.0,151.5,325.5,152.0,317.5,152.0,309.5,153.0,301.0,153.5,293.0,153.5,284.5,153.0,276.5,153.5,268.5,153.5,260.5,154.0,253.0,154.0,246.0,154.0,238.5,154.0,230.0,155.0,222.0,156.0,214.0,156.5,206.0,157.5,198.0,158.5,189.5,159.5,181.0,160.0,172.5,161.0,164.5,161.5,156.0,162.0,148.5,162.5,140.5,162.5,132.5,163.0,124.5,164.5,116.5,165.0,108.0,165.0,100.0,165.5,92.0,166.0,83.5,167.0,75.5,167.0" stroke="black" stroke-width="2" fill="none" />
<polyline points="99.0,107.5,107.0,107.0,115.0,106.5,122.5,106.5,131.0,106.5,138.5,106.0,146.5,106.0,154.5,106.0,162.5,105.5,170.5,105.0,178.5,104.5,186.5,104.0,194.5,103.5,202.5,103.0,210.5,102.5,218.5,102.0,226.5,101.5" stroke="black" stroke-width="2" fill="none" />
<polyline points="230.0,93.0,214.0,101.0,199.0,108.5" stroke="black" stroke-width="2" fill="none" />
<polyline points="201.5,114.0,193.0,121.5,185.5,129.5" stroke="black" stroke-width="2" fill="none" />
<polyline points="179.5,130.0,187.5,123.0" stroke="black" stroke-width="2" fill="none" />
<polyline points="181.5,117.5,173.0,124.5" stroke="black" stroke-width="2" fill="none" />
<polyline points="172.5,120.5,180.5,120.0" stroke="black" stroke-width="2" fill="none" />
<polyline points="180.0,112.0,188.5,109.0,196.5,106.0,205.0,102.0,213.0,97.0,221.0,93.5,229.0,90.5,237.0,88.5,245.0,87.0,253.0,86.0,261.0,86.5,269.0,86.5,277.5,86.0,285.5,85.5,293.5,87.0" stroke="black" stroke-width="2" fill="none" />
<polyline points="306.0,117.5,298.5,118.5,290.5,119.5,283.0,120.5,274.5,123.0,266.5,124.0,259.0,126.0,251.5,126.0,243.5,128.0,235.5,128.0,227.5,129.5,219.0,130.0,211.0,131.0,203.0,132.5,195.5,138.0,184.5,135.0,176.5,132.5,172.5,129.5,165.5,121.0,151.0,113.0,136.5,105.0" stroke="black" stroke-width="2" fill="none" />
<polyline points="139.5,106.5,147.5,106.0" stroke="black" stroke-width="2" fill="none" />
<polyline points="147.0,107.5,155.0,100.5" stroke="black" stroke-width="2" fill="none" />
<polyline points="148.5,100.0,140.5,107.5" stroke="black" stroke-width="2" fill="none" />
<polyline points="147.5,115.0,155.5,107.0" stroke="black" stroke-width="2" fill="none" />
<polyline points="156.5,112.5,164.0,112.0" stroke="black" stroke-width="2" fill="none" />
<polyline points="164.0,114.0,172.0,106.0" stroke="black" stroke-width="2" fill="none" />
<polyline points="173.0,113.5,165.0,120.5" stroke="black" stroke-width="2" fill="none" />
<polyline points="156.0,116.5,163.5,109.0" stroke="black" stroke-width="2" fill="none" />
<polyline points="173.0,130.5,180.5,122.5,188.0,114.5" stroke="black" stroke-width="2" fill="none" />
<polyline points="199.0,124.0,191.0,132.0,190.0,140.0,193.0,154.5,201.0,161.5,209.0,167.0,217.0,170.0,225.0,171.5,233.0,173.5,241.0,173.5,249.0,173.5,257.5,174.0,265.5,173.0,273.5,172.0,281.5,170.0,289.0,165.5,297.0,162.5,305.0,161.5,313.0,156.5,321.0,149.0,329.0,151.0,337.0,152.0,345.0,151.5,353.0,156.5,361.0,159.0,368.5,162.0,376.5,163.0,384.5,162.5,392.5,162.5,400.5,162.5" stroke="black" stroke-width="2" fill="none" />
<polyline points="421.0,241.5,413.0,249.5,405.0,255.5,396.0,258.5,388.0,259.0,380.5,260.0,372.5,260.5,364.5,260.5,357.0,261.5,349.0,261.5,341.0,261.5,333.0,262.0,325.5,262.0,317.5,262.0,309.5,262.0,301.0,261.0,293.0,260.0,285.0,259.0,277.0,258.0,269.0,258.0,261.0,256.0,253.0,255.0,244.5,253.0,236.0,251.0,228.0,249.0,220.0,246.0,211.5,242.5,204.0,238.5,196.5,233.5,188.5,226.5" stroke="black" stroke-width="2" fill="none" />
<polyline points="187.0,225.0,195.0,229.0,203.0,234.0,211.5,238.0,219.5,242.0,227.5,246.5,235.5,248.5,243.5,249.5,252.0,251.5,260.0,254.0,268.0,255.0,276.0,256.0,284.0,257.0,292.0,257.5,300.0,258.5,308.5,259.0,316.5,259.5,324.5,259.5,332.5,259.5,340.5,260.0,348.5,260.0,356.0,260.0,364.0,259.0,371.5,259.5,379.5,258.5,387.0,257.5,395.0,255.5,403.5,253.5,411.5,248.0" stroke="black" stroke-width="2" fill="none" />
<polyline points="419.5,229.0,407.5,229.0,399.5,232.0,391.5,235.0,383.5,237.0,375.5,239.0,367.5,241.5,359.5,243.5,351.0,243.0,343.0,243.0,335.0,243.5,327.0,243.0,319.0,242.5,310.5,241.5,302.5,241.0,294.5,239.0,286.5,238.0,278.5,236.5,270.5,235.5,262.5,234.0,254.5,232.0,246.5,231.0,238.5,228.0,231.0,225.5,223.0,222.0,214.5,217.0,207.0,211.0,198.5,206.0,191.0,204.0,183.0,203.5,175.5,206.5,168.0,218.0" stroke="black" stroke-width="2" fill="none" />
<polyline points="169.0,230.0,177.5,245.0,185.5,251.0,193.0,255.5,201.0,259.5,209.0,262.0,216.5,265.5,224.0,268.0,231.5,270.0,239.5,271.0,247.5,273.0,255.5,275.0,264.0,276.5,272.0,277.5,280.0,278.5,288.5,279.0,296.0,280.0,304.0,280.0,312.0,281.0,320.5,281.0,329.0,282.0,336.5,281.5,344.0,282.5,352.0,282.5,360.5,282.5,368.5,283.0,374.0,284.5,367.0,287.5,354.0,295.0,338.0,303.0,318.0,311.0,309.0,319.0,302.5,327.0" stroke="black" stroke-width="2" fill="none" />
<polyline points="387.0,294.5,406.0,302.5" stroke="black" stroke-width="2" fill="none" />
<polyline points="417.5,320.0,406.0,328.0,399.0,335.5,400.0,334.5,408.0,326.0,416.5,321.0,424.5,319.0" stroke="black" stroke-width="2" fill="none" />
<polyline points="318.5,150.0,311.5,158.0,304.0,160.0,312.0,154.0" stroke="black" stroke-width="2" fill="none" />
<polyline points="319.5,129.0,327.5,120.0,320.0,122.5,318.5,130.5,315.5,138.5,315.5,146.5,303.0,151.5,298.0,159.0,285.0,170.0,269.0,177.5,249.0,185.5,240.0,188.5,248.5,186.5,256.5,183.5,264.5,179.0,272.5,176.0,280.5,172.5,288.5,169.0,284.5,174.5,267.5,182.5,246.5,190.5,246.5,191.0,254.5,189.0,262.5,184.5,270.5,181.0,278.5,177.0,287.0,173.0" stroke="black" stroke-width="2" fill="none" />
<polyline points="239.0,233.5,220.0,225.0,209.0,217.0,196.5,208.5" stroke="black" stroke-width="2" fill="none" />
<polyline points="194.0,206.5,207.5,214.0,218.5,222.0,236.0,229.5" stroke="black" stroke-width="2" fill="none" />
<polyline points="218.0,242.0,202.0,234.5,192.0,227.0" stroke="black" stroke-width="2" fill="none" />
<polyline points="186.5,225.5,193.0,233.5,207.5,241.5,226.5,249.5" stroke="black" stroke-width="2" fill="none" />
<polyline points="198.0,256.0,184.5,248.5,176.0,240.0,171.5,231.5,168.5,223.5,171.5,215.5,178.5,207.5" stroke="black" stroke-width="2" fill="none" />
<polyline points="182.0,203.5,169.5,212.0,166.5,220.0,166.5,228.5,169.5,236.5,173.5,244.5,183.5,252.5,199.0,260.5" stroke="black" stroke-width="2" fill="none" />
<polyline points="130.0,105.5,138.0,97.5" stroke="black" stroke-width="2" fill="none" />
<polyline points="128.5,104.0,125.5,112.0,123.5,120.0,122.5,127.5" stroke="black" stroke-width="2" fill="none" />
<polyline points="119.0,104.0,112.0,106.0,106.0,114.0,101.0,121.5,96.0,129.0,91.5,136.5,87.5,144.5,83.5,152.0,80.5,160.0,77.5,168.5,75.5,176.5,75.5,184.5,75.0,192.5,74.5,200.5,75.0,209.0,77.0,217.0,86.0,225.0,94.5,233.0,103.0,241.0,113.0,249.0,128.0,257.0,145.0,265.0" stroke="black" stroke-width="2" fill="none" />
<polyline points="107.0,109.0,115.0,101.5" stroke="black" stroke-width="2" fill="none" />
<polyline points="197.5,106.0,212.0,98.5,228.0,91.0" stroke="black" stroke-width="2" fill="none" />
<polyline points="242.0,96.0,223.0,104.0,208.0,111.5,197.5,119.5,205.5,118.5,213.5,115.5,215.0,119.5,222.5,118.5,230.5,116.0,238.5,110.0,246.0,108.0,254.5,107.0,262.5,108.0,271.0,113.0,279.0,113.0,287.0,112.5,295.0,111.5" stroke="black" stroke-width="2" fill="none" />
<polyline points="294.5,86.0,286.0,78.0,274.0,69.5,256.5,61.5" stroke="black" stroke-width="2" fill="none" />
<polyline points="253.0,57.5,273.5,65.5" stroke="black" stroke-width="2" fill="none" />
<polyline points="292.5,84.0,284.5,75.0,276.0,71.0,268.0,66.5,260.0,62.5,252.0,61.0,244.5,59.0,236.0,57.5,228.0,56.5,220.0,57.5,212.0,58.5,204.5,61.0,196.5,64.0,189.0,68.0,181.5,73.0,188.0,69.0,206.0,61.0" stroke="black" stroke-width="2" fill="none" />
<polyline points="212.5,54.5,191.5,62.5,178.5,71.0,180.0,70.0,188.0,65.0,196.0,61.0,204.0,58.0,211.5,56.5,219.5,56.0,228.0,54.5,236.0,55.0,244.0,55.5,252.0,57.0,259.5,60.0,267.5,63.0,275.5,66.5,283.0,71.5,295.0,81.5,303.0,88.5,310.5,94.0,318.5,97.0,326.5,94.0,334.5,91.5,343.0,89.5,351.0,87.5,359.5,87.5,367.5,86.5,375.5,86.5,384.0,88.0,392.0,88.5,399.5,90.5,407.5,91.5" stroke="black" stroke-width="2" fill="none" />
<polyline points="406.0,86.0,398.0,80.0,388.0,75.5,380.0,74.0,371.5,73.0,363.5,72.5,355.5,71.5,347.0,69.5,339.0,69.0,331.0,69.0,322.5,68.5,314.5,70.0,306.0,71.0,298.0,72.0,290.0,74.0,285.5,68.5,283.5,60.5,279.5,53.0,275.5,45.0,286.0,37.5,307.0,29.5" stroke="black" stroke-width="2" fill="none" />
<polyline points="304.0,27.5,284.0,35.5" stroke="black" stroke-width="2" fill="none" />
<polyline points="248.0,23.0,264.0,31.0,278.5,43.0,286.5,59.0,294.5,69.5,302.5,67.5,310.0,67.0,318.0,67.5,326.0,66.5,334.0,66.5,342.0,66.5,350.0,66.5,358.0,68.5,365.5,69.5,373.5,70.5,385.5,72.0,393.5,75.5,401.5,80.0,409.5,86.0,418.0,95.0,426.0,100.5,433.5,104.5,441.5,104.5" stroke="black" stroke-width="2" fill="none" />
<polyline points="310.0,102.5,302.0,101.0,294.0,99.0,286.0,97.0,278.0,95.0,270.5,94.5,262.5,94.5,254.5,94.5,246.0,96.0,238.0,99.0,229.5,101.0,221.5,106.0,213.5,110.0,205.5,114.0,197.5,118.0,190.0,120.0,181.5,120.0,174.0,115.0,166.0,110.0,158.0,104.5,150.5,100.0,142.5,95.0,134.0,93.0,133.0,86.0,136.5,78.0,142.0,70.0,147.0,62.0,153.0,54.0,159.5,46.0,167.0,38.0,179.0,30.0,198.0,22.0" stroke="black" stroke-width="2" fill="none" />
</svg>